<?xml version="1.0" encoding="utf-8"?>
<!-- Generator: Adobe Illustrator 24.3.0, SVG Export Plug-In . SVG Version: 6.00 Build 0)  -->
<svg version="1.1" id="Layer_1" xmlns="http://www.w3.org/2000/svg" xmlns:xlink="http://www.w3.org/1999/xlink" x="0px" y="0px"
	 viewBox="0 0 96 104" style="enable-background:new 0 0 96 104;" xml:space="preserve">
<style type="text/css">
	.st0{fill-rule:evenodd;clip-rule:evenodd;fill:url(#SVGID_1_);}
	.st1{fill:#FFFFFF;}
</style>
<linearGradient id="SVGID_1_" gradientUnits="userSpaceOnUse" x1="11.7105" y1="28.62" x2="83.7193" y2="111.3823" gradientTransform="matrix(1 0 0 -1 0 106)">
	<stop  offset="0" style="stop-color:#1B968D"/>
	<stop  offset="1" style="stop-color:#1DB2A6"/>
</linearGradient>
<path class="st0" d="M42.7,1h10c16.6,0,30,13.4,30,30v10c0,16.6-13.4,30-30,30h-10c-16.6,0-30-13.4-30-30V31
	C12.7,14.4,26.2,1,42.7,1z"/>
<g>
	<path class="st1" d="M37.9,30.9c0-0.7,0.3-1,1-1h27.7c0.7,0,1,0.3,1,1v5.8c0,0.3-0.1,0.4-0.4,0.4c-1.2,0-2.4,0-3.6,0
		c-2.1,0.2-3.6,2-3.5,4.1c0.1,2,1.8,3.7,3.8,3.8c1.1,0,2.3,0,3.4,0c0.3,0,0.3,0.1,0.3,0.4c0,1.6,0,3.3,0,4.9c0,0.7-0.3,0.9-1,0.9
		H49.1v1.1h17.5c1.3,0,2.1-0.8,2.1-2.1V31c0-1.4-0.8-2.2-2.2-2.2h-2.8c0,0,0-0.1-0.1-0.1c0.1-0.1,0.2-0.1,0.3-0.2
		c1.2-1.3,2.5-2.5,3.7-3.8c1.1-1.1,1.1-2.3,0-3.4c-2-2-4.1-4.1-6.1-6.1c-1-1-2.3-1-3.3,0C54,19.5,49.7,23.8,45.5,28
		c-0.2,0.2-0.3,0.3-0.4,0.5c-0.1,0.2-0.3,0.3-0.5,0.3c-1.9,0-3.8,0-5.7,0c-1.2,0-2,0.8-2,2v4.9h1.1V30.9z M67.5,43.7
		c0,0.1,0,0.1,0,0.2c-0.1,0-0.2,0-0.3,0h-3.1c-1.7,0-3-1.3-3-2.9c0-1.6,1.3-2.9,2.9-2.9h3.2c0.2,0,0.3,0.1,0.3,0.3V43.7z M60.3,28.5
		c-0.2,0.3-0.4,0.4-0.7,0.4c-0.9,0-1.8,0-2.7,0c-0.9,0-1.8,0-2.8,0c-0.3,0-0.4-0.1-0.6-0.3c-1-1.4-1.1-2.9-0.3-4.4
		c0.8-1.5,2.1-2.3,3.8-2.3c1.6,0,2.9,0.8,3.6,2.3C61.4,25.6,61.2,27.1,60.3,28.5z M46.5,28.6c4.2-4.2,8.3-8.3,12.5-12.5
		c0.6-0.6,1.2-0.6,1.8,0c2,2,4.1,4.1,6.1,6.1c0.5,0.5,0.5,1.1,0,1.7c-1.6,1.6-3.2,3.2-4.8,4.8c-0.2,0.2-0.4,0.2-0.7,0.3
		c0,0,0-0.1-0.1-0.1c0.8-1.5,1-3,0.4-4.5c-0.4-1.1-1.1-2-2-2.6c-1.9-1.3-4.5-1.1-6.3,0.3c-1.6,1.3-2.7,4-1.1,6.8h-6.1
		C46.4,28.7,46.5,28.6,46.5,28.6z"/>
	<path class="st1" d="M63.5,33.4c0.1,0,0.3,0,0.4,0c0.3-0.1,0.4-0.3,0.4-0.5c0-0.3-0.2-0.5-0.5-0.5c-0.1,0-0.3,0-0.4,0
		c-2.3,0-4.6,0-7,0c-4.8,0-9.6,0-14.4,0c-0.1,0-0.3,0-0.4,0c-0.3,0-0.5,0.2-0.5,0.5c0,0.3,0.2,0.5,0.5,0.6c0.1,0,0.2,0,0.4,0
		c3.6,0,7.1,0,10.7,0C56.3,33.4,59.9,33.4,63.5,33.4z"/>
	<path class="st1" d="M58.8,25.6c-0.5-0.6-1-0.7-1.7-0.5c-0.2,0.1-0.5,0.2-0.7,0.1c-0.2,0-0.4-0.2-0.5-0.3c0,0,0-0.2,0-0.2
		c0,0,0.2-0.1,0.2,0c0.1,0.1,0.2,0.2,0.4,0.3c0.3-0.3,0.5-0.5,0.8-0.7c-0.5-0.7-0.9-0.7-1.7-0.3c-0.1-0.1-0.2-0.1-0.2-0.2
		c-0.1,0.1-0.3,0.2-0.4,0.3c0.1,0.1,0.2,0.2,0.2,0.3c0,0,0,0.1,0,0.1c-0.3,0.4-0.4,0.9-0.1,1.3c0.3,0.5,0.8,0.7,1.4,0.6
		c0.2,0,0.5-0.1,0.7-0.1c0.4-0.1,0.7,0.1,0.9,0.4c0.1,0.1,0,0.2,0,0.3c-0.1,0-0.2,0-0.3,0c-0.2-0.1-0.3-0.3-0.6-0.5
		c-0.1,0.2-0.2,0.3-0.4,0.4c-0.1,0.1-0.2,0.3-0.4,0.4c0.5,0.6,1,0.8,1.6,0.6c0.3-0.1,0.5-0.2,0.7,0.1c0.1-0.1,0.3-0.2,0.4-0.3
		c-0.1-0.1-0.2-0.2-0.3-0.3C59.2,26.7,59.2,26.1,58.8,25.6z"/>
	<path class="st1" d="M64.3,39.2c-1.1,0-1.9,0.9-1.9,1.9c0,1.1,0.9,1.9,1.9,1.9c1.1,0,1.9-0.9,1.9-1.9C66.2,40,65.3,39.2,64.3,39.2z
		 M64.3,41.9c-0.4,0-0.8-0.3-0.8-0.8c0-0.4,0.3-0.8,0.8-0.8c0.4,0,0.8,0.3,0.8,0.8C65.1,41.5,64.7,41.9,64.3,41.9z"/>
	<path class="st1" d="M27.4,42c0.3,0.1,0.6,0.2,0.9,0.3c-0.1,0.1-0.1,0.2-0.2,0.3c-0.2,0.3-0.4,0.6-0.5,0.9
		c-0.3,0.8-0.4,1.6-0.4,2.4c0,2,0,4,0,5.9c0,0.4,0.2,0.6,0.6,0.6c0.7,0,1.4,0,2.1,0c0.4,0,0.6-0.2,0.6-0.6c0-0.4,0-0.7,0-1.1
		c0-0.1,0-0.2,0.2-0.2c2,0,4,0,6,0c1,0,2,0,3,0c1.5,0,3,0,4.5,0c0.2,0,0.2,0.1,0.2,0.2c0,0.3,0,0.6,0,1c0,0.4,0.2,0.6,0.6,0.6
		c0.7,0,1.4,0,2,0c0.5,0,0.7-0.2,0.7-0.7c0-0.5,0-1.1,0-1.6c0-1.6,0-3.1-0.1-4.7c0-1-0.3-2-0.9-2.9c0-0.1-0.1-0.1-0.1-0.2
		c0.3-0.1,0.6-0.2,0.9-0.3c0.3-0.1,0.5-0.3,0.5-0.6c0.1-0.5-0.2-1.1-0.9-1.1c-0.5,0-1,0-1.6,0c-0.2,0-0.3,0-0.3-0.2
		c-0.4-0.7-0.9-1.4-1.3-2.1c-0.6-0.9-1.5-1.4-2.5-1.4c-2.6,0-5.3,0-7.9,0c-1.1,0-1.9,0.5-2.5,1.4c-0.5,0.7-0.9,1.4-1.3,2.1
		c-0.1,0.1-0.2,0.2-0.4,0.2c-0.5,0-1.1,0-1.6,0c-0.5,0-0.8,0.3-0.8,0.8C26.7,41.6,26.9,41.9,27.4,42z M40.3,48.9
		c0,0.3-0.1,0.4-0.4,0.4c-0.7,0-1.4,0-2,0c-0.1,0-0.3,0-0.4,0c-0.8,0-1.6,0-2.4,0c-0.4,0-0.5-0.1-0.5-0.5c0-0.1,0-0.3,0-0.4
		c0-0.2,0.1-0.3,0.3-0.3c0.1,0,0.1,0,0.2,0c1.6,0,3.2,0,4.8,0c0.4,0,0.5,0.1,0.5,0.5C40.3,48.7,40.3,48.8,40.3,48.9z M46.1,44.7
		c0.3,0.4,0.4,0.8,0.2,1.2c-0.2,0.5-0.5,0.7-1,0.7c-0.3,0-0.7,0-1,0c0,0,0,0,0,0c-0.3,0-0.6,0-0.9,0c-0.4,0-0.8-0.3-0.8-0.7
		c-0.1-0.4,0.1-0.8,0.5-0.9c0.6-0.2,1.2-0.5,1.9-0.7C45.4,44.2,45.8,44.4,46.1,44.7z M29.8,41.7c0.3-0.5,0.6-1,0.9-1.5
		c0.3-0.5,0.7-1.1,1-1.6c0.4-0.6,1-0.9,1.7-1c0.7,0,1.3,0,2,0c1.2,0,2.4,0,3.7,0c0.8,0,1.6,0,2.4,0c0.7,0,1.2,0.3,1.6,0.9
		c0.6,1,1.3,2,1.9,3.1c0.1,0.2,0.2,0.3,0.1,0.5c-0.1,0.2-0.3,0.2-0.4,0.2c-2.4,0-4.8,0-7.2,0c-2.3,0-4.7,0-7,0c-0.1,0-0.1,0-0.2,0
		C29.8,42.3,29.6,42,29.8,41.7z M28.7,44.7c0.3-0.4,0.8-0.4,1.3-0.3c0.5,0.2,1.1,0.4,1.6,0.6c0.5,0.2,0.7,0.5,0.6,0.9
		c-0.1,0.4-0.4,0.7-0.8,0.7c-0.3,0-0.7,0-1,0c-0.3,0-0.6,0-0.9,0c-0.5,0-0.9-0.3-1.1-0.7C28.3,45.5,28.4,45.1,28.7,44.7z"/>
	<path class="st1" d="M36.5,41.8c-0.2-0.6-0.7-1-1.3-1.2c0,0-0.1,0-0.2,0c-0.7,0.6-1.5,0.6-2.1,0c-0.1-0.1-0.1-0.1-0.2,0
		c-0.4,0.2-0.8,0.5-1,0.8c-0.1,0.1-0.2,0.3-0.3,0.5C33.1,41.9,34.8,41.9,36.5,41.8C36.5,41.8,36.5,41.8,36.5,41.8z"/>
	<path class="st1" d="M43.3,41.8c-0.2-0.6-0.7-1-1.3-1.2c0,0-0.1,0-0.2,0.1c-0.6,0.6-1.5,0.6-2.1,0c-0.1-0.1-0.1-0.1-0.2,0
		c-0.4,0.2-0.7,0.4-1,0.8c-0.1,0.2-0.2,0.4-0.3,0.6c1.7,0,3.4,0,5.1,0C43.4,41.8,43.4,41.8,43.3,41.8z"/>
	<path class="st1" d="M40.8,40.6c0.7,0,1.2-0.6,1.2-1.3c0-0.7-0.5-1.3-1.2-1.3c-0.6,0-1.2,0.6-1.2,1.3
		C39.7,40.1,40.2,40.6,40.8,40.6z"/>
	<path class="st1" d="M33.5,40.5c0.4,0.2,0.8,0.1,1.2-0.1c0.5-0.4,0.6-1.1,0.3-1.6c-0.3-0.5-0.8-0.8-1.3-0.6
		c-0.5,0.1-0.9,0.6-0.9,1.4C32.8,39.9,33,40.3,33.5,40.5z"/>
</g>
</svg>
