<?xml version="1.0" encoding="utf-8"?>
<!-- Generator: Adobe Illustrator 24.3.0, SVG Export Plug-In . SVG Version: 6.00 Build 0)  -->
<svg version="1.1" id="Layer_1" xmlns="http://www.w3.org/2000/svg" xmlns:xlink="http://www.w3.org/1999/xlink" x="0px" y="0px"
	 viewBox="0 0 96 104" style="enable-background:new 0 0 96 104;" xml:space="preserve">
<style type="text/css">
	.st0{fill-rule:evenodd;clip-rule:evenodd;fill:url(#SVGID_1_);}
	.st1{fill:#FFFFFF;}
</style>
<linearGradient id="SVGID_1_" gradientUnits="userSpaceOnUse" x1="11.7105" y1="28.62" x2="83.7193" y2="111.3823" gradientTransform="matrix(1 0 0 -1 0 106)">
	<stop  offset="0" style="stop-color:#1B968D"/>
	<stop  offset="1" style="stop-color:#1DB2A6"/>
</linearGradient>
<path class="st0" d="M42.7,1h10c16.6,0,30,13.4,30,30v10c0,16.6-13.4,30-30,30h-10c-16.6,0-30-13.4-30-30V31
	C12.7,14.4,26.2,1,42.7,1z"/>
<g>
	<path class="st1" d="M43.7,39.5c0.4,0.1,0.8,0.3,1.1,0.4c0.4,0.2,0.8,0.4,1.2,0.6c0.7,0.4,1.1,1,1.3,1.8c0.3,1,0.6,2.1,0.8,3.1
		c0.4,1.6,0.6,3.3,0.6,4.9c0,0.5-0.3,0.8-0.8,0.8c-4.9,0-9.8,0-14.7,0c-0.5,0-0.8-0.3-0.8-0.8c0.1-0.9,0.1-1.7,0.2-2.6
		c0.1-0.9,0.3-1.8,0.5-2.6c0.2-1.1,0.6-2.1,0.9-3.2c0.2-0.5,0.5-1,1-1.3c0.8-0.5,1.6-0.8,2.5-1.1c0,0.3,0,0.5,0.1,0.7
		c0.1,0.6,0.5,1.1,0.9,1.6c0.7,0.7,1.4,1.4,2.1,2.2c0,0,0,0,0.1,0c0.3-0.3,0.6-0.5,0.8-0.8c0.5-0.5,1-1,1.5-1.6
		C43.5,41.1,43.9,40.4,43.7,39.5z"/>
	<path class="st1" d="M46.2,37.7c-0.4,0-0.9,0-1.3,0c-0.5,0-1-0.1-1.5-0.2c-0.1,0-0.2,0-0.4,0.1c-0.5,0.5-1,0.9-1.7,1.1
		c-0.7,0.2-1.4,0-2-0.4c-0.3-0.2-0.5-0.4-0.8-0.7c-0.1-0.1-0.2-0.1-0.4-0.1c-0.9,0.2-1.8,0.2-2.8,0.2c0,0,0,0-0.1,0
		c0.2-0.3,0.4-0.5,0.5-0.8c0.4-0.8,0.5-1.7,0.6-2.6c0-0.6-0.1-1.2-0.2-1.7c-0.1-0.7-0.2-1.4-0.1-2.2c0.2-1,0.6-1.9,1.4-2.6
		c1.2-1.1,2.6-1.5,4.3-1.2c1.6,0.3,2.8,1.3,3.4,2.8c0.3,0.8,0.4,1.6,0.3,2.4c-0.1,0.5-0.2,1-0.2,1.4c0,0.3,0,0.7,0,1
		c0.3-0.3,0.4-0.7,0.5-1c0.3-1,0.4-2,0.3-3c-0.2-1.2-0.8-2.2-1.7-2.9c-1-0.9-2.3-1.3-3.6-1.3c-2.2,0.1-3.9,1.1-4.8,3.1
		c-0.4,0.8-0.5,1.7-0.4,2.6c0.1,0.4,0.2,0.9,0.3,1.3c0.1,0.3,0,0.5-0.3,0.5c-1,0.2-2-0.5-2.2-1.5c-0.2-0.9,0.4-2,1.3-2.2
		c0.3-0.1,0.4-0.2,0.5-0.5c0.5-1.5,1.5-2.5,2.8-3.3c1.2-0.6,2.4-0.9,3.8-0.7c2,0.3,3.5,1.4,4.5,3.2c0.2,0.3,0.3,0.6,0.4,1
		c0,0.1,0.1,0.2,0.2,0.2c0.8,0.2,1.3,0.6,1.5,1.4c0.4,1.3-0.7,2.6-2.1,2.5c-0.2,0-0.3,0-0.4,0.2c-0.1,0.2-0.2,0.5-0.4,0.7
		c-0.2,0.2-0.2,0.5-0.2,0.7c0.1,0.6,0.2,1.2,0.5,1.7C45.8,37.2,46,37.4,46.2,37.7z M43.2,36.4c-0.3,0.1-0.6,0.3-0.9,0.4
		c-0.1,0.1-0.2,0.1-0.3,0.3c-0.1,0.4-0.5,0.5-0.8,0.4c-0.2-0.1-0.4-0.3-0.3-0.6c0-0.3,0.1-0.4,0.4-0.5c0.2-0.1,0.5,0,0.6,0.1
		c0.1,0.1,0.1,0.1,0.3,0.1c0.3-0.2,0.7-0.3,1.1-0.5c0.2-0.1,0.4-0.3,0.5-0.5c0.5-1.1,0.9-2.2,1.1-3.4c0-0.2,0-0.3-0.2-0.4
		c-0.8-0.5-1.5-1.1-2.2-1.8c-0.1-0.1-0.1-0.1-0.2-0.2c-0.7,1-1.5,1.9-2.5,2.5c0.3-0.9,0.6-1.8,0.6-2.7c0,0,0,0,0,0c0,0,0,0-0.1,0.1
		c-0.9,1.3-2,2.4-3.3,3.2c-0.1,0.1-0.1,0.1-0.1,0.2c0.2,1,0.6,1.9,1.1,2.8c0.4,0.8,0.9,1.5,1.6,2c0.7,0.4,1.4,0.5,2.1,0.2
		C42.3,37.7,42.7,37.1,43.2,36.4z"/>
	<path class="st1" d="M49.1,32.2c0-0.4,0-0.8,0-1.2c0,0,0.1,0,0.2,0c0.5,0,1.1,0,1.6,0c0.5,0,0.7,0.2,0.7,0.7c0,0.6,0,1.2,0,1.8
		c0,0.1,0,0.1,0,0.2c0.1-0.1,0.1-0.1,0.2-0.2c0.7-0.7,1.4-1.5,2.1-2.2c0.2-0.2,0.4-0.3,0.7-0.3c2,0,4,0,6,0c0.7,0,1.2-0.5,1.2-1.2
		c0-2.2,0-4.4,0-6.7c0-0.7-0.5-1.2-1.2-1.2c-4.9,0-9.7,0-14.6,0c-0.8,0-1.6,0-2.4,0c-0.7,0-1.2,0.5-1.2,1.2c0,0.4,0,0.9,0,1.3
		c0,0.1,0,0.1,0,0.2c-0.4-0.1-0.8-0.1-1.2-0.2c0,0,0,0,0-0.1c0-0.5,0-1.1,0-1.6c0.1-1.1,1.1-2,2.2-2c5.8,0,11.6,0,17.4,0
		c1.2,0,2.2,1.1,2.2,2.2c0,2.3,0,4.5,0,6.8c0,1.2-1,2.4-2.4,2.4c-1.9,0-3.8,0-5.7,0c-0.2,0-0.3,0-0.4,0.2c-1,1.1-2,2.1-3.1,3.2
		c-0.2,0.2-0.5,0.3-0.7,0.2c-0.3-0.1-0.4-0.4-0.4-0.6c0-0.9,0-1.8,0-2.6c0-0.1,0-0.2,0-0.3C49.9,32.2,49.5,32.2,49.1,32.2z"/>
	<path class="st1" d="M38.9,41.7c1.2,0.4,2.4,0.4,3.5,0c0,0.1,0,0.1,0,0.1c-0.5,0.6-1.1,1.1-1.6,1.7c0,0-0.1,0-0.2,0
		C40,42.9,39.5,42.4,38.9,41.7C38.9,41.8,38.9,41.8,38.9,41.7z"/>
</g>
</svg>
