<?xml version="1.0" encoding="utf-8"?>
<!-- Generator: Adobe Illustrator 24.3.0, SVG Export Plug-In . SVG Version: 6.00 Build 0)  -->
<svg version="1.1" id="Layer_1" xmlns="http://www.w3.org/2000/svg" xmlns:xlink="http://www.w3.org/1999/xlink" x="0px" y="0px"
	 viewBox="0 0 96 104" style="enable-background:new 0 0 96 104;" xml:space="preserve">
<style type="text/css">
	.st0{fill-rule:evenodd;clip-rule:evenodd;fill:url(#SVGID_1_);}
	.st1{fill:#FFFFFF;}
</style>
<linearGradient id="SVGID_1_" gradientUnits="userSpaceOnUse" x1="11.7105" y1="28.62" x2="83.7193" y2="111.3823" gradientTransform="matrix(1 0 0 -1 0 106)">
	<stop  offset="0" style="stop-color:#1B968D"/>
	<stop  offset="1" style="stop-color:#1DB2A6"/>
</linearGradient>
<path class="st0" d="M42.7,1h10c16.6,0,30,13.4,30,30v10c0,16.6-13.4,30-30,30h-10c-16.6,0-30-13.4-30-30V31
	C12.7,14.4,26.2,1,42.7,1z"/>
<g>
	<path class="st1" d="M44.4,44.9c0,0.1,0.1,0.3,0.2,0.4c1.5,1.4,3.2,2.5,5.2,3.3c0.1,0,0.1,0,0.2,0c0.1,0,0.1,0,0.2,0
		c4.9-2,8-5.6,9.5-10.6c0.5-1.6,0.8-3.3,0.8-5c0-1.2,0-2.5,0-3.7c-0.2,0-0.2-0.1-0.3-0.1c-2.5-0.5-4.9-1.4-7.1-2.7
		c-1-0.5-1.9-1.2-2.8-1.8c-0.1-0.1-0.2-0.1-0.2-0.1c-0.1,0-0.1,0-0.2,0.1c-0.4,0.3-0.8,0.6-1.2,0.9c-1.9,1.2-3.9,2.2-6.1,2.9
		c-0.1,0-0.2,0.1-0.2,0.2c-0.2,0.6-0.6,1-1.1,1.1c-0.1,0-0.2,0.1-0.2,0.3c0,0.5-0.3,0.9-0.6,1.1c-0.2,0.1-0.4,0.2-0.7,0.3
		c0.2,0,0.4,0,0.6,0c0.1,0,0.2,0,0.3,0c0,0,0.1,0,0.1,0c2.3,0,4,1.9,3.9,4C44.4,38.7,44.4,41.8,44.4,44.9z M45,34.5
		c0-0.5,0.2-0.7,0.7-0.7c0.1,0,0.2,0,0.3,0c0.2,0,0.4,0,0.6,0c0-0.6,0-1.1,0-1.6c0-1.2,0.5-2,1.6-2.5c0.3-0.1,0.6-0.2,0.9-0.2
		c0.3,0,0.5,0,0.8,0c0.4,0,0.9,0,1.3,0.1c1.2,0.3,2,1.3,2,2.5c0,0.6,0,1.2,0,1.8c0.2,0,0.4,0,0.6,0c0.1,0,0.3,0,0.4,0
		c0.4,0,0.7,0.2,0.7,0.7c0,1.8,0,3.6,0,5.3c0,0.2-0.1,0.4-0.2,0.5c-0.5,0.7-1,1.4-1.5,2c-0.2,0.2-0.3,0.3-0.6,0.3c0,0,0,0,0,0
		c-0.9,0-1.8,0-2.7,0c-0.9,0-1.8,0-2.7,0c0,0,0,0,0,0c-0.2,0-0.4-0.1-0.6-0.3c-0.5-0.7-1-1.4-1.5-2.1C45,40.1,45,39.9,45,39.7
		C44.9,38,45,36.2,45,34.5z M43.8,32.2c-0.7-0.7-1.5-1.1-2.5-1.3c0.1-0.2,0.1-0.3,0.2-0.5c0.6-0.2,1-0.7,1.3-1.3
		c2.1-0.7,4.2-1.7,6.1-2.9c0.4-0.2,0.7-0.5,1.1-0.8l0.3,0.2c0.7,0.5,1.5,1,2.3,1.5c2.2,1.2,4.6,2.1,7.1,2.7c0,0.2,0,0.4,0,0.6
		c0,0.9,0,1.7,0,2.6c-0.1,1.6-0.3,3.2-0.8,4.8c-1.4,4.9-4.4,8.3-9,10.1c-1.8-0.7-3.4-1.7-4.8-3.1l0-2c0-0.5,0-0.9,0-1.4
		c0.2,0.2,0.3,0.4,0.5,0.6l0.5,0.7c0.3,0.4,0.7,0.6,1.2,0.6l2.7,0l2.7,0c0.5,0,0.9-0.2,1.2-0.6c0.2-0.3,0.4-0.5,0.6-0.8
		c0.3-0.4,0.6-0.8,0.9-1.2c0.2-0.3,0.3-0.6,0.3-0.9c0-1.8,0-3.6,0-5.4c0-0.8-0.5-1.4-1.4-1.4l-0.3,0c0-0.4,0-0.7,0-1.1
		c-0.1-1.6-1.1-2.9-2.6-3.2c-0.5-0.1-1.1-0.1-1.5-0.1c-0.2,0-0.4,0-0.6,0l-0.2,0c-0.5,0-0.9,0.2-1.2,0.3c-1.3,0.6-2,1.7-2,3.2
		c0,0.3,0,0.6,0,0.9l-0.2,0c-0.5,0-0.8,0.1-1.1,0.4C44.4,33,44.1,32.6,43.8,32.2z"/>
	<path class="st1" d="M63.8,26c-0.1-0.4-0.2-0.5-0.6-0.5c-1.4-0.1-2.8-0.4-4.2-0.8c-3.2-1-6-2.6-8.5-4.9c-0.3-0.2-0.4-0.4-0.6-0.4
		c-0.2,0-0.3,0.1-0.6,0.4c-0.6,0.5-1.3,1.1-1.9,1.6c-2.4,1.8-5,3-7.9,3.6c-0.2,0-0.4,0.1-0.7,0.2c0.1,0.1,0.2,0.1,0.3,0.1
		c1,0.4,1.9,1,2.6,1.9c0.1,0.1,0.2,0.2,0.3,0.2c0.1,0,0.1,0,0.2,0c1.8-0.6,3.6-1.4,5.2-2.5c0.7-0.4,1.3-0.9,2-1.4
		c0.2-0.1,0.3-0.2,0.4-0.2c0.1,0,0.3,0.1,0.4,0.2c0.1,0.1,0.2,0.1,0.2,0.2c2,1.5,4.2,2.8,6.6,3.6c1.2,0.4,2.4,0.7,3.7,1
		c0.3,0.1,0.5,0.3,0.5,0.6c0,0.1,0,0.2,0,0.3c0.2,2.4,0.1,4.9-0.3,7.3c-0.8,3.9-2.4,7.4-5.5,10.1c-1.6,1.4-3.4,2.5-5.4,3.2
		c-0.1,0-0.2,0-0.2,0c-0.1,0-0.2,0-0.3-0.1c-1-0.5-2-0.9-2.9-1.4c-0.8-0.5-1.6-1.1-2.4-1.6c0,0.1,0,0.1,0,0.2c0,0.9,0,1.9,0,2.8
		c0,0.2,0.1,0.3,0.2,0.4c1.6,1,3.3,1.8,5.1,2.4c0.1,0,0.2,0,0.3,0c0.1,0,0.2,0,0.3,0l-0.4-0.7c-1.7-0.5-3.3-1.3-4.8-2.2
		c0-0.5,0-1,0-1.5c0.4,0.3,0.8,0.6,1.3,0.8c0.8,0.4,1.6,0.8,2.4,1.2l0.5,0.2c0.2,0.1,0.5,0.1,0.6,0.1c0.2,0,0.3,0,0.5-0.1
		c2.1-0.8,4-1.9,5.7-3.4c3-2.6,4.8-6.1,5.7-10.5c0.5-2.4,0.6-4.9,0.4-7.5l0-0.1l0-0.2c0-0.6-0.4-1.1-1-1.2c-0.4-0.1-0.7-0.2-1.1-0.3
		c-0.8-0.2-1.7-0.4-2.5-0.7c-2.2-0.7-4.4-1.9-6.4-3.5c-0.1-0.1-0.2-0.1-0.2-0.2c-0.3-0.2-0.6-0.3-0.8-0.3c-0.3,0-0.6,0.1-0.8,0.3
		l-0.6,0.4c-0.5,0.3-0.9,0.6-1.4,0.9c-1.5,1-3.2,1.8-4.9,2.4c-0.4-0.5-0.8-0.9-1.3-1.2c2.5-0.7,4.8-1.9,6.9-3.5
		c0.6-0.5,1.2-1,1.8-1.5l0.2-0.2c0.1-0.1,0.1-0.1,0.1-0.1c0,0,0.1,0.1,0.1,0.1c2.5,2.4,5.5,4.1,8.8,5.1c1.3,0.4,2.7,0.7,4.3,0.8
		c0.4,2.2,0.5,4.5,0.4,7.1c-0.1,2.2-0.5,4.3-1.2,6.3c-1.1,3.3-2.9,6-5.3,8.2c-2,1.8-4.4,3.2-7.1,4l0.2,0.7c2.7-0.9,5.2-2.3,7.3-4.2
		c2.6-2.3,4.4-5.2,5.5-8.5c0.7-2.1,1.1-4.3,1.2-6.5C64.4,30.9,64.3,28.4,63.8,26z"/>
	<path class="st1" d="M40.6,32.7c-2.2,0-4.5,0-6.7,0c-1.3,0-2.4,0.9-2.7,2.2c-0.1,0.4-0.1,0.9-0.1,1.3c0,4.4,0,8.7,0,13.1
		c0,0.3,0,0.6,0,0.9c0.1,1.3,1.2,2.4,2.5,2.5c2.4,0,4.7,0,7.1,0c1,0,1.8-0.6,2.3-1.6c0.3-0.5,0.3-1.1,0.3-1.7c0-2.2,0-4.4,0-6.6
		c0,0,0,0,0,0c0-2.4,0-4.7,0-7.1C43.3,34,42.1,32.7,40.6,32.7z M42.2,49.2c-3.3,0-6.6,0-9.9,0c0-4.4,0-8.8,0-13.2c3.3,0,6.6,0,9.9,0
		C42.2,40.4,42.2,44.8,42.2,49.2z"/>
	<path class="st1" d="M34.3,28.6c0.1-0.1,0.1-0.2,0.2-0.3c0.9-0.9,2-1.3,3.3-1.1c0.9,0.2,1.6,0.6,2.2,1.3c0.2,0.3,0.6,0.3,0.8,0.1
		c0.2-0.2,0.3-0.5,0-0.8c-1-1.2-2.2-1.8-3.5-1.8c-1.1,0-2.1,0.3-2.8,0.8c-0.4,0.3-0.8,0.7-1.1,1c-0.2,0.2-0.2,0.6,0,0.8
		C33.8,28.9,34.1,28.8,34.3,28.6z"/>
	<path class="st1" d="M38.7,30.2c0.2,0.2,0.4,0.3,0.7,0.2c0.2-0.1,0.3-0.3,0.3-0.6c0-0.3-0.3-0.5-0.5-0.8c-1.5-1.4-3.4-0.9-4.3,0.5
		c-0.2,0.3-0.1,0.8,0.3,0.9c0.3,0.1,0.5-0.1,0.7-0.3c0.5-0.7,1.4-1,2.1-0.6C38.2,29.7,38.4,30,38.7,30.2z"/>
	<path class="st1" d="M36.7,31c0,0.3,0.3,0.6,0.6,0.6c0.3,0,0.5-0.3,0.5-0.6c0-0.3-0.2-0.5-0.5-0.5C36.9,30.5,36.7,30.7,36.7,31z"/>
	<path class="st1" d="M52.1,33.8c0-0.6,0-1.2,0-1.8c0-0.8-0.7-1.5-1.6-1.5c-0.2,0-0.4,0-0.6,0c-0.2,0-0.3,0-0.5,0
		c-1,0-1.7,0.7-1.7,1.7c0,0.5,0,1,0,1.4c0,0.1,0,0.1,0,0.2C49.2,33.8,50.7,33.8,52.1,33.8z M48.4,32.2c0-0.6,0.4-1,1-1l0.5,0
		c0.2,0,0.4,0,0.6,0c0.5,0,0.9,0.4,0.9,0.8c0,0.3,0,0.7,0,1h-3C48.4,32.8,48.4,32.5,48.4,32.2z"/>
	<path class="st1" d="M51.3,39c-0.1-0.2-0.1-0.3,0-0.5c0.4-0.7,0.3-1.5-0.3-2.1c-0.3-0.3-0.7-0.4-1.1-0.4c-0.3,0-0.7,0.1-0.9,0.3
		c-0.6,0.4-0.9,1.3-0.6,2c0.2,0.4,0.2,0.8,0,1.1c0,0,0,0.1-0.1,0.2c-0.2,0.5,0,0.8,0.6,0.9c0.1,0,0.3,0,0.4,0c0.2,0,0.4,0,0.6,0
		c0,0,0,0,0,0c0.2,0,0.5,0,0.7,0c0.1,0,0.3,0,0.4,0c0.4,0,0.6-0.4,0.5-0.8C51.5,39.4,51.4,39.2,51.3,39z M50.7,39.3
		c0.1,0.1,0.1,0.2,0.2,0.4c-0.1,0-0.1,0-0.2,0l-0.3,0l-0.4,0l-0.7,0v0c0,0-0.1,0-0.2,0c0.2-0.4,0.4-1,0-1.8c-0.2-0.3,0-0.8,0.3-1.1
		c0.2-0.1,0.3-0.2,0.5-0.2c0.2,0,0.5,0.1,0.6,0.2c0.3,0.3,0.4,0.8,0.2,1.2C50.5,38.5,50.4,38.9,50.7,39.3z"/>
	<path class="st1" d="M33.6,45.3c0.2,0.1,0.4,0.1,0.5,0.1c0.3-0.1,0.3-0.3,0.3-0.5c0-0.4,0-0.8,0-1.2c0,0,0,0,0,0c0-0.3,0-0.7,0-1
		c0-0.6,0.2-1.1,0.5-1.6c0.8-1,2-1.4,3.2-0.9c0.4,0.2,0.7,0.1,0.8-0.3c0.1-0.3,0-0.6-0.4-0.8c-0.7-0.3-1.3-0.3-2.1-0.2
		c-1.6,0.2-3,1.6-3.2,3.2c-0.1,1-0.1,1.9-0.1,2.9C33.4,45,33.5,45.2,33.6,45.3z"/>
	<path class="st1" d="M36.5,40.5c-1.1,0.4-1.7,1.5-1.5,2.7c0,0.3,0.3,0.5,0.5,0.5c0.3,0,0.5-0.3,0.5-0.5c0-0.2,0-0.3,0-0.5
		c0-0.5,0.2-0.9,0.7-1.1c0.4-0.2,0.8-0.1,1.2,0.2c0.3,0.3,0.4,0.6,0.4,1c0,0.8,0,1.5,0,2.3c0,0.1,0,0.2,0,0.3c0,0.3,0.2,0.6,0.5,0.6
		c0.3,0,0.5-0.2,0.6-0.5c0-0.5,0-0.9,0-1.4c0,0,0,0,0,0c0-0.5,0-1.1,0-1.6C39.3,41,37.8,40.1,36.5,40.5z"/>
	<path class="st1" d="M40,42.8c0,0.7,0,1.3,0,2c0,0.4,0.2,0.6,0.6,0.6c0.3,0,0.5-0.2,0.5-0.6c0-0.4,0-0.8,0-1.1c0,0,0,0,0,0
		c0-0.4,0-0.7,0-1.1c-0.1-0.5-0.2-0.9-0.3-1.4c-0.1-0.4-0.4-0.5-0.7-0.4c-0.3,0.1-0.4,0.4-0.3,0.8C39.9,42,39.9,42.4,40,42.8z"/>
	<path class="st1" d="M37.2,42.1c-0.3,0-0.5,0.3-0.5,0.6c0,0.5,0,1,0,1.6c0,0.6,0,1.1,0,1.7c0,0.4,0.2,0.6,0.6,0.6
		c0.3,0,0.5-0.2,0.5-0.6c0-1.1,0-2.2,0-3.2C37.8,42.3,37.5,42.1,37.2,42.1z"/>
</g>
</svg>
