<?xml version="1.0" encoding="utf-8"?>
<!-- Generator: Adobe Illustrator 24.3.0, SVG Export Plug-In . SVG Version: 6.00 Build 0)  -->
<svg version="1.1" id="Layer_1" xmlns="http://www.w3.org/2000/svg" xmlns:xlink="http://www.w3.org/1999/xlink" x="0px" y="0px"
	 viewBox="0 0 96 104" style="enable-background:new 0 0 96 104;" xml:space="preserve">
<style type="text/css">
	.st0{fill-rule:evenodd;clip-rule:evenodd;fill:url(#SVGID_1_);}
	.st1{fill:#FFFFFF;}
</style>
<linearGradient id="SVGID_1_" gradientUnits="userSpaceOnUse" x1="11.7105" y1="28.62" x2="83.7193" y2="111.3823" gradientTransform="matrix(1 0 0 -1 0 106)">
	<stop  offset="0" style="stop-color:#1B968D"/>
	<stop  offset="1" style="stop-color:#1DB2A6"/>
</linearGradient>
<path class="st0" d="M42.7,1h10c16.6,0,30,13.4,30,30v10c0,16.6-13.4,30-30,30h-10c-16.6,0-30-13.4-30-30V31
	C12.7,14.4,26.2,1,42.7,1z"/>
<g>
	<path class="st1" d="M60,35.5c-0.9,0.3-1.9,0.7-3.1,1.1c-0.8,0.3-1.2,1.1-1.1,1.9c0.2,0.8,0.8,1.4,1.7,1.4c0.4,0,0.7,0,1.1,0l0.5,0
		v0l0.5,0c0.2,0,0.3,0,0.5,0c0.2,0,0.4,0,0.6,0c0.9-0.1,1.6-0.5,2-1.4c0.3-0.9,0.2-1.7-0.4-2.4C61.7,35.4,60.9,35.2,60,35.5z
		 M62.1,38.2c-0.2,0.6-0.7,0.9-1.4,1c-0.4,0-0.7,0-1.1,0c-0.2,0-0.3,0-0.5,0c0,0,0,0-0.1,0l-0.5,0c-0.4,0-0.7,0-1.1,0
		c-0.6,0-1-0.3-1.1-0.8c-0.1-0.5,0.2-1,0.7-1.2c1.2-0.4,2.1-0.8,3.1-1.1c0.6-0.2,1.2-0.1,1.6,0.4C62.3,37.1,62.4,37.6,62.1,38.2z"/>
	<path class="st1" d="M65.2,29.4c-0.3-0.4-0.8-0.6-1.4-0.6c-0.5,0-0.9,0-1.4,0c-0.4,0-0.8,0-1.2,0c-0.1,0-0.2,0-0.3-0.1
		c-0.8-1.3-1.5-2.4-2.2-3.5c-1-1.6-2.6-2.5-4.5-2.5c-4.4-0.1-8.8-0.1-13.2,0c-1.9,0-3.4,0.9-4.5,2.5c-0.7,1.1-1.4,2.2-2.1,3.4
		l-0.1,0.1c-0.1,0.2-0.2,0.2-0.3,0.2c-0.9,0-1.7,0-2.7,0c-0.9,0-1.6,0.6-1.7,1.6c-0.1,0.9,0.3,1.6,1.2,1.9c0.3,0.1,0.6,0.2,1,0.3
		l0,0c0,0-0.1,0.1-0.1,0.1c-0.1,0.1-0.2,0.3-0.3,0.4c-0.2,0.3-0.4,0.7-0.6,1.1c-0.5,1.1-0.7,2.5-0.7,4c0,2.6,0,5.1-0.1,7.7l0,2.2
		c0,0.4,0.1,0.7,0.4,0.9c0.2,0.2,0.6,0.4,1,0.4c0.6,0,1.2,0,1.8,0c0.6,0,1.2,0,1.8,0c0.8,0,1.3-0.5,1.3-1.3c0-0.6,0-1.1,0-1.7
		c1.8,0,3.5,0,5.3,0l4.6,0c0.9,0,1.9,0,2.8,0c0.7,0,1.5,0,2.2,0c2.5,0,5,0,7.5,0c0,0,0,0,0,0c0,0,0,0,0,0c0,0.4,0,0.8,0,1.2l0,0.4
		c0,0.9,0.5,1.4,1.4,1.4c1.1,0,2.2,0,3.4,0c0.5,0,0.8-0.1,1.1-0.4c0.2-0.2,0.4-0.6,0.4-1.1c0-0.7,0-1.5,0-2.2l0-0.4
		c0-0.8,0-1.5,0-2.3c0-1.8,0-3.7-0.1-5.5c-0.1-2-0.6-3.6-1.6-5l0.1,0c0.3-0.1,0.7-0.2,1-0.3c0.8-0.2,1-0.8,1.1-1.2
		C65.7,30.5,65.6,29.8,65.2,29.4z M64.3,31.6c-0.3,0.1-0.7,0.2-1,0.3l-0.9,0.3l0.3,0.5c0.1,0.1,0.1,0.2,0.2,0.3
		c0.9,1.3,1.4,2.8,1.5,4.6c0.1,1.8,0.1,3.7,0.1,5.5c0,0.8,0,1.5,0,2.3l0,0.4c0,0.7,0,1.5,0,2.2c0,0.3-0.1,0.5-0.2,0.6
		c-0.1,0.1-0.3,0.2-0.6,0.2c-1.1,0-2.2,0-3.4,0c-0.5,0-0.7-0.2-0.7-0.7l0-0.4c0-0.4,0-0.8,0-1.2c0-0.2,0-0.4-0.2-0.5
		c-0.2-0.2-0.4-0.2-0.5-0.2c-1.5,0-3,0-4.5,0c-1.8,0-3.5,0-5.3,0c-0.9,0-1.9,0-2.8,0l-4.6,0c-1.8,0-3.5,0-5.3,0
		c-0.1,0-0.3,0-0.5,0.2c-0.1,0.2-0.2,0.4-0.2,0.5c0,0.6,0,1.2,0,1.7c0,0.4-0.2,0.6-0.7,0.6c-1.2,0-2.3,0-3.5,0c-0.2,0-0.4,0-0.5-0.2
		c-0.1-0.1-0.2-0.3-0.2-0.5l0-2.2c0-2.5,0-5.1,0.1-7.6c0-1.5,0.3-2.7,0.7-3.8c0.1-0.3,0.3-0.7,0.5-1c0.1-0.2,0.2-0.3,0.3-0.5
		c0.1-0.1,0.1-0.2,0.2-0.3l0.3-0.6l-0.8-0.3c-0.3-0.1-0.7-0.2-1-0.3c-0.6-0.2-0.8-0.5-0.8-1.1c0.1-0.6,0.5-1,1.1-1
		c0.4,0,0.9,0,1.3,0c0.4,0,0.8,0,1.3,0c0.5,0,0.7-0.3,0.9-0.5l0.1-0.1c0.7-1.1,1.4-2.3,2.1-3.4c0.9-1.4,2.3-2.2,3.9-2.2
		c4.3-0.1,8.7-0.1,13.1,0c1.6,0,3,0.8,3.9,2.2c0.7,1.1,1.4,2.2,2.2,3.5c0.2,0.3,0.5,0.5,0.9,0.5c0.4,0,0.8,0,1.2,0
		c0.5,0,0.9,0,1.4,0c0.4,0,0.6,0.1,0.9,0.4c0.2,0.3,0.3,0.7,0.3,1.1C64.9,31.3,64.7,31.5,64.3,31.6z"/>
	<path class="st1" d="M51.7,41.5l-8,0c-0.1,0-0.2,0-0.2,0c-0.5,0-0.9,0.4-0.9,0.9c0,0.2,0,0.3,0,0.5l0,0.2c0,0.9,0.3,1.2,1.2,1.2
		h5.6l2.4,0c0.7,0,1-0.3,1-1v-0.6C52.8,41.8,52.5,41.5,51.7,41.5z M52.2,43.2c0,0.3,0,0.4-0.4,0.4l-8,0c-0.5,0-0.5,0-0.5-0.5l0-0.2
		c0-0.1,0-0.3,0-0.4c0-0.2,0.1-0.2,0.3-0.3c0,0,0.1,0,0.1,0c0,0,0.1,0,0.1,0l7.9,0c0.5,0,0.5,0,0.5,0.5l0,0.2L52.2,43.2z"/>
	<path class="st1" d="M38.3,36.5l-0.5-0.2c-0.7-0.3-1.4-0.5-2.2-0.8c-0.9-0.4-1.9-0.1-2.5,0.5c-0.6,0.7-0.8,1.5-0.5,2.4
		c0.3,0.9,1.1,1.4,2.2,1.4l1.5,0l0.5,0c0.2,0,0.3,0,0.5,0c0.2,0,0.4,0,0.6,0c0.9,0,1.6-0.6,1.7-1.5C39.7,37.5,39.2,36.9,38.3,36.5z
		 M37.9,39.2c-0.4,0-0.7,0-1.1,0l-0.5,0l-1.5,0c-0.7,0-1.3-0.4-1.5-1c-0.2-0.6-0.1-1.2,0.3-1.7c0.4-0.5,1.1-0.6,1.8-0.4
		c0.7,0.3,1.4,0.5,2.2,0.8l0.5,0.2c0.4,0.2,0.9,0.5,0.8,1.2C38.9,38.8,38.5,39.2,37.9,39.2z"/>
	<path class="st1" d="M60.6,32.2c0.3-0.5,0-1-0.1-1.2l-1.1-1.7c-0.7-1.1-1.4-2.2-2.1-3.4c-0.7-1-1.7-1.6-2.9-1.7c-1-0.1-2.1,0-3.1,0
		l-0.9,0c-1.3,0-2.5,0-3.8,0l-2.3,0c-0.3,0-0.7,0-1.1,0c-0.7,0-1.5,0-2.2,0c-1.3,0.1-2.3,0.7-3,1.7c-0.4,0.6-0.8,1.3-1.2,1.9
		L36,29.3c-0.4,0.6-0.8,1.2-1.1,1.8c-0.2,0.3-0.2,0.7-0.1,1c0.2,0.3,0.5,0.5,0.9,0.5c0.1,0,0.1,0,0.2,0c0,0,0.1,0,0.1,0l0.1,0
		l23.5,0C59.8,32.7,60.3,32.7,60.6,32.2z M36,32c-0.1,0-0.2,0-0.2,0c-0.2,0-0.3-0.1-0.3-0.2c0-0.1,0-0.2,0.1-0.4
		c0.4-0.6,0.8-1.2,1.1-1.8l0.9-1.4c0.4-0.6,0.8-1.3,1.2-1.9c0.6-0.9,1.4-1.4,2.5-1.4c0.4,0,0.8,0,1.3,0c0.3,0,0.6,0,0.9,0
		c0.4,0,0.7,0,1.1,0l2.3,0c1.3,0,2.5,0,3.8,0l0.9,0c1,0,2.1,0,3.1,0c1,0.1,1.8,0.5,2.4,1.4c0.7,1.1,1.4,2.2,2.1,3.3l1.1,1.7
		c0.2,0.3,0.2,0.4,0.1,0.5C60,32,59.9,32,59.6,32l-23.5,0L36,32z"/>
	<path class="st1" d="M47.7,29.5c1,0,1.7-0.8,1.7-1.8c0-1-0.8-1.8-1.7-1.8c-0.9,0-1.7,0.8-1.7,1.8C46,28.7,46.8,29.5,47.7,29.5z"/>
	<path class="st1" d="M55.5,29.5c-0.1,0-0.2,0-0.3,0.1c-1.1,0.9-2.4,0.9-3.5,0c-0.1-0.1-0.2-0.1-0.4-0.1c-0.3,0.1-0.5,0.3-0.7,0.4
		c-0.3-0.2-0.6-0.4-0.9-0.6c-0.1,0-0.2,0-0.3,0.1c-0.9,0.8-2.2,0.8-3.1,0c-0.1-0.1-0.2-0.1-0.3-0.1c-0.3,0.2-0.6,0.4-0.9,0.6
		c-0.3-0.2-0.5-0.4-0.9-0.5c-0.1,0-0.2,0-0.3,0.1c-1.1,1-2.4,1-3.5,0c-0.1-0.1-0.2-0.1-0.4-0.1c-0.7,0.3-1.3,0.7-1.7,1.4
		c-0.2,0.2-0.3,0.5-0.4,0.8c2.9,0,5.6,0,8.5,0c0,0,0,0,0,0c1,0,1.9,0,2.9,0c0.8,0,1.5,0,2.3,0c2.1,0,4.1,0,6.2,0
		c0-0.1,0-0.2-0.1-0.2C57.1,30.5,56.4,29.9,55.5,29.5z"/>
	<path class="st1" d="M53.4,29.6c1.1,0,2-0.9,2-2.1c0-1.2-0.9-2.1-2-2.1c-1.1,0-1.9,1-1.9,2.1C51.5,28.7,52.3,29.6,53.4,29.6z"/>
	<path class="st1" d="M41.2,29.4c0.7,0.3,1.3,0.2,1.9-0.2c0.8-0.6,1-1.8,0.6-2.7c-0.4-0.8-1.3-1.3-2.2-1.1c-0.9,0.2-1.5,1.1-1.5,2.2
		C40.1,28.4,40.5,29.1,41.2,29.4z"/>
</g>
</svg>
