<?xml version="1.0" encoding="utf-8"?>
<!-- Generator: Adobe Illustrator 24.3.0, SVG Export Plug-In . SVG Version: 6.00 Build 0)  -->
<svg version="1.1" id="Layer_1" xmlns="http://www.w3.org/2000/svg" xmlns:xlink="http://www.w3.org/1999/xlink" x="0px" y="0px"
	 viewBox="0 0 1080 1080" style="enable-background:new 0 0 1080 1080;" xml:space="preserve">
<style type="text/css">
	.st0{fill:#FFFFFF;}
	.st1{fill:#CFDDF9;}
	.st2{fill:#D4E8FF;}
	.st3{fill:#96D9C9;}
	.st4{fill:#EEF7FF;}
	.st5{fill:#DCE6FF;}
	.st6{fill:#3A72AA;}
	.st7{fill:#FCB4B4;}
	.st8{fill:#CE4ABF;}
	.st9{fill:#D7DEFF;}
	.st10{fill:#50BFA5;}
	.st11{fill:#3C8F7C;}
	.st12{fill:#FFC261;}
	.st13{fill:#F9B233;}
	.st14{fill:#CE3932;}
	.st15{fill:#245084;}
	.st16{fill:#2C6399;}
	.st17{fill:#C3DCFC;}
	.st18{fill:#DCEDFF;}
	.st19{fill:#EB5648;}
	.st20{fill:#F99370;}
	.st21{fill:#103663;}
	.st22{fill:#0F2E54;}
	.st23{fill:#E8C0A6;}
	.st24{fill:#23659B;}
	.st25{fill:#1D3F70;}
	.st26{fill:#9358E0;}
	.st27{fill:#7640CC;}
	.st28{fill:#C92828;}
	.st29{fill:#C16256;}
	.st30{fill:#E57D61;}
	.st31{fill:#395B96;}
	.st32{fill:#163260;}
	.st33{fill:#234270;}
	.st34{fill:#0B274F;}
	.st35{fill:#F4D4BE;}
	.st36{fill:#A523A2;}
	.st37{fill:#F9F8F3;}
</style>
<path class="st1" d="M44.43,841.64c0,0-2.16,25.78,38.98,44.59c43.21,19.75,255.42,9.48,201.11,32.75
	c-38.62,16.54,22.56,29.58,177.32,34.09c79.57,2.32,426.55,8.16,345.14-37.36c-60.46-33.81,235.41,14.58,228.36-74.06H44.43z"/>
<path class="st2" d="M218.87,841.13c0,0-116.86-269.23-32.76-329.18c56.21-40.07,101.02,47.03,172.13,0.3
	c63.31-41.6,8.31-154.46,95.46-172.59c112.62-23.44,202,204.56,295.17,172.3c113.05-39.16,225.51,40.33,128.33,329.7L218.87,841.13z
	"/>
<path class="st3" d="M127.43,815.14c-1.96-5.39-3.9-10.98-5.77-16.6l4.6-1.23c1.85,5.59,3.78,11.14,5.73,16.49L127.43,815.14z
	 M950.23,808.18l-4.76-0.53c0.79-5.74,1.54-11.52,2.23-17.18l4.77,0.47C951.77,796.62,951.02,802.42,950.23,808.18z M116.37,781.81
	c-1.68-5.56-3.31-11.22-4.84-16.83l4.66-1.02c1.52,5.58,3.14,11.2,4.81,16.73L116.37,781.81z M954.43,773.67l-4.78-0.4
	c0.61-5.76,1.17-11.56,1.67-17.23l4.78,0.34C955.6,762.07,955.04,767.89,954.43,773.67z M107.14,748.05
	c-1.39-5.66-2.7-11.39-3.92-17.02l4.71-0.82c1.21,5.6,2.52,11.29,3.9,16.92L107.14,748.05z M957.48,739.07l-4.79-0.27
	c0.41-5.76,0.76-11.57,1.06-17.26l4.79,0.2C958.25,727.46,957.89,733.29,957.48,739.07z M99.78,713.92
	c-1.07-5.73-2.05-11.52-2.94-17.18l4.75-0.59c0.88,5.63,1.86,11.37,2.92,17.07L99.78,713.92z M959.28,704.39l-4.8-0.12
	c0.19-5.78,0.32-11.6,0.38-17.28l4.8,0.05C959.6,692.74,959.47,698.58,959.28,704.39z M94.44,679.48
	c-0.72-5.79-1.34-11.62-1.85-17.31l4.78-0.35c0.51,5.65,1.13,11.44,1.84,17.18L94.44,679.48z M954.89,669.7
	c-0.06-5.79-0.18-11.6-0.36-17.28l4.8-0.13c0.19,5.7,0.31,11.55,0.37,17.36L954.89,669.7z M91.33,644.81
	c-0.32-5.83-0.53-11.67-0.63-17.38l4.8-0.07c0.1,5.66,0.31,11.46,0.62,17.24L91.33,644.81z M953.75,635.17
	c-0.33-5.78-0.73-11.58-1.2-17.24l4.78-0.32c0.47,5.69,0.88,11.52,1.21,17.34L953.75,635.17z M95.55,610.12l-4.8-0.09
	c0.13-5.84,0.39-11.69,0.77-17.39l4.79,0.25C95.93,598.53,95.68,604.33,95.55,610.12z M950.88,600.73
	c-0.64-5.78-1.37-11.55-2.16-17.16l4.76-0.54c0.8,5.64,1.53,11.45,2.17,17.27L950.88,600.73z M97.83,575.71l-4.77-0.43
	c0.65-5.82,1.45-11.63,2.36-17.29l4.75,0.62C99.26,564.21,98.47,569.96,97.83,575.71z M946.04,566.48c-1-5.74-2.09-11.46-3.26-17
	l4.72-0.8c1.17,5.58,2.28,11.35,3.28,17.14L946.04,566.48z M378.55,565.88c-6.67-0.94-11.49-3.66-18.17-8.36l3.03-3.33
	c5.85,4.11,10.08,6.57,15.65,7.42L378.55,565.88z M395.2,555.64l-4.27-1.96c2.2-3.86,4.14-9.21,5.77-15.91l4.69,0.92
	C399.64,545.85,397.62,551.39,395.2,555.64z M346.3,545.17c-3.82-3.82-7.91-8.21-12.49-13.43l3.77-2.66
	c4.52,5.15,8.54,9.47,12.29,13.22L346.3,545.17z M103.37,541.64l-4.71-0.82c1.24-5.74,2.65-11.47,4.18-17.02l4.66,1.03
	C105.98,530.31,104.6,535.97,103.37,541.64z M938.9,532.59c-1.42-5.68-2.95-11.32-4.56-16.75l4.64-1.1
	c1.62,5.48,3.16,11.17,4.6,16.91L938.9,532.59z M404.62,521.37l-4.76-0.55c0.74-5.14,1.4-10.76,2.02-17.19l4.78,0.37
	C406.03,510.49,405.36,516.18,404.62,521.37z M322.06,517.88c-3.9-4.72-7.95-9.72-11.43-14.03l3.88-2.53
	c3.48,4.3,7.52,9.28,11.4,13.99L322.06,517.88z M673.35,517.52c-3.74,0-7.4-1-10.9-2.98l2.56-3.64c5.25,2.97,10.41,2.98,15.99,0.61
	l2.06,3.88C679.77,516.81,676.5,517.52,673.35,517.52z M112.6,508.25l-4.59-1.26c1.91-5.59,4-11.15,6.22-16.53l4.5,1.49
	C116.54,497.26,114.48,502.74,112.6,508.25z M698.76,504.15l-3.53-2.92c3.64-3.53,7.54-7.89,11.92-13.33l3.89,2.52
	C706.54,496,702.53,500.49,698.76,504.15z M648.81,501.19c-3.11-4.3-6.18-9.35-9.41-15.47l4.34-1.84c3.13,5.94,6.11,10.83,9.1,14.97
	L648.81,501.19z M929.05,499.28c-1.93-5.58-4-11.06-6.13-16.31l4.51-1.47c2.16,5.31,4.25,10.87,6.2,16.51L929.05,499.28z
	 M299.26,489.82c-4.39-5.38-8.05-9.8-11.51-13.9l3.83-2.6c3.48,4.12,7.15,8.56,11.56,13.96L299.26,489.82z M408.1,486.62l-4.79-0.28
	c0.36-5.04,0.73-10.71,1.13-17.32l4.79,0.23C408.84,475.88,408.46,481.57,408.1,486.62z M125.92,476.03l-4.39-1.74
	c2.63-5.35,5.44-10.6,8.42-15.74l4.25,1.99C131.27,465.6,128.51,470.77,125.92,476.03z M722.04,476.03l-4.01-2.36
	c3.41-4.65,6.93-9.57,10.5-14.55l4.04,2.33C728.99,466.43,725.46,471.36,722.04,476.03z M631.68,469.67
	c-2.17-4.89-4.42-10.22-6.87-16.31l4.51-1.46c2.43,6.04,4.66,11.33,6.81,16.17L631.68,469.67z M915.86,466.98
	c-2.58-5.39-5.31-10.62-8.11-15.56l4.28-1.95c2.85,5.02,5.62,10.34,8.24,15.81L915.86,466.98z M275.9,462.29
	c-4.35-4.85-8.41-9.16-12.39-13.19l3.59-2.86c4.03,4.08,8.13,8.44,12.54,13.34L275.9,462.29z M410.23,451.9l-4.79-0.22
	c0.32-5.75,0.64-11.5,0.99-17.35l4.79,0.23C410.88,440.4,410.55,446.15,410.23,451.9z M743.08,446.91l-4-2.37
	c4.01-5.44,7.59-10.15,10.96-14.39l3.91,2.5C750.61,436.85,747.06,441.51,743.08,446.91z M143.72,445.69l-4.04-2.32
	c3.77-5.3,7.66-10.08,11.56-14.22l3.67,2.78C151.14,435.93,147.38,440.56,143.72,445.69z M618.41,436.94
	c-2.2-5.78-4.36-11.57-6.18-16.47l4.55-1.36c1.82,4.89,3.97,10.67,6.17,16.44L618.41,436.94z M250.31,436.64
	c-4.9-4.28-9.73-8.06-14.33-11.24l2.93-3.41c4.75,3.28,9.72,7.17,14.75,11.57L250.31,436.64z M898.43,436.46
	c-3.44-5.03-7.04-9.79-10.71-14.14l3.83-2.6c3.77,4.47,7.46,9.34,10.98,14.49L898.43,436.46z M168.36,420.23l-2.91-3.42
	c5.73-3.92,11.69-6.75,17.73-8.4l1.4,4.11C179.09,414.03,173.64,416.62,168.36,420.23z M765.52,418.92l-3.73-2.71
	c4.5-4.98,8.76-9.26,13.04-13.1l3.39,3.04C774.07,409.88,769.91,414.05,765.52,418.92z M412.29,417.23l-4.79-0.26
	c0.42-6.25,0.83-11.93,1.26-17.36l4.79,0.31C413.12,405.32,412.71,410.99,412.29,417.23z M220.12,416.32
	c-5.99-2.67-11.88-4.38-17.5-5.07l0.65-4.26c6.15,0.76,12.53,2.6,18.99,5.48L220.12,416.32z M875.37,409.37
	c-4.62-4.24-9.4-7.99-14.22-11.13l2.83-3.48c5.03,3.29,10.02,7.19,14.82,11.61L875.37,409.37z M606.11,404.01
	c-2.39-6.4-4.35-11.62-6.19-16.43l4.54-1.4c1.84,4.82,3.81,10.05,6.2,16.46L606.11,404.01z M792.58,395.17l-2.75-3.53
	c5.9-3.7,11.86-6.44,17.72-8.15l1.48,4.09C803.63,389.16,798.1,391.71,792.58,395.17z M844.94,389.9
	c-5.94-2.25-11.96-3.64-17.88-4.14l0.45-4.28c6.41,0.54,12.9,2.04,19.3,4.45L844.94,389.9z M415.09,382.64l-4.78-0.38
	c0.6-6.04,1.25-11.87,1.93-17.33l4.77,0.48C416.33,370.84,415.68,376.63,415.09,382.64z M593.53,371.21
	c-2.32-5.8-4.5-11.11-6.68-16.22l4.48-1.54c2.19,5.14,4.38,10.47,6.71,16.3L593.53,371.21z M419.45,348.25l-4.75-0.62
	c0.97-6.02,2.04-11.82,3.17-17.22l4.72,0.8C421.47,336.55,420.41,342.28,419.45,348.25z M579.73,338.93
	c-2.58-5.56-5.18-10.88-7.72-15.82l4.35-1.81c2.57,4.98,5.2,10.36,7.8,15.97L579.73,338.93z M426.66,314.37l-4.66-1.04
	c1.67-6.01,3.52-11.67,5.48-16.82l4.54,1.39C430.11,302.94,428.3,308.48,426.66,314.37z M563.48,307.67
	c-3.16-5.33-6.38-10.33-9.58-14.87l4.05-2.3c3.27,4.63,6.55,9.73,9.77,15.15L563.48,307.67z M439.24,282.13l-4.3-1.9
	c3.15-5.72,6.64-10.79,10.38-15.04l3.77,2.66C445.56,271.87,442.24,276.68,439.24,282.13z M542.9,278.84
	c-4.19-4.71-8.52-8.89-12.86-12.41l3.22-3.19c4.53,3.68,9.04,8.02,13.39,12.92L542.9,278.84z M462.48,256.69l-2.59-3.62
	c5.68-3.26,11.95-5.38,18.61-6.3l0.73,4.25C473.23,251.85,467.59,253.76,462.48,256.69z M514.9,256.69
	c-5.59-2.7-11.41-4.55-17.31-5.49l0.84-4.24c6.4,1.02,12.7,3.02,18.74,5.94L514.9,256.69z"/>
<path class="st4" d="M983.53,706.78c-39.82-5.9-36.21,82.8-92.97,82.8c-51.89,0-79.66-198.17-136.61-157.87
	c-228.94,162.04-50.81-113.7-204.75-119.09c-69.61-2.44-115.99,71.78-133.09,203.19c-24.79,118.8-82.29-90.61-141.47-71.14
	c-37.61,12.37-33.3,144.9-85.19,144.9c-56.76,0-53.02-74.59-92.84-68.68c-42.87,6.35-52.92,122-52.92,122h992.62
	C1036.31,842.89,1026.4,713.13,983.53,706.78z"/>
<path class="st5" d="M945.37,799.87c-36.63-2.52-30.65,20.25-82.87,20.25c-47.74,0-46.43-51.03-78.38-61.87
	c-58.83-19.97-107.34,81.11-130.15,30.38c-43.32-134.61-169.67-202.11-227.96,0c-22.81,50.73-76.15-39.79-130.15-30.38
	c-33.24,5.79-30.64,61.87-78.38,61.87c-52.22,0-46.24-22.77-82.87-20.25c-39.44,2.71-51.22,43.01-51.22,43.01h913.19
	C996.59,842.89,984.81,802.59,945.37,799.87z"/>
<path id="_x39_" class="st6" d="M288.13,585.63c-26.93-30.42-47.92-61.75-64.09-90.62c4.22,2.48,23.38,3.52,23.7-0.59
	c0.31-4.62-22.9-6.34-25.78-3.15c-1.08-1.97-2.15-3.93-3.18-5.87c4.14,2.21,24.56,0.39,24.31-3.94c-0.41-4.61-23.59-2.74-25.95,0.85
	c-1.3-2.46-2.55-4.9-3.78-7.32c4.35,2.01,24.14,0.15,23.87-4.08c-0.45-4.53-22.77-2.78-25.63,0.57c-1.21-2.42-2.39-4.82-3.52-7.19
	c3.77,2.27,25.5-3.05,24.5-7.49c-1.11-4.53-24.18,1.16-25.61,5.17c-1.09-2.29-2.15-4.56-3.17-6.79c4.26,1.74,24.7-3.39,23.76-7.7
	c-1.17-4.39-22.79,0.87-25.16,4.61c-1.21-2.68-2.37-5.32-3.49-7.91c4.34,1.64,24.53-3.46,23.58-7.73
	c-1.17-4.35-22.41,0.78-24.99,4.45c-0.85-2-1.66-3.95-2.45-5.88c4.34,1.26,24.16-7.38,22.48-11.53c-1.87-4.05-21.62,4.37-23.76,8.38
	c-1.11-2.75-2.14-5.36-3.15-8.02c4.51,0.97,23.73-7.48,22.08-11.56c-1.82-3.96-20.9,4.08-23.43,7.99c-0.76-2.03-1.5-4.03-2.21-6
	c4.23,0.96,22.78-12.35,20.15-16.12c-2.66-3.51-19.77,8.62-21.27,12.99c-0.86-2.43-1.68-4.81-2.47-7.13
	c4.3,0.82,22.63-12.36,20.03-16.12c-2.62-3.47-19.47,8.4-21.15,12.77c-0.83-2.5-1.61-4.93-2.35-7.29
	c4.77-0.58,20.64-12.36,18.22-15.82c-2.15-3.2-16.95,6.61-19.75,10.83c-0.7-2.32-1.35-4.55-1.97-6.7
	c4.51-0.61,19.42-15.93,16.32-19.12c-2.7-2.79-15.71,9.54-17.7,14.18c-0.54-1.96-1.03-3.83-1.5-5.62
	c4.3,0.16,19.44-17.4,15.96-20.44c-3.08-2.65-15.7,11.32-17.07,16.07c-0.67-2.72-1.25-5.17-1.73-7.33
	c4.41-0.49,18.81-17.28,15.44-20.31c-2.8-2.59-14.79,10.26-16.58,15.02c-0.4-1.95-0.68-3.42-0.85-4.38
	c2.41-3.91,0.62-24.95-3.79-24.7c-2.05,0.16-3.24,6.24-2.66,13.58c0.49,8.67,3.1,10.02,4.06,16.42
	c-3.03-4.11-17.76-13.23-19.72-10.03c-2.62,3.85,16.97,17.17,20.93,15.6c0.45,2,0.98,4.25,1.59,6.71
	c-3.56-3.51-20.77-9.84-22.19-6.13c-1.64,4.28,19.48,12.78,23.39,10.86c0.54,2.1,1.14,4.33,1.79,6.67
	c-3.88-3.17-21.48-7.93-22.56-4.14c-1.22,4.36,19.9,10.84,23.9,8.9c0.62,2.15,1.28,4.39,1.98,6.71c-4.06-2.87-22.32-6.14-23.09-2.21
	c-0.81,4.43,20.59,8.94,24.49,6.74c0.67,2.14,1.38,4.35,2.13,6.61c-4.15-2.53-23.51-3.63-23.86,0.52
	c-0.24,4.51,21.65,6.21,25.2,3.49c0.7,2.06,1.42,4.15,2.17,6.29c-4.1-2.25-24.63-0.43-24.38,3.91c0.46,4.52,22.68,2.79,25.59-0.53
	c0.8,2.22,1.63,4.49,2.5,6.79c-3.92-2.4-24.94-0.61-24.69,3.8c0.42,4.58,23.31,2.75,25.85-0.76c0.95,2.5,1.92,4.95,2.95,7.53
	c-4.14-2.21-24.56-0.39-24.31,3.94c0.45,4.54,22.85,2.78,25.66-0.59c0.74,1.81,1.5,3.66,2.29,5.53c-4.53-1.4-24.08,3.63-23.14,7.82
	c1.16,4.27,21.76-0.64,24.69-4.17c0.97,2.25,1.96,4.53,3,6.86c-4.37-1.61-24.46,3.48-23.52,7.74c1.17,4.35,22.43-0.79,25-4.46
	c1.07,2.36,2.18,4.75,3.32,7.17c-4.07-1.95-25.04,3.25-24.08,7.62c1.15,4.45,23.42-1,25.38-4.87c1.06,2.22,2.16,4.48,3.29,6.75
	c-4.42-1.27-24.2,6.02-22.79,10.21c1.63,4.19,22.14-3.17,24.35-7.08c1.22,2.43,2.49,4.9,3.79,7.38c-3.94-1.92-25.1,5.75-23.62,10.07
	c1.61,4.35,23.6-3.65,24.83-7.75c1.37,2.6,2.8,5.24,4.25,7.89c-4.26-1.21-23.89,9.2-21.85,13.26c2.21,3.97,21.94-6.43,23.29-10.64
	c16.4,29.51,37.81,61.65,65.42,92.83L288.13,585.63z"/>
<path id="_x38_" class="st7" d="M297.07,563.36c-29.34-9.17-55.18-21.25-76.95-33.63c3.7-0.05,16.52-6.86,15.12-9.65
	c-1.61-3.11-17.31,4.85-17.93,8.04c-1.47-0.85-2.93-1.7-4.36-2.56c3.55-0.19,16.06-9.35,14.21-12.06
	c-2.07-2.82-16.35,7.45-16.47,10.7c-1.8-1.09-3.57-2.17-5.31-3.26c3.6-0.4,15.7-9.34,13.86-11.97c-2.07-2.76-15.83,7.1-16.38,10.39
	c-1.73-1.1-3.43-2.19-5.09-3.28c3.33,0,15.32-11.95,12.94-14.44c-2.49-2.5-15.2,10.21-14.56,13.36c-1.6-1.06-3.17-2.11-4.71-3.16
	c3.44-0.54,14.67-11.86,12.37-14.28c-2.48-2.38-14.42,9.48-14.49,12.82c-1.83-1.27-3.62-2.52-5.35-3.76
	c3.46-0.63,14.53-11.83,12.25-14.23c-2.46-2.36-14.21,9.27-14.45,12.65c-1.33-0.96-2.62-1.91-3.89-2.85
	c3.3-0.88,12.76-14.23,10.05-16.26c-2.8-1.89-12.29,11.29-12.11,14.72c-1.79-1.35-3.48-2.63-5.18-3.96
	c3.3-1.14,12.44-14.12,9.78-16.12c-2.73-1.85-11.94,10.81-12.05,14.34c-1.29-1.02-2.54-2.03-3.78-3.02
	c3.12-1.03,9.92-16.91,6.75-18.32c-3.09-1.23-9.43,13.31-8.7,16.73c-1.51-1.24-2.97-2.46-4.39-3.65c3.1-1.15,9.82-16.86,6.67-18.27
	c-3.06-1.22-9.32,13.05-8.7,16.54c-1.51-1.3-2.97-2.57-4.37-3.81c12.72-16.87,3.6-27.19-2.95-2.63c-1.36-1.23-2.66-2.42-3.89-3.57
	c2.68-2.16,6.34-17.91,3.09-18.77c-2.84-0.75-6.44,12.32-5.92,16.1c-1.11-1.06-2.17-2.08-3.16-3.05c2.85-1.58,5.78-18.87,2.34-19.48
	c-3.03-0.52-5.74,13.47-4.77,17.08c-1.5-1.5-2.83-2.86-3.99-4.07c2.67-2.04,5.42-18.55,2.06-19.19c-2.83-0.59-5.57,12.43-4.86,16.21
	c-1.03-1.11-1.78-1.95-2.26-2.5c0.03-3.48-9.36-16.4-12.12-14.52c-1.27,0.91,0.34,5.31,3.58,9.84c3.71,5.42,5.92,5.28,9.06,9.05
	c-3.57-1.47-16.67-1.62-16.69,1.22c-0.19,3.52,17.7,4.48,19.66,1.92c1.08,1.12,2.3,2.37,3.66,3.73c-3.68-0.88-17.3,1.75-16.77,4.71
	c0.61,3.42,17.62,0.66,19.4-2.11c1.18,1.15,2.43,2.36,3.77,3.62c-3.75-0.54-17.02,3.26-16.23,6.14c0.91,3.3,17.13-0.76,18.96-3.58
	c1.24,1.15,2.55,2.34,3.91,3.57c-3.75-0.27-16.86,4.75-15.82,7.6c1.21,3.19,16.83-2.26,18.49-5.21c1.27,1.13,2.6,2.28,3.96,3.45
	c-3.68-0.02-16.65,6.85-15.25,9.67c1.61,3.01,16.46-4.45,17.68-7.59c1.25,1.06,2.55,2.14,3.87,3.23
	c-3.53,0.14-16.13,9.35-14.27,12.07c2.06,2.75,15.78-7.07,16.36-10.36c1.39,1.13,2.81,2.27,4.27,3.42
	c-3.48-0.02-16.39,9.36-14.51,12.11c2.07,2.8,16.18-7.33,16.44-10.6c1.59,1.25,3.18,2.46,4.85,3.72
	c-3.55,0.19-16.06,9.35-14.21,12.06c2.07,2.77,15.88-7.14,16.39-10.42c1.19,0.89,2.4,1.78,3.65,2.68
	c-3.48,0.87-14.18,11.77-11.93,14.11c2.42,2.31,13.85-8.93,14.36-12.36c1.51,1.08,3.04,2.17,4.63,3.27
	c-3.46,0.67-14.48,11.82-12.21,14.21c2.46,2.36,14.22-9.29,14.45-12.67c1.61,1.11,3.27,2.22,4.96,3.35
	c-3.4,0.33-14.95,11.9-12.62,14.35c2.49,2.43,14.78-9.81,14.54-13.08c1.56,1.02,3.15,2.05,4.77,3.09
	c-3.36,0.9-13.32,13.37-10.77,15.53c2.7,2.08,13.1-10.71,13-14.11c1.74,1.1,3.53,2.2,5.34,3.3c-3.3,0.3-14.01,13.54-11.36,15.76
	c2.74,2.19,13.86-11.59,13.05-14.73c1.91,1.15,3.86,2.3,5.84,3.45c-3.23,0.88-11.87,15.3-8.97,17.13c2.99,1.71,11.69-12.75,10.92-16
	c22.16,12.7,48.59,25.14,78.68,34.54L297.07,563.36z"/>
<path id="_x37_" class="st7" d="M881.59,420.19c3.92,9.2,6.64,17.51,7.42,22.18c2.23-5.36,4.4-10.3,6.49-14.85
	c-4.26-2.98-17.35-49.4-12.84-50.89c4.37-0.65,15.11,38.79,14.91,46.46c2.41-5.08,4.72-9.64,6.89-13.72
	c-4.05-1.52-7.8-53.23-3.02-53.23c2.02-0.14,4.47,11.73,5.46,26.5c0.63,9.41,0.52,17.73-0.17,22.56c2.95-5.3,5.63-9.68,8-13.25
	c-3.76-2.08,2.48-53.84,7.17-52.87c4.21,0.99-0.75,40.63-3.77,47.95c7.11-9.27,8.52-12.95,21.7-25.02
	c25.58-23.58,30.67-18.05,4.97,5.42c-12.43,12.24-17.52,10.94-25.3,22.91c5.98-3.85,47.61-13.29,49.13-9.01
	c0.93,4.68-47.38,15.05-51.38,12.33c-2.47,3.74-5.3,8.37-8.44,14.05c5.46-3.38,49.9-8.54,50.93-4c0.38,4.75-48.58,9.75-52.37,6.65
	c-2.26,4.2-4.66,8.92-7.18,14.21c6.18-3.22,49.04-8.12,50.09-3.67c0.1,4.73-46.56,9.48-51.6,6.9c-2.22,4.77-4.52,9.97-6.89,15.65
	c6.2-3.22,49.01-8.11,50.06-3.66c0.05,4.72-46.14,9.43-51.41,6.94c-1.94,4.74-3.92,9.78-5.94,15.16c5.74-3.32,49.58-8.39,50.63-3.88
	c0.14,4.74-46.89,9.52-51.74,6.86c-1.85,5.1-3.9,10.21-6.13,14.95c5.78-2.56,50.76-0.93,51.08,3.73c-0.54,4.72-48.18,2.3-52.33-1.13
	c-2.55,5.2-5.34,10.11-8.34,14.71c4.37-2.8,52.29,2.86,51.94,7.6c-0.32,4.77-51.55-1.97-52.94-6.08
	c-3.89,5.78-8.16,11.11-12.95,16.04c6.13-1.07,49.44,12.24,48.53,16.82c-1.63,4.47-47.94-10.48-50.49-14.85
	c-5.08,4.97-10.54,9.31-16.33,12.96c6.41,0.22,46.23,20.66,44.56,25.01c-2.39,4.11-45.33-18.7-47.11-23.46
	c-15.49,9.12-27.63,10.24-28.16,10.29l-0.25-2.95c0.12-0.01,11.8-1.12,26.49-9.65c-4.78-3.88-22.9-45.6-18.8-47.88
	c4.48-1.27,21.64,39.78,21.43,46.29c4.84-3.04,10.26-7.11,15.81-12.51c-4.68-1.48-27.61-44.97-23.43-47.27
	c4.38-1.8,25.66,40.07,25.04,45.67c4.3-4.37,8.65-9.56,12.84-15.7c-4.78-1.08-31.14-42.62-27.16-45.24
	c4.23-2.07,28.37,37.23,28.55,43.17c2.76-4.22,5.44-8.86,7.97-13.98c-4.35,0.38-31.9-43.19-27.71-45.49
	c4.21-2.16,28.87,38.01,28.63,43.58c2.13-4.45,4.19-9.34,6.05-14.45c-5.19-2.57-30.12-41.84-26.36-44.68
	c4.07-1.87,26.04,33.55,27.81,40.77c2.02-5.39,4.01-10.46,5.95-15.21c-4.54-1.72-24.2-46.97-19.85-48.93
	C869.57,396.18,875.79,406.57,881.59,420.19z"/>
<path id="_x36_" class="st8" d="M384.64,428.59c-0.41-3.54-34.56-3.53-39.03-1.45c2.3-3.9,4.62-8.73,6.55-14.52
	c3.19,2.11,40.03-3.92,39.55-7.52c-1.01-3.44-35.12,2.65-38.91,5.53c1.4-4.58,2.53-9.72,3.22-15.46
	c2.3,2.37,39.63-10.99,38.15-14.34c-1.43-3.34-36.05,9.56-38,13c0.43-4.03,0.64-8.34,0.56-12.94c3.99,0.9,37.28-14.12,35.97-17.5
	c-1.87-3.04-32.96,11.53-36.03,15.3c-0.13-3.88-0.51-8.15-1.05-12.31c4.2,0.14,34.55-19.57,32.78-22.73
	c-2.31-2.68-30.29,16.03-33.07,20.32c-0.5-4.36-0.92-8.48-1.25-12.38c4.43-0.13,34.24-19.5,32.53-22.67
	c-2.29-2.64-29.63,15.6-32.75,19.97c-0.37-4.69-0.62-9.03-0.78-13.05c4.3,0.01,34.42-19.54,32.67-22.71
	c-2.3-2.64-29.66,15.62-32.77,19.99c-0.14-4.48-0.15-8.53-0.08-12.17c3.64,0.8,35.22-19.72,33.28-22.81
	c-2.31-2.71-30.66,16.28-33.23,20.5c0.15-4.95,0.46-9.09,0.83-12.5c3.65,0.47,32.91-23.48,30.63-26.32
	c-2.55-2.36-27.51,18.56-30.26,23.28c1.1-10.84,5.03-11.76,9.2-24.41c9.28-24.92,3.9-26.92-5.27-1.95
	c-4.75,12.83-4.41,15.78-6.02,24.59c-0.48-6-10.98-34.74-14.18-33.92c-3.52,0.98,10.3,38.34,13.59,38.45
	c-0.36,3.26-0.65,7.17-0.81,11.8c-1.24-5.52-17.61-32.91-20.73-31.51c-3.25,1.68,17.35,35.52,20.64,35.14
	c-0.06,3.53-0.03,7.44,0.1,11.73c-2.52-5.26-23.64-28.37-26.36-26.38c-2.53,2.61,22.54,29.56,26.5,30.12
	c0.17,3.83,0.42,7.95,0.77,12.37c-2.61-4.67-27.8-25.82-30.34-23.43c-2.25,2.86,26.87,26.74,30.58,26.34
	c0.34,3.91,0.76,8.05,1.27,12.42c-3.69-4.28-31.06-20.72-33.14-18.01c-1.54,3.26,29.06,21.22,33.52,21.18
	c0.52,4.12,0.83,8.17,0.94,11.94c-1.76-3.86-32.6-22.59-34.68-19.63c-2.04,3.04,31.89,23.02,34.72,21.26
	c0.06,4.36-0.14,8.45-0.54,12.28c-2.16-3.96-32.35-22.28-34.48-19.38c-1.77,3.18,30.62,22.2,34.26,21.28
	c-0.71,5.64-1.85,10.69-3.25,15.16c-1.51-4.01-30.65-25.08-32.97-22.31c-2.02,3.03,28.72,24.57,32.44,23.96
	c-1.89,5.61-4.15,10.27-6.38,14.02c-2.1-4.48-28.17-26.44-30.74-23.99c-1.96,3,24.87,25,29.5,25.99
	c-7,10.92-14.55,15.75-14.64,15.81l1.2,1.92c0.34-0.21,8.2-5.22,15.55-16.83C347.26,431.7,384.47,432.22,384.64,428.59z"/>
<path class="st3" d="M214.45,759.81V490.77c0-50.23,40.72-90.96,90.96-90.96h443.24c50.23,0,90.96,40.72,90.96,90.96v269.04
	c0,50.23-40.72,90.96-90.96,90.96H305.4C255.17,850.76,214.45,810.04,214.45,759.81z"/>
<rect x="247.07" y="430.7" class="st0" width="559.91" height="389.16"/>
<rect x="269.53" y="453.17" class="st9" width="514.98" height="344.23"/>
<polygon class="st0" points="800.1,633.37 800.1,624.39 668.89,624.39 573.03,693.48 337.22,693.48 336.33,545.13 413.14,621.94 
	425.85,609.23 353.46,536.84 789.64,536.84 789.64,527.86 345.24,527.86 345.24,445.92 327.27,445.92 327.27,527.86 327.24,527.86 
	327.27,532.34 327.27,536.07 327.29,536.09 327.72,606.6 257.42,606.6 257.42,624.57 327.83,624.57 328.24,693.48 257.42,693.48 
	257.42,711.45 328.35,711.45 328.92,807.52 337.91,807.47 337.33,711.45 566.08,711.45 566.08,807.5 575.06,807.5 575.06,711.45 
	663.77,711.45 712.26,733.97 641.59,804.64 654.3,817.34 729.61,742.03 785.86,768.15 793.43,751.86 667.74,693.48 588.4,693.48 
	671.79,633.37 "/>
<polygon class="st3" points="435.22,797.4 403.77,797.4 403.77,599.86 640.05,599.86 640.05,532.35 671.5,532.35 671.5,631.31 
	435.22,631.31 "/>
<g>
	<g id="XMLID_1_">
		<g>
			<path class="st10" d="M701.12,418.15c3.26,38.89-46.2,89.23-46.2,89.23C535.23,380.32,693.21,323.63,701.12,418.15z
				 M680.48,417.56c-0.57-33.59-50.55-33.6-51.13,0C629.92,451.16,679.91,451.17,680.48,417.56z"/>
			<path class="st0" d="M666.18,533.66c0.21,14.61-22.74,14.61-22.52,0C643.45,519.06,666.39,519.06,666.18,533.66z"/>
			<path class="st0" d="M629.35,417.56c0.58-33.6,50.56-33.59,51.13,0C679.91,451.17,629.92,451.16,629.35,417.56z"/>
			<path class="st10" d="M634.16,533.66c0.12-27.14,41.4-27.14,41.52,0C675.55,560.81,634.28,560.81,634.16,533.66z M643.66,533.66
				c-0.22,14.61,22.73,14.61,22.52,0C666.39,519.06,643.45,519.06,643.66,533.66z"/>
		</g>
	</g>
</g>
<g>
	<g id="XMLID_2_">
		<g>
			<polygon class="st11" points="419.49,645.99 481.79,753.89 419.49,740.41 			"/>
			<polygon class="st10" points="419.49,645.99 419.49,740.41 357.2,753.89 			"/>
		</g>
	</g>
</g>
<g id="_x34_">
	<g id="XMLID_3_">
		<g>
			<path class="st12" d="M867.31,806.55c0.87,2.08,1.13,4.27,0.87,6.37c-0.47,3.68-2.59,7.06-5.89,9.05
				c-0.16-0.52-0.33-1.04-0.5-1.57c1.34-2.55,2.73-6.67,1.19-11.26c-1.69-5.01-6.7-7.3-9.92-8.29c-0.27-0.47-0.55-0.94-0.85-1.41
				C858.25,797.6,864.82,800.6,867.31,806.55z"/>
			<path class="st11" d="M867.16,845.45c0.16,1.36-0.01,2.68-0.43,3.89h-27.16c-6.14-47.62-77.7-47.6-83.84,0H633.41v-30.12
				c0-15.2,4.6-30.01,13.07-42.5H788.2l-6.05-10.26h8.05c32.14,0,50.98,15.17,62.01,32.98c-0.4,0.12-0.79,0.27-1.18,0.43l-0.83,0.32
				l9.83,22.88l0.6-0.25c0.58-0.24,1.14-0.52,1.66-0.85C865.09,830.99,866.47,839.35,867.16,845.45z M826.93,787.56
				c0-1.1-0.88-1.99-1.98-1.99h-39.32c-1.09,0-1.98,0.89-1.98,1.99c0,1.09,0.89,1.98,1.98,1.98h39.32
				C826.05,789.54,826.93,788.65,826.93,787.56z M826.93,794.73c0-1.09-0.88-1.98-1.98-1.98h-39.32c-1.09,0-1.98,0.89-1.98,1.98
				c0,1.1,0.89,1.98,1.98,1.98h39.32C826.05,796.71,826.93,795.83,826.93,794.73z M826.93,801.9c0-1.09-0.88-1.98-1.98-1.98h-39.32
				c-1.09,0-1.98,0.89-1.98,1.98c0,1.1,0.89,1.99,1.98,1.99h39.32C826.05,803.89,826.93,803,826.93,801.9z M669.64,791.1v-7.27
				h-14.66v7.27H669.64z"/>
			<path class="st10" d="M839.57,849.34h27.16c-1.19,3.45-4.47,5.98-8.4,5.98h-25.54c0-2.04-0.17-4.04-0.5-5.98v-0.01
				c-1.73-11-7.72-18.83-15.51-23.49c0-0.01-0.01-0.01-0.02-0.01c-5.5-3.58-12.06-5.65-19.11-5.65c-7.05,0-13.62,2.08-19.13,5.66
				c-0.02,0.01-0.03,0.02-0.04,0.03c-7.77,4.66-13.74,12.49-15.46,23.47c-0.06,0.31-0.1,0.63-0.14,0.94
				c-0.05,0.28-0.08,0.56-0.11,0.85c-0.17,1.37-0.26,2.77-0.26,4.19h-129.1h-7.28H580c0-2.04-0.17-4.04-0.5-5.98h-0.01
				c-0.11-0.67-0.25-1.33-0.41-1.99c-0.01-0.06-0.02-0.11-0.03-0.16c-2.26-10.22-8.26-17.51-15.84-21.84
				c-5.34-3.28-11.63-5.17-18.35-5.17c-6.31,0-12.24,1.67-17.36,4.6c-7.62,4.03-13.79,10.96-16.42,20.82
				c-0.01,0.03-0.02,0.06-0.03,0.1c-0.87,3.06-1.33,6.29-1.33,9.62c-2.56,0-4.99-0.56-7.17-1.57c0.13-4.15,0.75-7.98,1.8-11.49
				c3-10.16,9.5-17.66,17.6-22.42l-0.27,0.04c0-21.88,6.47-36.05,11.92-43.16h9.84c-1.36,1.23-2.85,2.8-4.33,4.78
				c-6.33,8.42-9.81,20.5-10.13,35.02c23.13-8.49,53.66,1.92,57.81,32.82h39.34v-30.12c0-15.04,4.1-29.73,11.74-42.5h8.61
				c-8.47,12.49-13.07,27.3-13.07,42.5v30.12h122.32C761.87,801.74,833.43,801.72,839.57,849.34z"/>
			<path class="st13" d="M862.98,809.14c1.54,4.59,0.15,8.71-1.19,11.26c-2.1-6.43-4.92-13.14-8.73-19.55
				C856.28,801.84,861.29,804.13,862.98,809.14z"/>
			<path class="st10" d="M861.79,820.4c0.17,0.53,0.34,1.05,0.5,1.57c-0.52,0.33-1.08,0.61-1.66,0.85l-0.6,0.25
				C860.08,823.02,860.93,822.03,861.79,820.4z"/>
			<path class="st10" d="M861.79,820.4c-0.86,1.63-1.71,2.62-1.76,2.67l-9.83-22.88c0,0,1.19,0.15,2.86,0.66
				C856.87,807.26,859.69,813.97,861.79,820.4z"/>
			<path class="st10" d="M852.21,799.44c0.3,0.47,0.58,0.94,0.85,1.41c-1.67-0.51-2.86-0.66-2.86-0.66l0.83-0.32
				C851.42,799.71,851.81,799.56,852.21,799.44z"/>
			<path class="st14" d="M832.29,849.34c0.33,1.94,0.5,3.94,0.5,5.98C832.76,853.23,832.59,851.24,832.29,849.34z"/>
			<path class="st10" d="M824.95,785.57c1.1,0,1.98,0.89,1.98,1.99c0,1.09-0.88,1.98-1.98,1.98h-39.32c-1.09,0-1.98-0.89-1.98-1.98
				c0-1.1,0.89-1.99,1.98-1.99H824.95z"/>
			<path class="st10" d="M824.95,792.75c1.1,0,1.98,0.89,1.98,1.98c0,1.1-0.88,1.98-1.98,1.98h-39.32c-1.09,0-1.98-0.88-1.98-1.98
				c0-1.09,0.89-1.98,1.98-1.98H824.95z"/>
			<path class="st10" d="M824.95,799.92c1.1,0,1.98,0.89,1.98,1.98c0,1.1-0.88,1.99-1.98,1.99h-39.32c-1.09,0-1.98-0.89-1.98-1.99
				c0-1.09,0.89-1.98,1.98-1.98H824.95z"/>
			<path class="st10" d="M832.29,849.33c-1.69-9.83-7.46-18.26-15.51-23.49C824.57,830.5,830.56,838.33,832.29,849.33z"/>
			<path class="st15" d="M797.65,823.95c17.33,0,31.38,14.04,31.38,31.37s-14.05,31.37-31.38,31.37
				c-17.32,0-31.37-14.04-31.37-31.37S780.33,823.95,797.65,823.95z M813.11,855.32c0-8.54-6.92-15.46-15.46-15.46
				c-8.53,0-15.45,6.92-15.45,15.46c0,8.53,6.92,15.45,15.45,15.45C806.19,870.77,813.11,863.85,813.11,855.32z"/>
			<path class="st16" d="M797.65,839.86c8.54,0,15.46,6.92,15.46,15.46c0,8.53-6.92,15.45-15.46,15.45
				c-8.53,0-15.45-6.92-15.45-15.45C782.2,846.78,789.12,839.86,797.65,839.86z"/>
			<path class="st10" d="M797.65,820.18c7.05,0,13.61,2.07,19.11,5.65c-11.45-6.84-26.79-6.84-38.24,0.01
				C784.03,822.26,790.6,820.18,797.65,820.18z"/>
			<path class="st10" d="M782.15,766.46l6.05,10.26H646.48c0.97-1.42,1.98-2.81,3.05-4.17h129.02l-3.53-6.09H782.15z"/>
			<path class="st11" d="M782.15,766.46h-7.13l-25.74-44.45l-0.06-0.1c-9.86-15.34-26.39-24.61-44.22-24.79
				c-0.18-0.01-0.37-0.01-0.55-0.01h-52.18H605.8c-3.62,0-7.24,0.38-10.75,1.12c-2.01,0.42-4.01,0.97-5.96,1.63
				c-7.35,2.48-14.23,6.67-19.89,12.11c-5.97,5.74-10.67,12.93-13.58,20.8l-0.03,0.08l-11.16,33.61h-0.08
				c-11.12,0-21.41,3.51-29.85,9.48l14.65-43.1c3.46-10.19,8.98-19.02,15.9-25.99c-8.9-1.74-15.64-6.7-18.66-10.08
				c-2.42-2.7-0.48-6.99,3.14-6.99h175.42c19.95,0,38.57,11.24,49.61,29.93L782.15,766.46z"/>
			<path class="st10" d="M775.02,766.46l3.53,6.09H649.53c0.61-0.78,1.24-1.54,1.88-2.3l0.86-1.01v-2.78h38.61h22.13h5.9h10.96
				h38.55H775.02z"/>
			<path class="st10" d="M778.48,825.87c-8.02,5.23-13.78,13.65-15.46,23.47C764.74,838.36,770.71,830.53,778.48,825.87z"/>
			<path class="st10" d="M749.28,722.01l25.74,44.45h-6.6l-24.53-41.55c-8.83-13.5-23.69-21.66-39.64-21.81
				c-0.15-0.01-0.31-0.01-0.46-0.01h-10.5h-5.9h-22.13h-12.99v-5.31v-0.67h52.18c0.18,0,0.37,0,0.55,0.01
				c17.83,0.18,34.36,9.45,44.22,24.79L749.28,722.01z"/>
			<path class="st17" d="M743.89,724.91l24.53,41.55h-38.55l-25.62-63.36C720.2,703.25,735.06,711.41,743.89,724.91z"/>
			<path class="st14" d="M762.88,850.28c-0.04,0.28-0.08,0.56-0.11,0.85C762.8,850.84,762.83,850.56,762.88,850.28z"/>
			<path class="st14" d="M762.51,855.32c0-1.42,0.09-2.82,0.26-4.19C762.62,852.48,762.53,853.88,762.51,855.32z"/>
			<path class="st18" d="M704.25,703.1l25.62,63.36h-10.96l-25.62-63.37h10.5C703.94,703.09,704.1,703.09,704.25,703.1z"/>
			<polygon class="st17" points="693.29,703.09 718.91,766.46 713.01,766.46 687.39,703.09 			"/>
			<polygon class="st18" points="687.39,703.09 713.01,766.46 690.88,766.46 665.26,703.09 			"/>
			<polygon class="st17" points="665.26,703.09 690.88,766.46 652.27,766.46 652.27,703.09 			"/>
			<rect x="654.98" y="783.83" class="st10" width="14.66" height="7.27"/>
			<path class="st10" d="M652.27,766.46v2.78l-0.86,1.01c-0.64,0.76-1.27,1.52-1.88,2.3h-9.01c1.4-2.05,2.89-4.04,4.48-5.97v-0.12
				H652.27z"/>
			<rect x="645" y="703.09" class="st10" width="7.27" height="63.37"/>
			<rect x="645" y="697.78" class="st10" width="7.27" height="5.31"/>
			<path class="st10" d="M652.27,697.11v0.67H645v5.31h-37.46h-0.93c-3.28,0-6.5,0.34-9.62,0.99c-1.81,0.37-3.59,0.85-5.33,1.43
				c-6.65,2.2-12.73,5.85-17.82,10.65c-5.28,4.98-9.5,11.19-12.19,18.32l-10.82,31.98h-4.2l-0.18-0.45
				c-0.06,0.02-0.41,0.16-0.98,0.45h-1.04l11.16-33.61l0.03-0.08c2.91-7.87,7.61-15.06,13.58-20.8c5.66-5.44,12.54-9.63,19.89-12.11
				c1.95-0.66,3.95-1.21,5.96-1.63c3.51-0.74,7.13-1.12,10.75-1.12H652.27z"/>
			<path class="st10" d="M640.52,772.55h9.01c-1.07,1.36-2.08,2.75-3.05,4.17h-8.61C638.71,775.31,639.59,773.92,640.52,772.55z"/>
			<path class="st10" d="M645,766.46v0.12c-1.59,1.93-3.08,3.92-4.48,5.97h-91.5l-2.39-6.09h4.2h43.35h22.12h5.91h10.95H645z"/>
			<polygon class="st17" points="645,703.09 645,766.46 633.16,766.46 607.54,703.09 			"/>
			<path class="st10" d="M549.11,772.78l-0.09-0.23h91.5c-0.93,1.37-1.81,2.76-2.65,4.17h-94.43
				C546.48,773.96,548.87,772.88,549.11,772.78z"/>
			<path class="st11" d="M543.44,776.72h94.43c-7.64,12.77-11.74,27.46-11.74,42.5v30.12h-39.34c-4.15-30.9-34.68-41.31-57.81-32.82
				c0.32-14.52,3.8-26.6,10.13-35.02C540.59,779.52,542.08,777.95,543.44,776.72z M619.09,791.1v-7.27h-14.66v7.27H619.09z"/>
			<path class="st18" d="M607.54,703.09l25.62,63.37h-10.95l-25.22-62.38c3.12-0.65,6.34-0.99,9.62-0.99H607.54z"/>
			<path class="st17" d="M596.99,704.08l25.22,62.38h-5.91l-24.64-60.95C593.4,704.93,595.18,704.45,596.99,704.08z"/>
			<rect x="604.43" y="783.83" class="st10" width="14.66" height="7.27"/>
			<path class="st18" d="M591.66,705.51l24.64,60.95h-22.12l-20.34-50.3C578.93,711.36,585.01,707.71,591.66,705.51z"/>
			<path class="st17" d="M573.84,716.16l20.34,50.3h-43.35l10.82-31.98C564.34,727.35,568.56,721.14,573.84,716.16z"/>
			<path class="st14" d="M579.5,849.34c0.33,1.94,0.5,3.94,0.5,5.98c-0.06-2.83-0.38-5.49-0.92-7.97c0.16,0.66,0.3,1.32,0.41,1.99
				H579.5z"/>
			<path class="st19" d="M579.05,847.19c-2.18-9.22-7.99-17.03-15.84-21.84C570.79,829.68,576.79,836.97,579.05,847.19z"/>
			<path class="st15" d="M544.86,823.95c17.33,0,31.38,14.04,31.38,31.37s-14.05,31.37-31.38,31.37
				c-17.32,0-31.37-14.04-31.37-31.37S527.54,823.95,544.86,823.95z M560.32,855.32c0-8.54-6.92-15.46-15.46-15.46
				c-8.53,0-15.45,6.92-15.45,15.46c0,8.53,6.92,15.45,15.45,15.45C553.4,870.77,560.32,863.85,560.32,855.32z"/>
			<path class="st16" d="M544.86,839.86c8.54,0,15.46,6.92,15.46,15.46c0,8.53-6.92,15.45-15.46,15.45
				c-8.53,0-15.45-6.92-15.45-15.45C529.41,846.78,536.33,839.86,544.86,839.86z"/>
			<path class="st10" d="M549.02,772.55l0.09,0.23c-0.24,0.1-2.63,1.18-5.67,3.94h-9.84c0.02-0.03,0.05-0.06,0.07-0.09
				c4.01-5.19,8.11-8.08,10.54-9.49l-1.8,5.41H549.02z"/>
			<path class="st10" d="M546.63,766.46l2.39,6.09h-6.61l1.8-5.41c0.49-0.29,0.92-0.51,1.26-0.68H546.63z"/>
			<path class="st14" d="M546.63,766.46h-1.16c0.57-0.29,0.92-0.43,0.98-0.45L546.63,766.46z"/>
			<path class="st14" d="M544.86,820.18c6.72,0,13.01,1.89,18.35,5.17c-10.77-6.17-24.75-6.38-35.71-0.57
				C532.62,821.85,538.55,820.18,544.86,820.18z"/>
			<path class="st14" d="M544.43,766.46h1.04c-0.34,0.17-0.77,0.39-1.26,0.68L544.43,766.46z"/>
			<path class="st10" d="M544.43,766.46l-0.22,0.68c-2.43,1.41-6.53,4.3-10.54,9.49c-0.02,0.03-0.05,0.06-0.07,0.09h-19.37
				l0.27-0.78c8.44-5.97,18.73-9.48,29.85-9.48H544.43z"/>
			<path class="st11" d="M494.93,823.03l3.64-24.63l-0.89-0.1c-0.36-0.05-0.72-0.08-1.07-0.1c3.78-9,10.02-16.7,17.89-22.26
				l-0.27,0.78h19.37c-5.45,7.11-11.92,21.28-11.92,43.16l0.27-0.04c-8.1,4.76-14.6,12.26-17.6,22.42l-1.13-0.34v-8.18h-10.63V822.6
				c0.54,0.15,1.11,0.27,1.69,0.35L494.93,823.03z"/>
			<path class="st19" d="M527.5,824.78c-2.75,1.55-5.26,3.47-7.49,5.69c-4.14,4.15-7.26,9.33-8.93,15.13
				C513.71,835.74,519.88,828.81,527.5,824.78z"/>
			<path class="st14" d="M511.05,845.7c-0.77,2.94-1.24,6.15-1.33,9.62C509.72,851.99,510.18,848.76,511.05,845.7z"/>
			<path class="st10" d="M503.22,841.92l1.13,0.34c-1.05,3.51-1.67,7.34-1.8,11.49c-4.79-2.21-8.38-6.56-9.55-11.83H503.22z"/>
			<path class="st10" d="M503.22,833.74v8.18H493c-0.27-1.2-0.41-2.45-0.41-3.74v-4.44H503.22z"/>
			<path class="st10" d="M498.57,798.4l-3.64,24.63c-0.06-0.04-1.11-0.76-2.34-2.09v-2.71c0-6.5,1.2-12.73,3.39-18.46
				C497.46,798.86,498.57,798.4,498.57,798.4z"/>
			<path class="st10" d="M497.68,798.3l0.89,0.1c0,0-1.11,0.46-2.59,1.37c0.2-0.53,0.41-1.05,0.63-1.57
				C496.96,798.22,497.32,798.25,497.68,798.3z"/>
			<path class="st12" d="M483.66,808.93c0.89-6.45,6.57-11.06,12.95-10.73c-0.22,0.52-0.43,1.04-0.63,1.57
				c-2.87,1.77-7.12,5.27-7.47,10.55c-0.32,4.87,2.12,8.51,4.08,10.62v1.66c-3.76-1.07-6.72-3.82-8.13-7.3
				C483.66,813.35,483.35,811.17,483.66,808.93z"/>
			<path class="st10" d="M494.93,823.03l-0.65-0.08c-0.58-0.08-1.15-0.2-1.69-0.35v-1.66C493.82,822.27,494.87,822.99,494.93,823.03
				z"/>
			<path class="st13" d="M488.51,810.32c0.35-5.28,4.6-8.78,7.47-10.55c-2.19,5.73-3.39,11.96-3.39,18.46v2.71
				C490.63,818.83,488.19,815.19,488.51,810.32z"/>
			<path class="st10" d="M493,841.92h-9.92v-8.18h9.51v4.44C492.59,839.47,492.73,840.72,493,841.92z"/>
		</g>
	</g>
</g>
<g id="_x33_">
	<g id="XMLID_4_">
		<g>
			<path class="st0" d="M363.55,681.41l0.15,0.15c-1.97,5.54-4.75,10.82-8.31,15.65l-0.06-0.06
				C358.8,692.33,361.56,687.01,363.55,681.41z"/>
			<path class="st10" d="M355.85,625.84c12.37,16.64,14.08,37.56,7.7,55.57l-3.52-3.52c5.05-16.2,2.7-34.49-7.96-49.34
				c-14.45-20.12-39.77-27.8-62.18-20.79l-3.41-3.42C310.29,596.1,338.96,601.86,355.85,625.84z"/>
			<path class="st10" d="M360.03,677.89l3.52,3.52c-1.99,5.6-4.75,10.92-8.22,15.74l-3.27-3.26
				C355.6,688.97,358.27,683.56,360.03,677.89z"/>
			<path class="st10" d="M352.07,628.55c10.66,14.85,13.01,33.14,7.96,49.34l-3.78-3.78c10.67-40.35-28.1-71.62-62.72-62.72
				l-3.64-3.63C312.3,600.75,337.62,608.43,352.07,628.55z"/>
			<path class="st10" d="M356.25,674.11l3.78,3.78c-1.76,5.67-4.43,11.08-7.97,16l-3.34-3.35l-0.02-0.02
				C352.21,685.55,354.82,679.98,356.25,674.11z"/>
			<path class="st0" d="M293.53,611.39c34.62-8.9,73.39,22.37,62.72,62.72l-62.58-62.58L293.53,611.39z"/>
			<path class="st0" d="M293.67,611.53l62.58,62.58c-1.43,5.87-4.04,11.44-7.55,16.41l-71.44-71.43l-0.05-0.05
				c5.18-3.71,10.69-6.21,16.32-7.65L293.67,611.53z"/>
			<path class="st10" d="M352.06,693.89l3.27,3.26c-6.97,9.71-16.79,17.41-28.83,21.34c5.39-1.87,10.6-4.53,15.46-8.03
				c2.85-2.04,5.47-4.29,7.85-6.7l-3.29-3.29l-0.01-0.01C348.56,698.4,350.41,696.2,352.06,693.89z"/>
			<path class="st10" d="M348.72,690.54l3.34,3.35c-1.65,2.31-3.5,4.51-5.55,6.57l-3.29-3.29l-0.04-0.04
				c2.03-2.05,3.87-4.26,5.52-6.61L348.72,690.54z"/>
			<path class="st10" d="M346.52,700.47l3.29,3.29c-2.38,2.41-5,4.66-7.85,6.7c-4.86,3.5-10.07,6.16-15.46,8.03h-0.01l-3.68-3.69
				c5.74-1.73,11.3-4.43,16.44-8.12C341.89,704.78,344.32,702.7,346.52,700.47L346.52,700.47z"/>
			<path class="st0" d="M277.26,619.09l71.44,71.43c-1.65,2.35-3.49,4.56-5.52,6.61l-72.55-72.55c2.12-2.09,4.32-3.93,6.58-5.54
				L277.26,619.09z"/>
			<path class="st10" d="M343.22,697.17l3.29,3.29c-2.19,2.24-4.62,4.32-7.26,6.22c-5.14,3.69-10.7,6.39-16.44,8.12l-3.8-3.79
				c9.1-2.13,17.54-7.12,24.17-13.88L343.22,697.17z"/>
			<path class="st0" d="M343.18,697.13c-6.63,6.76-15.07,11.75-24.17,13.88l-62.22-62.22l-0.16-0.16c2.09-8.52,6.6-16.81,14-24.05
				L343.18,697.13z"/>
			<path class="st10" d="M322.81,714.8l3.68,3.69c-23.98,9.29-50.12-0.18-65.98-18.42l3.36-2.46l-2.75-3.76
				C275.46,713.83,300.52,721.55,322.81,714.8z"/>
			<path class="st10" d="M319.01,711.01l3.8,3.79c-22.29,6.75-47.35-0.97-61.69-20.95c-10.55-14.69-12.96-32.76-8.11-48.84
				l3.62,3.62C248.2,682.93,279.03,721.11,319.01,711.01z"/>
			<path class="st0" d="M256.79,648.79l62.22,62.22c-39.98,10.1-70.81-28.08-62.38-62.38L256.79,648.79z"/>
			<path class="st10" d="M289.89,607.76l3.64,3.63c-5.63,1.44-11.14,3.94-16.32,7.65l-3.28-3.29c0.01-0.01,0.01-0.02,0.02-0.02
				C278.94,612.14,284.32,609.5,289.89,607.76z"/>
			<path class="st10" d="M286.48,604.34l3.41,3.42c-5.57,1.74-10.95,4.38-15.94,7.97c-0.01,0-0.01,0.01-0.02,0.02h-0.01l-3.27-3.28
				C275.51,609.02,280.86,606.29,286.48,604.34z"/>
			<path class="st0" d="M286.22,604.08l0.26,0.26c-5.62,1.95-10.97,4.68-15.83,8.13l-0.06-0.06c0.21-0.15,0.43-0.31,0.64-0.46
				C275.95,608.56,281,605.94,286.22,604.08z"/>
			<path class="st10" d="M273.93,615.75l3.28,3.29c-2.26,1.61-4.46,3.45-6.58,5.54l-3.29-3.29
				C269.36,619.31,271.55,617.45,273.93,615.75L273.93,615.75z"/>
			<path class="st10" d="M270.65,612.47l3.27,3.28c-2.37,1.7-4.56,3.56-6.58,5.54l-3.3-3.3l-0.04-0.05
				C266.09,615.95,268.31,614.12,270.65,612.47z"/>
			<path class="st10" d="M267.34,621.29l3.29,3.29c-7.4,7.24-11.91,15.53-14,24.05l-3.62-3.62
				C255.66,636.21,260.48,628.01,267.34,621.29z"/>
			<path class="st10" d="M264.04,617.99l3.3,3.3c-6.86,6.72-11.68,14.92-14.33,23.72l-3.71-3.71
				C252.35,632.48,257.37,624.53,264.04,617.99z"/>
			<path class="st10" d="M264,617.94l0.04,0.05c-6.67,6.54-11.69,14.49-14.74,23.31l3.71,3.71c-4.85,16.08-2.44,34.15,8.11,48.84
				l-2.75-3.76l-3.45,2.52c-7.59-11.86-11.14-26.27-8.16-41.23C248.81,637.65,255.17,626.35,264,617.94z"/>
			<path class="st10" d="M261.12,693.85l2.75,3.76l-3.36,2.46c-2.05-2.35-3.92-4.84-5.59-7.46l3.45-2.52L261.12,693.85z"/>
			<path class="st11" d="M260.51,700.07l-6.33,4.62l-1.05-0.19c-0.98-0.15-1.28,0.65-1.06,1.34l-0.33-0.06
				c-1.02-0.16-1.3,0.73-1.03,1.44l-0.01,0.02h-0.01c-0.02,0-0.03-0.01-0.03-0.01c-1.01-0.5-1.6,0.33-1.46,1.1l-0.2,0.15
				c-0.69-0.24-1.25,0.3-1.27,0.93l-3.88,2.83l-0.88-1.21l0.83-8.16c-1.09,0.08-2.15,0.15-3.19,0.2l14.31-10.46
				C256.59,695.23,258.46,697.72,260.51,700.07z"/>
			<path class="st20" d="M254.27,704.71c1.34,0.17,1.55,2.51-0.05,2.26l-0.32-0.06c-0.13-0.44-0.48-0.84-1.01-0.91l-0.4-0.08
				l1.69-1.23L254.27,704.71z"/>
			<path class="st20" d="M254.18,704.69l-1.69,1.23l-0.42-0.08c-0.22-0.69,0.08-1.49,1.06-1.34L254.18,704.69z"/>
			<path class="st20" d="M253.9,706.91c0.22,0.69-0.09,1.5-1.06,1.35l-0.13-0.02c-0.04-0.62-0.61-1.16-1.81-0.94c0,0,0,0-0.01,0
				c-0.03-0.02-0.12-0.04-0.17-0.05c0-0.01-0.01-0.02-0.01-0.03l1.49-1.08c0.18,0.31,0.48,0.56,0.88,0.61L253.9,706.91z"/>
			<path class="st20" d="M253.9,706.91l-0.82-0.16c-0.4-0.05-0.7-0.3-0.88-0.61l0.29-0.22l0.4,0.08
				C253.42,706.07,253.77,706.47,253.9,706.91z"/>
			<path class="st20" d="M252.71,708.24c0.06,0.69-0.54,1.48-1.64,1.38c-0.14-0.42-0.65-0.82-1.66-0.93h-0.01
				c-0.04-0.03-0.07-0.06-0.11-0.08c-0.04-0.09-0.07-0.19-0.09-0.28l1.49-1.09h0.01c0,0.01,0.01,0.01,0.02,0.01
				c0.17,0.39,0.5,0.73,0.98,0.79L252.71,708.24z"/>
			<path class="st20" d="M252.71,708.24l-1.01-0.2c-0.48-0.06-0.81-0.4-0.98-0.79c0.05,0.01,0.14,0.03,0.17,0.05
				c0.01,0,0.01,0,0.01,0C252.1,707.08,252.67,707.62,252.71,708.24z"/>
			<path class="st20" d="M252.49,705.92l-0.29,0.22c-0.06-0.09-0.1-0.2-0.13-0.3L252.49,705.92z"/>
			<path class="st20" d="M252.2,706.14l-1.49,1.08c-0.27-0.71,0.01-1.6,1.03-1.44l0.33,0.06
				C252.1,705.94,252.14,706.05,252.2,706.14z"/>
			<path class="st20" d="M251.07,709.62c0.32,0.97-1.18,2.14-2.82,0.82c-0.4-0.29-0.55-0.68-0.52-1.03l1.27-0.93
				c0.1,0.02,0.19,0.07,0.29,0.13c0.11,0.26,0.31,0.48,0.62,0.63C250.34,709.48,250.73,709.59,251.07,709.62z"/>
			<path class="st20" d="M250.69,707.24l-1.49,1.09c-0.14-0.77,0.45-1.6,1.46-1.1C250.66,707.23,250.67,707.24,250.69,707.24z"/>
			<path class="st20" d="M249.41,708.69c1.01,0.11,1.52,0.51,1.66,0.93c-0.34-0.03-0.73-0.14-1.16-0.38
				c-0.31-0.15-0.51-0.37-0.62-0.63c0.04,0.02,0.07,0.05,0.11,0.08H249.41z"/>
			<path class="st20" d="M249,708.48l-1.27,0.93C247.75,708.78,248.31,708.24,249,708.48z"/>
			<path class="st11" d="M242.97,711.03l0.88,1.21l-38.67,28.25l-5.49-7.51l-11.26,8.22l27.62-20.19
				C226.39,720.04,235.88,716.34,242.97,711.03z"/>
			<path class="st11" d="M243.8,702.87l-0.83,8.16c-7.09,5.31-16.58,9.01-26.92,9.98l24.56-17.94
				C241.65,703.02,242.71,702.95,243.8,702.87z"/>
			<path class="st6" d="M240.61,703.07l-24.56,17.94c-8.92,0.85-18.46-0.35-27.62-4.3c-0.73-8.47-2.34-15.86-4.84-22.6
				c4.32-2.8,6.13-6.23,4.73-8.96C202.77,694.48,214.2,704.32,240.61,703.07z"/>
			<path class="st3" d="M199.69,732.98l5.49,7.51l-20.17,14.74c-0.04-1.06-0.09-2.13-0.14-3.21c1.92-1.29,3.01-5.36,3.56-10.81
				v-0.01L199.69,732.98z"/>
			<path class="st21" d="M190.64,879.96c2.78,1.55,4.44,3.47,4.25,4.94c0-0.19-0.03-0.4-0.11-0.6h-0.27c-0.66-1.42-3.08-2.88-4.79-3
				c-0.2-0.03-0.41-0.07-0.62-0.1c0.72-0.75,1.38-1.03,1.42-1.05C190.57,880.08,190.6,880.02,190.64,879.96z"/>
			<path class="st22" d="M194.89,884.9c0.01,0.03,0,0.05-0.01,0.08c-0.12,0.71-0.68,1.31-1.77,1.71h-0.29
				c1.83-0.51,2.15-1.44,1.69-2.39h0.27C194.86,884.5,194.89,884.71,194.89,884.9z"/>
			<path class="st22" d="M194.51,884.3c0.46,0.95,0.14,1.88-1.69,2.39h-23.04c-1.47-0.06-1.85-1.17-1.81-2.39H194.51z"/>
			<path class="st21" d="M194.51,884.3h-26.54c0.02-0.44,0.09-0.9,0.19-1.33c0.29-1.32,0.4-3.04,0.37-4.97
				c1.81-1.63,5.51,0.6,10.74-0.83c0.12,0,0.23,0,0.35,0c0.29,0.41,0.64,0.77,1.04,1.09c-1.42,1.47-2.85,3.68-1.69,4.17
				c0.21,0,0.41-0.13,0.48-0.34c0.5-1.44,1.35-2.53,2.03-3.24c0.79,0.5,1.7,0.89,2.64,1.21c-0.5,0.66-0.92,1.44-1.14,2.26
				c-0.11,0.32,0.15,0.67,0.48,0.66c0.22,0,0.42-0.14,0.49-0.36c0.29-0.92,0.75-1.66,1.23-2.24c0.93,0.26,1.87,0.45,2.75,0.61
				c-0.4,0.5-0.75,1.1-0.99,1.77c-0.14,0.32,0.12,0.7,0.47,0.7c0.2,0,0.39-0.12,0.47-0.32c0.34-0.86,0.79-1.48,1.22-1.94
				c0.21,0.03,0.42,0.07,0.62,0.1C191.43,881.42,193.85,882.88,194.51,884.3z"/>
			<path class="st22" d="M193.11,886.69c1.09-0.4,1.65-1,1.77-1.71C194.86,885.9,194.1,886.69,193.11,886.69z"/>
			<path class="st23" d="M189.69,879.47c0.82-0.44,1.39-0.34,0.95,0.49C190.34,879.79,190.02,879.62,189.69,879.47z"/>
			<path class="st23" d="M190.64,879.96c-0.04,0.06-0.07,0.12-0.12,0.19c-0.04,0.02-0.7,0.3-1.42,1.05
				c-0.37-0.06-0.77-0.13-1.17-0.21c0.56-0.71,1.22-1.23,1.76-1.52C190.02,879.62,190.34,879.79,190.64,879.96z"/>
			<path class="st24" d="M188.77,722.17c0.24,6.76,0.22,13.58-0.34,19.03l-3.93,2.87c-0.26-5.31-0.54-10.82-0.84-16.53
				c0,0-4.59-0.25-11.32-1.25c0.31-0.81,0.35-1.89-0.02-3.28c-1.93-7.31-1.42-18.99-1.43-18.99c0.45,0.12,0.84,0.14,1.18,0.09
				c0.43,3.3,0.62,8.61,0.7,12.11c0.09,4.22,3.88,3.57,5.41,2.12c1.67-0.85,1.79-3.46,1.19-6.56c2.96,1.98,5.99,3.61,9.06,4.93
				C188.58,718.48,188.69,720.3,188.77,722.17z"/>
			<path class="st25" d="M188.32,685.15c1.4,2.73-0.41,6.16-4.73,8.96c-2.03-5.44-4.64-10.46-7.85-15.31
				c-0.04-0.53-0.09-0.81-0.09-0.81c0.02,0,0.04,0,0.06,0c4.65,2.2,8.74,4.66,12.61,7.15V685.15z"/>
			<polygon class="st19" points="188.43,741.2 188.43,741.21 184.5,744.07 			"/>
			<path class="st3" d="M184.5,744.07l3.93-2.86c-0.55,5.45-1.64,9.52-3.56,10.81c-0.12-2.59-0.24-5.24-0.37-7.94V744.07z"/>
			<path class="st23" d="M187.93,880.99c0.4,0.08,0.8,0.15,1.17,0.21c-0.43,0.46-0.88,1.08-1.22,1.94c-0.08,0.2-0.27,0.32-0.47,0.32
				c-0.35,0-0.61-0.38-0.47-0.7C187.18,882.09,187.53,881.49,187.93,880.99z"/>
			<path class="st21" d="M189.69,879.47c-0.54,0.29-1.2,0.81-1.76,1.52c-0.88-0.16-1.82-0.35-2.75-0.61c0.9-1.08,1.88-1.59,1.89-1.6
				c0.06-0.12,0.11-0.23,0.13-0.33C188.09,878.75,188.92,879.09,189.69,879.47z"/>
			<path class="st23" d="M186.2,878.14c0.74-0.44,1.25-0.41,1,0.31C186.87,878.34,186.54,878.23,186.2,878.14z"/>
			<path class="st23" d="M187.2,878.45c-0.02,0.1-0.07,0.21-0.13,0.33c-0.01,0.01-0.99,0.52-1.89,1.6c-0.36-0.1-0.71-0.2-1.06-0.32
				c0.66-0.88,1.46-1.57,2.08-1.92C186.54,878.23,186.87,878.34,187.2,878.45z"/>
			<path class="st24" d="M183.59,694.11c2.5,6.74,4.11,14.13,4.84,22.6c-3.07-1.32-6.1-2.95-9.06-4.93c-0.62-3.19-2-6.89-3.25-9.76
				c3.4-1.6,5.95-4.57,7.46-7.9C183.58,694.12,183.59,694.12,183.59,694.11z"/>
			<path class="st26" d="M185.01,755.23c2.64,58.96,2.17,91.55-2.1,111.31c-0.53,0.18-1.85,0.6-3.63,1c1.17-8.55,2.78-10.81-1-11.33
				c4.62-33.78,1.3-71.12-1.54-89.99c0.68,0.18,1.03-0.09,0.73-1.15c-0.35-0.27-0.69-0.54-1.03-0.83c-0.1-0.61-0.2-1.19-0.29-1.75
				c2.36,1.47,4.69,2.58,3.88,0.42c-0.97-0.62-1.91-1.28-2.83-1.97l1.58-1.16c2.03,0.59,3.66,0.75,2.6-0.84
				c-0.31-0.12-0.61-0.25-0.9-0.4L185.01,755.23z"/>
			<path class="st3" d="M185.01,755.23l-4.53,3.31c-1.28-0.58-2.46-1.27-3.66-1.96c-0.82-0.48-1.58-1.06-2.26-1.73
				c-0.08-0.26-0.15-0.47-0.22-0.63c3.93-0.33,7.4-0.98,10.08-1.95c0.15-0.07,0.31-0.15,0.45-0.25
				C184.92,753.1,184.97,754.17,185.01,755.23z"/>
			<path class="st3" d="M184.87,752.02c-0.14,0.1-0.3,0.18-0.45,0.25c-2.68,0.97-6.15,1.62-10.08,1.95
				c-0.09-0.23-0.17-0.35-0.24-0.37c-0.04,0.02-0.05,0.15-0.05,0.4c-0.02,0-0.04,0-0.06,0.01c-0.35-0.4-0.67-0.82-0.96-1.26
				c-0.01-0.02-0.02-0.03-0.03-0.05l2.24-1.61c-0.16-0.06-0.31-0.11-0.47-0.16l9.73-7.1C184.63,746.78,184.75,749.43,184.87,752.02z
				"/>
			<polygon class="st19" points="184.5,744.07 184.5,744.08 174.77,751.18 			"/>
			<path class="st24" d="M184.5,744.07l-9.73,7.11c-1.42-0.43-2.83-0.41-4.21-0.61c-0.65-0.19-3.66-0.19-4.6-0.77
				c0,0-12.59-9.72-15.76-21.35c-0.64-2.37-1.1-4.95-1.35-7.62c4.21,1.42,8.48,2.55,12.52,3.45c0.15,1.11,0.43,1.9,0.86,2.25
				c2.4,1.93,8.78,3.21,10.11-0.24c6.73,1,11.32,1.25,11.32,1.25C183.96,733.25,184.24,738.76,184.5,744.07z"/>
			<path class="st25" d="M183.83,681.76c2.33,0.85,3.8,2.03,4.49,3.38c-3.87-2.49-7.96-4.95-12.61-7.15
				C179.75,677.73,182.4,679.29,183.83,681.76z"/>
			<path class="st23" d="M184.12,880.06c0.35,0.12,0.7,0.22,1.06,0.32c-0.48,0.58-0.94,1.32-1.23,2.24
				c-0.07,0.22-0.27,0.36-0.49,0.36c-0.33,0.01-0.59-0.34-0.48-0.66C183.2,881.5,183.62,880.72,184.12,880.06z"/>
			<path class="st21" d="M186.2,878.14c-0.62,0.35-1.42,1.04-2.08,1.92c-0.94-0.32-1.85-0.71-2.64-1.21
				c0.63-0.64,1.12-0.97,1.13-0.98c0.07-0.18,0.11-0.33,0.13-0.46C183.95,877.57,185.11,877.82,186.2,878.14z"/>
			<path class="st20" d="M183.66,660.02c0.28,0.81,0.41,1.64,0.41,2.48c0,3.16-1.91,6.37-5.25,8.58c-1.88,1.08-3.92,1.68-5.96,1.83
				c0.01-0.09,0.02-0.19,0.04-0.29c0.49-2.56,0.97-5.41,1.01-7.93c0-0.13,0-0.25,0-0.36c0.01-0.15,0.01-0.29,0.01-0.42
				c1.05,1.26,3.32,1.53,3.92,1.54c0.84,0.08,1.6-0.35,0.83-0.55c-0.09,0.02-2.37,0.61-4.77-1.59c-0.04-1.03-0.19-1.98-0.5-2.81
				c-0.04-0.13-0.09-0.27-0.15-0.4c-0.38-0.9-0.93-1.61-1.71-2.07c-1.62-1.05-3.67-0.77-5.11,0.31c-0.13,0.09-0.25,0.19-0.37,0.3
				c-0.92,0.79-1.51,1.96-1.43,3.37c0,0.08,0.01,0.16,0.01,0.24c0.07-0.03,0.08,0.49,0.05,1.36c-0.01,0.2-0.02,0.41-0.03,0.65
				c-0.03,0.58-0.08,1.26-0.15,1.99c-0.02,0.3-0.05,0.6-0.08,0.91c-0.01,0.15-0.03,0.31-0.05,0.46c-0.03,0.31-0.06,0.63-0.1,0.95
				c-0.05,0.48-0.11,0.96-0.17,1.43c-0.02,0.16-0.04,0.32-0.07,0.47c-0.42-0.31-0.82-0.64-1.2-1c0-0.01,0-0.01,0-0.01
				c-1.94-3.88-2.41-5.93-2.16-7.9c0.89-0.56,1.53-1.65,1.44-3.26c-0.01-0.46-0.08-0.87-0.2-1.23c4.8-3.41,4.63-8.07,9.12-8.05
				c2.02,0.01,3.88-0.11,5.31-0.24l4.17,4.22C180.74,655.49,182.75,657.72,183.66,660.02z M180.63,654.67
				c0.08-0.1,0.06-0.25-0.04-0.33c-0.05-0.04-1.25-0.97-2.77-0.72c-0.12,0.02-0.21,0.14-0.19,0.27c0.03,0.13,0.15,0.21,0.27,0.19
				c1.3-0.22,2.39,0.62,2.4,0.63c0.04,0.03,0.09,0.05,0.14,0.05C180.51,654.76,180.58,654.73,180.63,654.67z M180.31,657.04
				c0.49-0.64-0.52-1.39-0.99-0.73C178.83,656.95,179.85,657.7,180.31,657.04z M177.99,662.08c1.02-0.03,2.33-0.5,1.23-1.56
				c-1.05-0.82-1.5-3.36-1.51-3.39c-1.04-0.97,0.02,2.84,1.22,3.76c0.81,0.71-1.17,0.92-1.91,0.52
				C175.97,661.58,177.53,662.21,177.99,662.08z M175.8,653.87c0-0.13-0.09-0.24-0.22-0.25c-0.08,0-2.07-0.11-3.48,1.42
				c-0.08,0.1-0.08,0.25,0.02,0.33c0.04,0.04,0.1,0.06,0.16,0.06s0.12-0.02,0.17-0.07c1.25-1.36,3.08-1.27,3.1-1.27
				C175.67,654.09,175.79,654,175.8,653.87z M175.02,657.04c0.49-0.64-0.52-1.39-0.99-0.74
				C173.54,656.94,174.55,657.7,175.02,657.04z"/>
			<path class="st25" d="M183.59,694.11c0,0.01-0.01,0.01-0.01,0.01c-1.51,3.33-4.06,6.3-7.46,7.9c1.25,2.87,2.63,6.57,3.25,9.76
				c-1-0.67-2-1.39-2.99-2.14c-0.16-0.35-0.93-13.45-1.47-22.85c0.98-3.7,0.93-6.64,0.83-7.99
				C178.95,683.65,181.56,688.67,183.59,694.11z"/>
			<path class="st27" d="M182.91,866.54c0.17-0.06,0.26-0.09,0.26-0.09c-0.83,3.08-1.39,4.74-1.45,4.93
				C182.14,869.86,182.54,868.25,182.91,866.54z"/>
			<path class="st23" d="M181.76,877.28c0.66-0.48,1.12-0.56,0.98,0.13C182.42,877.36,182.09,877.32,181.76,877.28z"/>
			<path class="st23" d="M182.74,877.41c-0.02,0.13-0.06,0.28-0.13,0.46c-0.01,0.01-0.5,0.34-1.13,0.98
				c-0.29-0.18-0.56-0.37-0.82-0.59c0.39-0.4,0.77-0.74,1.1-0.98C182.09,877.32,182.42,877.36,182.74,877.41z"/>
			<path class="st28" d="M176.12,635.28c5.17,0,9.32,3.87,5.65,9.79c-0.36,0.63-0.78,1.12-1.25,1.48c-0.54-1.46-1.57-2.9-3.45-3.97
				l-2.29,1.18c-3.02-1.45-6.68-0.87-9.69,1.23c-2.38,1.54-4.36,4.06-5.3,7.46c-0.19,0.68-0.35,1.38-0.45,2.12
				c-0.02,0.1-0.03,0.21-0.04,0.32c-0.45-0.03-0.89,0.05-1.3,0.24c0.03-1.17,0.14-2.52,0.46-3.8c1.41-11.88,8.76-11.52,8.76-11.52
				C169.58,636.66,173.04,635.28,176.12,635.28z"/>
			<path class="st27" d="M182.91,866.54c-0.37,1.71-0.77,3.32-1.19,4.84c-0.01,0.01-0.01,0.02-0.01,0.02
				c-0.97,0.36-1.95,0.66-2.93,0.89c0.14-1.77,0.32-3.34,0.5-4.75C181.06,867.14,182.38,866.72,182.91,866.54z"/>
			<path class="st20" d="M181.38,758.94c1.06,1.59-0.57,1.43-2.6,0.84l1.7-1.24C180.77,758.69,181.07,758.82,181.38,758.94z"/>
			<path class="st23" d="M181.48,878.85c-0.68,0.71-1.53,1.8-2.03,3.24c-0.07,0.21-0.27,0.34-0.48,0.34
				c-1.16-0.49,0.27-2.7,1.69-4.17C180.92,878.48,181.19,878.67,181.48,878.85z"/>
			<path class="st21" d="M181.76,877.28c-0.33,0.24-0.71,0.58-1.1,0.98c-0.4-0.32-0.75-0.68-1.04-1.09
				C180.35,877.18,181.06,877.22,181.76,877.28z"/>
			<path class="st29" d="M180.59,654.34c0.1,0.08,0.12,0.23,0.04,0.33c-0.05,0.06-0.12,0.09-0.19,0.09c-0.05,0-0.1-0.02-0.14-0.05
				c-0.01-0.01-1.1-0.85-2.4-0.63c-0.12,0.02-0.24-0.06-0.27-0.19c-0.02-0.13,0.07-0.25,0.19-0.27
				C179.34,653.37,180.54,654.3,180.59,654.34z"/>
			<path class="st28" d="M180.52,646.55c1.13,3.06,0.08,6.23,0,6.45c-0.2-2.25-0.82-4.1-1.72-5.56
				C179.42,647.26,180,646.98,180.52,646.55z"/>
			<path class="st20" d="M180.52,653l-4.17-4.22c1.74-0.17,2.84-0.35,2.84-0.35c-0.16-0.34-0.33-0.66-0.51-0.96
				c0.04,0,0.08-0.01,0.12-0.03C179.7,648.9,180.32,650.75,180.52,653z"/>
			<path class="st20" d="M180.48,758.54l-1.7,1.24c-1.11-0.32-2.34-0.76-3.33-1.13c-0.34-1.7-0.64-2.99-0.89-3.8
				c0.68,0.67,1.44,1.25,2.26,1.73C178.02,757.27,179.2,757.96,180.48,758.54z"/>
			<path class="st29" d="M179.32,656.31c0.47-0.66,1.48,0.09,0.99,0.73C179.85,657.7,178.83,656.95,179.32,656.31z"/>
			<path class="st20" d="M180.03,762.91c0.81,2.16-1.52,1.05-3.88-0.42c-0.04-0.24-0.08-0.47-0.12-0.69v-0.01l1.17-0.85
				C178.12,761.63,179.06,762.29,180.03,762.91z"/>
			<path class="st20" d="M179.62,877.17c-0.12,0-0.23,0-0.35,0c-5.23,1.43-8.93-0.8-10.74,0.83c0-1.58-0.1-3.3-0.24-5.07
				c2.85,0.26,6.65,0.27,10.49-0.64c-0.02,0.22-0.03,0.44-0.05,0.67C178.45,874.72,178.83,876.09,179.62,877.17z"/>
			<path class="st29" d="M179.22,660.52c1.1,1.06-0.21,1.53-1.23,1.56c-0.46,0.13-2.02-0.5-0.97-0.67c0.74,0.4,2.72,0.19,1.91-0.52
				c-1.2-0.92-2.26-4.73-1.22-3.76C177.72,657.16,178.17,659.7,179.22,660.52z"/>
			<path class="st25" d="M179.37,711.78c0.6,3.1,0.48,5.71-1.19,6.56c-1.53,1.45-5.32,2.1-5.41-2.12c-0.08-3.5-0.27-8.81-0.7-12.11
				c-0.34,0.05-0.73,0.03-1.18-0.09c0.01,0-0.5,11.68,1.43,18.99c0.37,1.39,0.33,2.47,0.02,3.28c-3.25-0.48-7-1.13-10.97-2.01
				c-0.66-4.9,1.21-15.97,3.97-22.51c-2.05-1.11-4.14-2.78-6.1-4.72c-0.79-0.8-2.54-2.07-4.62-3.59v-0.01
				c-0.13-0.29-2.38-5.32-5.88-9.17c0.13-0.41,0.23-0.78,0.31-1.1c0.24-1,9.72-7.17,10.56-7.81c0.15-0.07,0.37-0.11,0.63-0.13
				c0,0,0,0.01,0.01,0.01c-0.21,0.04-0.39,0.1-0.51,0.18c0.35,0.6,0.84,1.23,1.43,1.87c2.78,8.77,6.62,16.56,7.95,19.16
				c0.41-0.27,0.98-0.4,1.45-0.42c2.3-3.28,3.61-6.48,4.34-9.25c0.54,9.4,1.31,22.5,1.47,22.85
				C177.37,710.39,178.37,711.11,179.37,711.78z"/>
			<path class="st26" d="M178.28,856.21c3.78,0.52,2.17,2.78,1,11.33c-0.89,0.19-1.91,0.37-3,0.51
				C177.07,864.18,177.73,860.22,178.28,856.21z"/>
			<path class="st28" d="M180.52,646.55c-0.52,0.43-1.1,0.71-1.72,0.89c-0.52-0.86-1.15-1.58-1.84-2.18
				c-0.02-0.02-0.04-0.04-0.06-0.05c-0.65-0.62-1.37-1.1-2.12-1.45l2.29-1.18C178.95,643.65,179.98,645.09,180.52,646.55z"/>
			<path class="st30" d="M178.68,647.47c0.18,0.3,0.35,0.62,0.51,0.96c0,0-1.1,0.18-2.84,0.35l-0.91-0.94
				C176.59,647.82,177.69,647.76,178.68,647.47z"/>
			<path class="st29" d="M178.67,664.9c0.77,0.2,0.01,0.63-0.83,0.55c-0.6-0.01-2.87-0.28-3.92-1.54c0-0.2-0.01-0.4-0.02-0.6
				C176.3,665.51,178.58,664.92,178.67,664.9z"/>
			<path class="st28" d="M178.8,647.44c-0.04,0.02-0.08,0.03-0.12,0.03c-0.5-0.87-1.08-1.6-1.72-2.21
				C177.65,645.86,178.28,646.58,178.8,647.44z"/>
			<path class="st27" d="M179.28,867.54c-0.18,1.41-0.36,2.98-0.5,4.75c-3.84,0.91-7.64,0.9-10.49,0.64
				c-0.13-1.69-0.3-3.42-0.49-5.11c2.85,0.63,5.8,0.56,8.35,0.25c0.5-3.9,0.91-7.89,1.23-11.94c0.33,0.01,0.63,0.04,0.9,0.08
				c-0.55,4.01-1.21,7.97-2,11.84C177.37,867.91,178.39,867.73,179.28,867.54z"/>
			<path class="st3" d="M178.78,759.78l-1.58,1.16c-0.52-0.38-1.03-0.78-1.54-1.2c-0.07-0.38-0.14-0.74-0.21-1.09
				C176.44,759.02,177.67,759.46,178.78,759.78z"/>
			<path class="st27" d="M176.74,766.22c2.84,18.87,6.16,56.21,1.54,89.99c-0.27-0.04-0.57-0.07-0.9-0.08
				c2.73-34.2-0.6-72.26-2.37-90.82C175.68,765.76,176.29,766.09,176.74,766.22z"/>
			<path class="st20" d="M177.47,765.07c0.3,1.06-0.05,1.33-0.73,1.15c-0.1-0.69-0.2-1.35-0.3-1.98
				C176.78,764.53,177.12,764.8,177.47,765.07z"/>
			<path class="st26" d="M175.01,765.31c1.77,18.56,5.1,56.62,2.37,90.82c-1.85-0.12-4.65-0.01-8.79,0.03
				c-1.08,0-1.93,0.94-1.82,2.02c0.16,2.36,0.62,5.89,1.03,9.64c-1.33-0.29-2.63-0.73-3.86-1.37c-0.02,0.26-0.04,0.53-0.07,0.79
				c2.29-31.78-3.83-73.1-7.11-91.37l14.01-10.23c1.49,1.41,2.81,2.2,2.55,0.27c-0.37-0.44-0.74-0.88-1.1-1.33l0.9-0.66
				C173.75,764.42,174.41,764.91,175.01,765.31z"/>
			<path class="st20" d="M177.2,760.94l-1.17,0.85c-0.13-0.73-0.25-1.42-0.37-2.05C176.17,760.16,176.68,760.56,177.2,760.94z"/>
			<path class="st28" d="M176.96,645.26c0.64,0.61,1.22,1.34,1.72,2.21c-0.99,0.29-2.09,0.35-3.24,0.37l-2.89-2.93l2.07-1.07
				c0.81,0.33,1.58,0.79,2.28,1.37C176.92,645.22,176.94,645.24,176.96,645.26z"/>
			<path class="st20" d="M176.44,764.24c0.1,0.63,0.2,1.29,0.3,1.98c-0.45-0.13-1.06-0.46-1.73-0.91c-0.08-0.9-0.17-1.76-0.24-2.56
				C175.31,763.27,175.87,763.77,176.44,764.24z"/>
			<path class="st26" d="M177.38,856.13c-0.32,4.05-0.73,8.04-1.23,11.94c-2.55,0.31-5.5,0.38-8.35-0.25
				c-0.41-3.75-0.87-7.28-1.03-9.64c-0.11-1.08,0.74-2.02,1.82-2.02C172.73,856.12,175.53,856.01,177.38,856.13z"/>
			<path class="st30" d="M175.44,647.84l0.91,0.94c-1.43,0.13-3.29,0.25-5.31,0.24c-4.49-0.02-4.32,4.64-9.12,8.05
				c-0.1-0.35-0.25-0.65-0.42-0.91c1.27-1.14,2.2-2.51,3.39-4.28C167.8,647.55,171.88,647.91,175.44,647.84z"/>
			<path class="st27" d="M176.15,762.49c0.09,0.56,0.19,1.14,0.29,1.75c-0.57-0.47-1.13-0.97-1.67-1.49c0-0.01,0-0.02-0.01-0.03
				l0.82-0.6C175.77,762.24,175.96,762.36,176.15,762.49z"/>
			<path class="st20" d="M176.03,761.8c0.04,0.22,0.08,0.45,0.12,0.69c-0.19-0.13-0.38-0.25-0.57-0.37L176.03,761.8z"/>
			<path class="st20" d="M176.03,761.79v0.01l-0.45,0.32c-0.31-0.2-0.63-0.41-0.93-0.61c-0.1-1.04-0.19-1.99-0.27-2.83
				c0.42,0.37,0.85,0.72,1.28,1.06C175.78,760.37,175.9,761.06,176.03,761.79z"/>
			<path class="st24" d="M175.74,678.8c0.1,1.35,0.15,4.29-0.83,7.99c-0.14-2.53-0.27-4.79-0.37-6.46c0.23-0.72,0.34-1.63,0.29-2.75
				c0.04,0.01,0.08,0.03,0.12,0.05C175.22,678.02,175.48,678.41,175.74,678.8z"/>
			<path class="st6" d="M175.71,677.99c-0.02,0-0.04,0-0.06,0c0,0,0.05,0.28,0.09,0.81c-0.26-0.39-0.52-0.78-0.79-1.17
				C175.21,677.75,175.46,677.87,175.71,677.99z"/>
			<path class="st29" d="M175.58,653.62c0.13,0.01,0.22,0.12,0.22,0.25c-0.01,0.13-0.13,0.22-0.25,0.22c-0.02,0-1.85-0.09-3.1,1.27
				c-0.05,0.05-0.11,0.07-0.17,0.07s-0.12-0.02-0.16-0.06c-0.1-0.08-0.1-0.23-0.02-0.33C173.51,653.51,175.5,653.62,175.58,653.62z"
				/>
			<path class="st3" d="M175.58,762.12l-0.82,0.6c-0.04-0.42-0.07-0.82-0.11-1.21C174.95,761.71,175.27,761.92,175.58,762.12z"/>
			<path class="st3" d="M175.45,758.65c0.07,0.35,0.14,0.71,0.21,1.09c-0.43-0.34-0.86-0.69-1.28-1.06
				c-0.01-0.15-0.03-0.29-0.04-0.43C174.64,758.35,175.02,758.49,175.45,758.65z"/>
			<path class="st28" d="M172.55,644.91l2.89,2.93c-3.56,0.07-7.64-0.29-10.55,4.04c-1.19,1.77-2.12,3.14-3.39,4.28
				c-0.54-0.81-1.36-1.23-2.19-1.27c0.01-0.11,0.02-0.21,0.03-0.32c0.1-0.74,0.26-1.44,0.45-2.12c0.95-3.26,2.93-5.83,5.3-7.46
				c2.96-1.95,6.55-2.38,9.53-1.15L172.55,644.91z"/>
			<path class="st20" d="M175.24,751.34l-2.24,1.61c0.01,0.02,0.02,0.03,0.03,0.05c0.29,0.44,0.61,0.86,0.96,1.26
				c-1.19,0.09-2.43,0.15-3.69,0.19l4.47-3.27C174.93,751.23,175.08,751.28,175.24,751.34z"/>
			<path class="st28" d="M174.78,643.76c0.75,0.35,1.47,0.83,2.12,1.45c-0.7-0.58-1.47-1.04-2.28-1.37L174.78,643.76z"/>
			<path class="st29" d="M174.03,656.3c0.47-0.65,1.48,0.1,0.99,0.74C174.55,657.7,173.54,656.94,174.03,656.3z"/>
			<path class="st24" d="M174.95,677.63c-0.04-0.02-0.08-0.04-0.12-0.05c0-0.04,0-0.08,0-0.12
				C174.87,677.52,174.91,677.57,174.95,677.63z"/>
			<path class="st6" d="M174.83,677.58c0.05,1.12-0.06,2.03-0.29,2.75c-0.1-1.83-0.16-2.96-0.16-2.96
				C174.53,677.44,174.68,677.51,174.83,677.58z"/>
			<path class="st6" d="M174.83,677.46c0,0.04,0,0.08,0,0.12c-0.15-0.07-0.3-0.14-0.45-0.21c0,0,0.06,1.13,0.16,2.96
				c-1.28,4.06-6.41,2.4-10.39-0.46c4.42,2.66,11.6,4.19,7.99-3.33v-0.01c0.48,0.08,1.12,0.3,1.66,0.51
				c0.14,0.05,0.26,0.1,0.38,0.15c0.18,0.07,0.33,0.13,0.44,0.18c0.08,0.04,0.14,0.06,0.17,0.07
				C174.81,677.45,174.82,677.46,174.83,677.46z"/>
			<path class="st20" d="M174.77,762.75c0.07,0.8,0.16,1.66,0.24,2.56c-0.6-0.4-1.26-0.89-1.89-1.39l1.62-1.19h0.01
				C174.76,762.74,174.76,762.75,174.77,762.75z"/>
			<path class="st28" d="M174.78,643.76l-0.16,0.08c-2.98-1.23-6.57-0.8-9.53,1.15C168.1,642.89,171.76,642.31,174.78,643.76z"/>
			<path class="st20" d="M174.77,751.18l-4.47,3.27h-0.01c-2.76,0.08-5.66,0.02-8.61-0.19c-0.03-0.06-0.05-0.11-0.08-0.17
				c0,0,0.83-3.25,4.36-4.29c0.94,0.58,3.95,0.58,4.6,0.77C171.94,750.77,173.35,750.75,174.77,751.18z"/>
			<path class="st26" d="M174.77,762.75c-0.01,0-0.01-0.01-0.02-0.02l0.01-0.01C174.77,762.73,174.77,762.74,174.77,762.75z"/>
			<path class="st3" d="M174.76,762.72l-0.01,0.01h-0.01c-0.97-0.93-1.87-1.93-2.71-2.98c0-0.01,0-0.01,0.01-0.02
				c0.31,0.18,1.37,0.94,2.61,1.78C174.69,761.9,174.72,762.3,174.76,762.72z"/>
			<path class="st20" d="M174.74,762.73l-1.62,1.19c-1.57-1.25-3.03-2.61-3.34-2.96c0,0.01-0.01,0.01-0.02,0.01
				c0.72,1.27,1.56,2.47,2.46,3.61l-1.45,1.06c-1.54-1.46-3.25-3.58-3.55-4.03c-0.36-0.2-1.52-1.23-2.8-2.87l5.87-4.29h0.01
				c1.26-0.04,2.5-0.1,3.69-0.19c0.02,0.02,0.04,0.04,0.06,0.06c0.01,0.66,0.11,2,0.29,3.93c-0.3-0.11-0.53-0.18-0.65-0.21
				c-0.01,0.02-0.01,0.02-0.02,0.04c0.24,0.21,0.47,0.41,0.71,0.6c0.08,0.84,0.17,1.79,0.27,2.83c-1.24-0.84-2.3-1.6-2.61-1.78
				c-0.01,0.01-0.01,0.01-0.01,0.02C172.87,760.8,173.77,761.8,174.74,762.73z"/>
			<path class="st6" d="M174.62,677.37c0.08,0.03,0.14,0.06,0.17,0.07C174.76,677.43,174.7,677.41,174.62,677.37z"/>
			<path class="st20" d="M174.56,754.85c0.25,0.81,0.55,2.1,0.89,3.8c-0.43-0.16-0.81-0.3-1.11-0.4c-0.18-1.93-0.28-3.27-0.29-3.93
				C174.21,754.51,174.38,754.68,174.56,754.85z"/>
			<path class="st24" d="M174.54,680.33c0.1,1.67,0.23,3.93,0.37,6.46c-0.73,2.77-2.04,5.97-4.34,9.25
				c-0.47,0.02-1.04,0.15-1.45,0.42c-1.33-2.6-5.17-10.39-7.95-19.16c0.06,0.06,0.12,0.12,0.18,0.17c0.48,0.77,1.52,1.62,2.78,2.39
				c0,0,0.01,0.01,0.02,0.01C168.13,682.73,173.26,684.39,174.54,680.33z"/>
			<path class="st4" d="M174.38,758.68c-0.24-0.19-0.47-0.39-0.71-0.6c0.01-0.02,0.01-0.02,0.02-0.04c0.12,0.03,0.35,0.1,0.65,0.21
				C174.35,758.39,174.37,758.53,174.38,758.68z"/>
			<path class="st4" d="M174.34,754.22c0.07,0.16,0.14,0.37,0.22,0.63c-0.18-0.17-0.35-0.34-0.51-0.53c0-0.03,0-0.05,0-0.07
				C174.15,754.24,174.25,754.23,174.34,754.22z"/>
			<path class="st4" d="M174.34,754.22c-0.09,0.01-0.19,0.02-0.29,0.03c0-0.25,0.01-0.38,0.05-0.4
				C174.17,753.87,174.25,753.99,174.34,754.22z"/>
			<path class="st14" d="M174.05,754.25c0,0.02,0,0.04,0,0.07c-0.02-0.02-0.04-0.04-0.06-0.06
				C174.01,754.25,174.03,754.25,174.05,754.25z"/>
			<path class="st6" d="M173.8,677.04c0.14,0.05,0.26,0.1,0.38,0.15C174.06,677.14,173.94,677.09,173.8,677.04z"/>
			<path class="st20" d="M173.92,663.91c0,0.13,0,0.27-0.01,0.42c0-0.15,0-0.29-0.01-0.44C173.91,663.9,173.91,663.91,173.92,663.91
				z"/>
			<path class="st29" d="M173.92,663.91c-0.01,0-0.01-0.01-0.02-0.02c0-0.2-0.01-0.4-0.02-0.6c0.01,0.01,0.01,0.01,0.02,0.02
				C173.91,663.51,173.92,663.71,173.92,663.91z"/>
			<path class="st20" d="M173.9,663.89c0.01,0.15,0.01,0.29,0.01,0.44c0,0.11,0,0.23,0,0.36c-0.1,2.49-0.64,5.28-1.01,7.93
				c-0.02,0.1-0.04,0.2-0.06,0.29c-3.14,0.24-6.28-0.6-8.79-2.43c0.02-0.16,0.04-0.32,0.06-0.48c0.06-0.47,0.12-0.95,0.17-1.43
				c0.04-0.32,0.07-0.63,0.1-0.95c0.02-0.15,0.04-0.31,0.05-0.46c0.03-0.31,0.06-0.61,0.08-0.91c0.07-0.73,0.12-1.41,0.15-1.99
				c0.01-0.23,0.02-0.45,0.03-0.65c0.03-0.87,0.02-1.39-0.05-1.36c0-0.08-0.01-0.16-0.01-0.24s0-0.16,0-0.25
				c0.01-1.25,0.58-2.34,1.43-3.12c0.12-0.11,0.24-0.21,0.37-0.3c1.43-1,3.46-1.22,5.11-0.31c0.79,0.53,1.34,1.24,1.71,2.07
				c0.06,0.13,0.11,0.27,0.15,0.4c0.27,0.82,0.42,1.76,0.48,2.78h-0.01c-0.09-0.09-0.24-0.08-0.33,0.01
				C173.63,663.51,173.75,663.71,173.9,663.89z"/>
			<path class="st20" d="M173.9,663.31c-0.01-0.01-0.01-0.01-0.02-0.02v-0.01c-0.06-1.02-0.21-1.96-0.48-2.78
				C173.71,661.33,173.86,662.28,173.9,663.31z"/>
			<path class="st29" d="M173.88,663.29c0.01,0.2,0.02,0.4,0.02,0.6c-0.15-0.18-0.27-0.38-0.36-0.6c0.09-0.09,0.24-0.1,0.33-0.01
				L173.88,663.29L173.88,663.29z"/>
			<path class="st20" d="M173.32,765.91c0.26,1.93-1.06,1.14-2.55-0.27l1.45-1.06C172.58,765.03,172.95,765.47,173.32,765.91z"/>
			<path class="st3" d="M173.12,763.92l-0.9,0.66c-0.9-1.14-1.74-2.34-2.46-3.61c0.01,0,0.02,0,0.02-0.01
				C170.09,761.31,171.55,762.67,173.12,763.92z"/>
			<path class="st20" d="M173.91,664.69c-0.04,2.52-0.52,5.37-1.01,7.93C173.27,669.97,173.81,667.18,173.91,664.69z"/>
			<path class="st20" d="M172.84,672.91c0.02-0.09,0.04-0.19,0.06-0.29c-0.02,0.1-0.03,0.2-0.04,0.29
				C172.86,672.91,172.85,672.91,172.84,672.91z"/>
			<path class="st30" d="M172.84,672.91c0.01,0,0.02,0,0.02,0c-0.07,0.51-0.14,1.01-0.19,1.5c-0.03,0-0.07,0-0.12,0
				C172.64,673.93,172.74,673.43,172.84,672.91z"/>
			<path class="st30" d="M164.05,670.48c2.51,1.83,5.65,2.67,8.79,2.43c-0.1,0.52-0.2,1.02-0.29,1.5c-1.07,0.02-5.31-0.03-8.74-2.35
				c0.06-0.36,0.12-0.74,0.17-1.12C164.01,670.79,164.03,670.64,164.05,670.48z"/>
			<path class="st20" d="M163.81,672.06c3.43,2.32,7.67,2.37,8.74,2.35c-0.15,0.75-0.3,1.46-0.42,2.11l0.01,0.01v0.01
				c0.01,0.34,0,0.82-0.09,1.29c0,0.01,0,0.03-0.01,0.04c-0.02,0.08-0.04,0.16-0.06,0.24c0,0.02-0.01,0.04-0.01,0.05
				c-0.3,0.95-1.03,1.84-2.87,1.29c-0.02-0.01-0.05-0.02-0.09-0.03c-0.08-0.02-0.15-0.05-0.23-0.08c-0.07-0.02-0.14-0.05-0.22-0.09
				c-1.06-0.44-2.45-1.32-4.24-2.79c-0.41-0.34-0.84-0.71-1.29-1.12C163.31,674.64,163.58,673.45,163.81,672.06z"/>
			<path class="st6" d="M172.14,676.54c3.61,7.52-3.57,5.99-7.99,3.33c-0.01,0-0.02-0.01-0.02-0.01c-1.04-0.74-2-1.57-2.78-2.39
				c-0.66-1.01-0.36-1.86,1.63-2.12c0,0,0.02,0,0.03-0.01c0.01,0.01,0.02,0.01,0.02,0c0.45,0.41,0.88,0.78,1.29,1.12
				c1.79,1.5,3.17,2.36,4.24,2.79c0.08,0.04,0.15,0.07,0.22,0.09c0.08,0.03,0.16,0.06,0.23,0.08c0.04,0.01,0.07,0.02,0.09,0.03
				c1.84,0.58,2.58-0.29,2.87-1.29c0-0.01,0.01-0.03,0.01-0.05c0.03-0.08,0.05-0.16,0.06-0.24c0.01-0.01,0.01-0.03,0.01-0.04
				C172.18,677.22,172.15,676.65,172.14,676.54z"/>
			<path class="st24" d="M172.14,676.54c0.01,0.11,0.04,0.68-0.09,1.29C172.14,677.36,172.15,676.88,172.14,676.54z"/>
			<path class="st24" d="M171.98,678.11c0.02-0.08,0.04-0.16,0.06-0.24C172.03,677.95,172.01,678.03,171.98,678.11z"/>
			<path class="st20" d="M173.25,660.1c-0.37-0.83-0.92-1.54-1.71-2.07C172.32,658.49,172.87,659.2,173.25,660.1z"/>
			<path class="st3" d="M170.77,765.64l-14.01,10.23c-1.05-5.89-1.81-9.39-1.89-9.39l-0.36-0.49l9.91-7.25
				c1.28,1.64,2.44,2.67,2.8,2.87C167.52,762.06,169.23,764.18,170.77,765.64z"/>
			<path class="st6" d="M171.97,678.16c-0.29,1-1.03,1.87-2.87,1.29C170.94,680,171.67,679.11,171.97,678.16z"/>
			<path class="st20" d="M170.29,754.45l-5.87,4.29c-0.94-1.2-1.94-2.73-2.74-4.48C164.63,754.47,167.53,754.53,170.29,754.45z"/>
			<path class="st20" d="M171.54,658.03c-1.65-0.91-3.68-0.69-5.11,0.31C167.87,657.26,169.92,656.98,171.54,658.03z"/>
			<path class="st22" d="M169.78,886.69h-0.61c-0.88,0-1.41-0.6-1.68-1.34c-0.1-0.34-0.17-0.7-0.21-1.05h0.69
				C167.93,885.52,168.31,886.63,169.78,886.69z"/>
			<path class="st22" d="M169.17,886.69h-1.14c-0.24-0.42-0.42-0.87-0.54-1.34C167.76,886.09,168.29,886.69,169.17,886.69z"/>
			<path class="st25" d="M161.37,724.28c3.97,0.88,7.72,1.53,10.97,2.01c-1.33,3.45-7.71,2.17-10.11,0.24
				C161.8,726.18,161.52,725.39,161.37,724.28z"/>
			<path class="st24" d="M168.78,679.34c0.08,0.03,0.15,0.06,0.23,0.08C168.94,679.4,168.86,679.37,168.78,679.34z"/>
			<path class="st21" d="M168.53,878c0.03,1.93-0.08,3.65-0.37,4.97c-0.1,0.43-0.17,0.89-0.19,1.33h-0.69
				C167.19,880.6,167.62,878.82,168.53,878z"/>
			<path class="st27" d="M167.8,867.82c0.19,1.69,0.36,3.42,0.49,5.11c-2.92-0.25-4.86-0.75-4.86-0.75
				c0.17-1.57,0.31-3.16,0.43-4.79c0-0.05,0.01-0.1,0.01-0.15c0.03-0.26,0.05-0.53,0.07-0.79
				C165.17,867.09,166.47,867.53,167.8,867.82z"/>
			<path class="st21" d="M167.28,884.3c0.04,0.35,0.11,0.71,0.21,1.05C167.37,885.01,167.3,884.65,167.28,884.3z"/>
			<path class="st6" d="M165.96,749.8c-1.24-0.78-4.97,2.9-4.36,4.29c-14.83-4.04-25.21-10.28-30.62-19.6
				c0.3-0.78,0.54-1.54,0.67-2.27c0.12-0.62,0.24-1.24,0.38-1.87c1.96-6.04,4.18-10.76,6.68-13.66c3.23,1.6,6.66,2.97,10.14,4.14
				c0.25,2.67,0.71,5.25,1.35,7.62C153.37,740.08,165.96,749.8,165.96,749.8z"/>
			<path class="st20" d="M161.6,754.09c-0.61-1.39,3.12-5.07,4.36-4.29C162.43,750.84,161.6,754.09,161.6,754.09z"/>
			<path class="st24" d="M164.32,676.46c1.79,1.47,3.18,2.35,4.24,2.79C167.49,678.82,166.11,677.96,164.32,676.46z"/>
			<path class="st20" d="M164.69,663.61c-0.01,0.2-0.02,0.42-0.03,0.65C164.67,664.02,164.68,663.81,164.69,663.61z"/>
			<path class="st20" d="M166.06,658.64c-0.85,0.78-1.42,1.87-1.43,3.12c0,0.09,0,0.17,0,0.25
				C164.55,660.6,165.14,659.43,166.06,658.64z"/>
			<path class="st20" d="M164.43,667.16c0.03-0.31,0.06-0.61,0.08-0.91C164.49,666.55,164.46,666.85,164.43,667.16z"/>
			<path class="st26" d="M164.42,758.74l-9.91,7.25l-10.99,8.02c1.59-11.46,2.57-19.51,2.6-22.1c4.99,1.22,10.36,2,15.56,2.35
				C162.48,756.01,163.48,757.54,164.42,758.74z"/>
			<path class="st20" d="M164.38,667.62c-0.03,0.32-0.06,0.63-0.1,0.95C164.32,668.25,164.35,667.93,164.38,667.62z"/>
			<path class="st20" d="M164.04,670.47c0.03-0.15,0.05-0.31,0.07-0.47c-0.02,0.16-0.04,0.32-0.06,0.48
				C164.05,670.47,164.04,670.47,164.04,670.47z"/>
			<path class="st20" d="M164.04,670.47c0,0,0.01,0,0.01,0.01c-0.02,0.16-0.04,0.31-0.07,0.46
				C164,670.79,164.02,670.63,164.04,670.47z"/>
			<path class="st27" d="M163.43,872.18c0.15-1.59,0.29-3.18,0.43-4.79C163.74,869.02,163.6,870.61,163.43,872.18z"/>
			<path class="st24" d="M163.01,675.34c-0.01,0.01-0.03,0.01-0.03,0.01c-0.07,0-0.24-0.02-0.47-0.05
				C162.77,675.32,162.95,675.34,163.01,675.34z"/>
			<path class="st6" d="M162.51,675.3c0.23,0.03,0.4,0.05,0.47,0.05c-1.99,0.26-2.29,1.11-1.63,2.12c-0.06-0.05-0.12-0.11-0.18-0.17
				c-0.1-0.33-0.21-0.67-0.31-1c-0.13-0.41-0.34-0.76-0.61-1.05c0.04,0,0.08-0.01,0.13-0.01c0.02-0.01,0.04-0.01,0.06-0.01
				c0.57-0.03,1.27,0.01,1.79,0.05C162.33,675.28,162.43,675.29,162.51,675.3z"/>
			<path class="st30" d="M162.84,669.46c-0.13-0.12-0.24-0.24-0.35-0.37c-1.68-1.96-2.55-4.5-2.97-7.13c0.41-0.05,0.8-0.18,1.16-0.4
				C160.43,663.53,160.9,665.58,162.84,669.46z"/>
			<path class="st20" d="M162.12,658.3c0.09,1.61-0.55,2.7-1.44,3.26c0.15-1.35,0.65-2.65,1.24-4.49
				C162.04,657.43,162.11,657.84,162.12,658.3z"/>
			<path class="st24" d="M161.6,754.09c0.03,0.06,0.05,0.11,0.08,0.17c-5.2-0.35-10.57-1.13-15.56-2.35
				c0.01-0.53-0.03-0.83-0.1-0.89c-0.08,0.01-0.19,0.28-0.34,0.79c-6.46-1.6-12.28-3.94-16.32-6.99c-0.37-0.56-0.6-1.14-0.71-1.75
				c0.54-2.46,1.1-4.81,1.7-7.03c0.22-0.52,0.44-1.04,0.63-1.55C136.39,743.81,146.77,750.05,161.6,754.09z"/>
			<path class="st20" d="M161.5,656.16c0.17,0.26,0.32,0.56,0.42,0.91c-0.59,1.84-1.09,3.14-1.24,4.49
				c-0.36,0.22-0.75,0.35-1.16,0.4c-0.21-1.29-0.3-2.6-0.33-3.87c0.33,0.37,0.62,0.91,0.76,1.7c0.02,0.12,0.13,0.21,0.25,0.21
				c0.02,0,0.03,0,0.05,0c0.14-0.03,0.24-0.16,0.21-0.3c-0.18-1.01-0.58-1.67-1-2.1C160.25,657.16,160.91,656.68,161.5,656.16z"/>
			<path class="st24" d="M161.35,677.47c0.78,0.82,1.74,1.65,2.78,2.39C162.87,679.09,161.83,678.24,161.35,677.47z"/>
			<path class="st6" d="M162.23,675.28c-0.52-0.04-1.22-0.08-1.79-0.05C160.99,675.17,161.7,675.22,162.23,675.28z"/>
			<path class="st24" d="M165.34,701.77c-2.76,6.54-4.63,17.61-3.97,22.51c-4.04-0.9-8.31-2.03-12.52-3.45
				c-1-10.43,0.95-22.12,5.77-27.37c2.08,1.52,3.83,2.79,4.62,3.59C161.2,698.99,163.29,700.66,165.34,701.77z"/>
			<path class="st25" d="M160.86,676.3c0.1,0.33,0.21,0.67,0.31,1c-0.59-0.64-1.08-1.27-1.43-1.87c0.12-0.08,0.3-0.14,0.51-0.18
				C160.52,675.54,160.73,675.89,160.86,676.3z"/>
			<path class="st29" d="M159.2,656.17c0.76,0.05,1.39,0.43,1.28,0.75c-0.26,0.28-0.7-0.18-1.29-0.29
				C159.18,656.48,159.19,656.32,159.2,656.17z"/>
			<path class="st20" d="M160.48,656.92c0.11-0.32-0.52-0.7-1.28-0.75c0-0.12,0-0.25,0.02-0.37c0.02-0.31,0.05-0.61,0.09-0.91
				c0.83,0.04,1.65,0.46,2.19,1.27c-0.59,0.52-1.25,1-2.04,1.44c-0.09-0.1-0.18-0.18-0.28-0.25c0-0.14,0-0.28,0-0.42
				c0-0.1,0-0.2,0.01-0.3C159.78,656.74,160.22,657.2,160.48,656.92z"/>
			<path class="st29" d="M160.46,659.7c0.03,0.14-0.07,0.27-0.21,0.3c-0.02,0-0.03,0-0.05,0c-0.12,0-0.23-0.09-0.25-0.21
				c-0.14-0.79-0.43-1.33-0.76-1.7c0-0.11,0-0.23,0-0.34c0.09-0.05,0.18-0.09,0.27-0.15C159.88,658.03,160.28,658.69,160.46,659.7z"
				/>
			<path class="st24" d="M160.24,675.24c0.04,0,0.09-0.01,0.14,0c-0.05,0-0.09,0.01-0.13,0.01
				C160.24,675.25,160.24,675.24,160.24,675.24z"/>
			<path class="st28" d="M165.09,644.99c-2.37,1.63-4.35,4.2-5.3,7.46C160.73,649.05,162.71,646.53,165.09,644.99z"/>
			<path class="st25" d="M160.24,675.24c-0.26,0.02-0.48,0.06-0.63,0.13c-0.84,0.64-10.32,6.81-10.56,7.81
				c-0.08,0.32-0.18,0.69-0.31,1.1c-1.57-1.72-3.38-3.21-5.37-3.93c0.62-1.75,3.14-3.09,8.67-3.67
				C154.47,674.06,158.55,673.52,160.24,675.24z"/>
			<path class="st20" d="M159.52,661.96c-1.53,0.15-3.18-0.96-3.26-3.42c-0.09-1.79,0.7-2.93,1.74-3.41c-0.02,0.47-0.01,0.91,0,1.3
				c-0.53,0.37-1.17,2.24-0.4,3.31c0.14,0,0.25-0.12,0.23-0.26c-0.12-0.99-0.08-1.73,0.13-2.21c0.02,0.01,0.03,0.02,0.06,0.02
				c0,0,0.01,0,0.02,0.01c0.04,0.6,0.08,0.97,0.08,0.97c0.3-0.13,0.59-0.27,0.86-0.41c0.08,0.06,0.15,0.14,0.21,0.23
				C159.22,659.36,159.31,660.67,159.52,661.96z"/>
			<path class="st29" d="M159.18,657.35c0.1,0.07,0.19,0.15,0.28,0.25c-0.09,0.06-0.18,0.1-0.27,0.15
				C159.18,657.62,159.18,657.48,159.18,657.35z"/>
			<path class="st28" d="M159.34,654.57c-0.01,0.11-0.02,0.21-0.03,0.32h-0.01C159.31,654.78,159.32,654.67,159.34,654.57z"/>
			<path class="st20" d="M159.3,654.89L159.3,654.89c-0.03,0.3-0.06,0.6-0.08,0.91C159.23,655.49,159.26,655.19,159.3,654.89z"/>
			<path class="st20" d="M158,655.13c0.41-0.19,0.85-0.27,1.3-0.24c-0.04,0.3-0.07,0.6-0.08,0.91c-0.02,0.12-0.02,0.25-0.02,0.37
				c-0.37-0.03-0.77,0.03-1.12,0.21c-0.03,0.01-0.05,0.03-0.08,0.05C157.99,656.04,157.98,655.6,158,655.13z"/>
			<path class="st29" d="M159.2,656.17c-0.01,0.15-0.02,0.31-0.01,0.46c-0.26-0.05-0.55-0.04-0.86,0.14
				c-0.02,0.02-0.04,0.04-0.06,0.06c0.19,0.06,0.54,0.21,0.91,0.52c0,0.13,0,0.27,0.01,0.4c-0.07,0.04-0.14,0.08-0.21,0.11
				c-0.42-0.41-0.84-0.54-0.94-0.56c-0.02-0.25-0.03-0.54-0.04-0.87c0.03-0.02,0.05-0.04,0.08-0.05
				C158.43,656.2,158.83,656.14,159.2,656.17z"/>
			<path class="st29" d="M159.19,657.75c0,0.11,0,0.23,0,0.34c-0.06-0.09-0.13-0.17-0.21-0.23
				C159.05,657.83,159.12,657.79,159.19,657.75z"/>
			<path class="st20" d="M159.19,656.63c-0.01,0.1-0.01,0.2-0.01,0.3c0,0.14,0,0.28,0,0.42c-0.37-0.31-0.72-0.46-0.91-0.52
				c0.02-0.02,0.04-0.04,0.06-0.06C158.64,656.59,158.93,656.58,159.19,656.63z"/>
			<path class="st20" d="M158.04,657.3c0.1,0.02,0.52,0.15,0.94,0.56c-0.27,0.14-0.56,0.28-0.86,0.41
				C158.12,658.27,158.08,657.9,158.04,657.3z"/>
			<path class="st29" d="M158.04,657.3c-0.01-0.01-0.02-0.01-0.02-0.01c-0.03,0-0.04-0.01-0.06-0.02c-0.21,0.48-0.25,1.22-0.13,2.21
				c0.02,0.14-0.09,0.26-0.23,0.26c-0.77-1.07-0.13-2.94,0.4-3.31C158.01,656.76,158.02,657.05,158.04,657.3z"/>
			<path class="st3" d="M156.76,775.87l-3.78,2.77c0.62-3.98,1.25-8.03,1.88-12.14c0-0.01,0-0.02,0.01-0.02
				C154.95,766.48,155.71,769.98,156.76,775.87z"/>
			<path class="st3" d="M154.51,765.99l0.36,0.49c-0.01,0-0.01,0.01-0.01,0.02c-0.63,4.11-1.26,8.16-1.88,12.14l-11.29,8.25
				c0.68-4.64,1.29-8.96,1.83-12.88L154.51,765.99z"/>
			<path class="st6" d="M154.62,693.45v0.01c-4.82,5.25-6.77,16.94-5.77,27.37c-3.48-1.17-6.91-2.54-10.14-4.14
				c-2.5,2.9-4.72,7.62-6.68,13.66c1.94-8.95,5.81-18.63,9.6-28.09c2.28-5.65,4.44-10.78,5.87-14.49
				C149.68,689.79,152.34,691.78,154.62,693.45z"/>
			<path class="st26" d="M141.69,786.89l11.29-8.25c-6.01,38.26-11.75,70.06-15,87.81c0,0-1.5,0.45-3.87,0.64l0.82-10.4
				c0.03-0.28-0.2-0.53-0.49-0.53c-0.06,0.09-1.45,0.05-3.28,0C135.02,831.55,138.87,806.41,141.69,786.89z"/>
			<path class="st25" d="M148.74,684.28c3.5,3.85,5.75,8.88,5.88,9.17c-2.28-1.67-4.94-3.66-7.12-5.68
				C148.02,686.4,148.44,685.22,148.74,684.28z"/>
			<path class="st25" d="M148.74,684.28c-0.3,0.94-0.72,2.12-1.24,3.49c-2.84-2.63-4.86-5.31-4.13-7.42
				C145.36,681.07,147.17,682.56,148.74,684.28z"/>
			<path class="st6" d="M147.5,687.77c-1.43,3.71-3.59,8.84-5.87,14.49c-3.79,9.46-7.66,19.14-9.6,28.09
				c-0.41,1.25-0.81,2.55-1.19,3.91c-4.07-7.16-5.25-16.13-3.3-27.27c2.9-16.6,15.68-26.7,15.68-26.7c0.05,0.02,0.1,0.04,0.15,0.06
				C142.64,682.46,144.66,685.14,147.5,687.77z"/>
			<path class="st27" d="M146.02,751.02c0.07,0.06,0.11,0.36,0.1,0.89c-0.15-0.03-0.3-0.06-0.44-0.1
				C145.83,751.3,145.94,751.03,146.02,751.02z"/>
			<path class="st27" d="M145.68,751.81c0.14,0.04,0.29,0.07,0.44,0.1c-0.03,2.59-1.01,10.64-2.6,22.1l-2.02,1.48
				C143.42,763.11,144.95,754.39,145.68,751.81z"/>
			<path class="st3" d="M141.5,775.49l2.02-1.48c-0.54,3.92-1.15,8.24-1.83,12.88l-0.96,0.7l-0.88-1.2
				C140.42,782.52,140.97,778.87,141.5,775.49z"/>
			<path class="st27" d="M140.73,787.59l0.96-0.7c-2.82,19.52-6.67,44.66-10.53,69.27c-0.2,0-0.4-0.01-0.61-0.02
				c2.92-24.65,6.38-50.08,9.3-69.75L140.73,787.59z"/>
			<path class="st26" d="M145.68,751.81c-0.73,2.58-2.26,11.3-4.18,23.68l-6.27,4.58l4.62,6.32c-2.92,19.67-6.38,45.1-9.3,69.75
				c-3.78-0.1-8.91-0.21-8.47,0.56c-0.04,1.65,0.42,5.06,0.85,8.87c-1.02-0.39-2.04-0.87-3.07-1.46
				c-1.48-23.73,0.69-84.34,8.79-121.04c0.11,0.61,0.34,1.19,0.71,1.75C133.4,747.87,139.22,750.21,145.68,751.81z"/>
			<path class="st3" d="M135.23,780.07l6.27-4.58c-0.53,3.38-1.08,7.03-1.65,10.9L135.23,780.07z"/>
			<path class="st27" d="M137.98,866.45c-0.09,0.51-0.18,0.98-0.26,1.41c-0.07,0.39-0.14,0.77-0.21,1.14
				c-0.2,1.1-0.31,1.69-0.31,1.69c-1.16,0.54-2.33,0.9-3.47,1.12l0.38-4.72C136.48,866.9,137.98,866.45,137.98,866.45z"/>
			<path class="st27" d="M137.72,867.86c-0.07,0.42-0.14,0.8-0.21,1.14C137.58,868.63,137.65,868.25,137.72,867.86z"/>
			<path class="st21" d="M133.63,878.93c1.74,1.62,2.65,4,2.29,5.71c0.02-0.11,0.02-0.22,0.01-0.34h-0.38
				C135.28,882.33,134.18,880.74,133.63,878.93z"/>
			<path class="st22" d="M135.93,884.3c0.01,0.12,0.01,0.23-0.01,0.34c0,0.01,0,0.02,0,0.03c-0.23,1.05-0.94,1.84-2.25,2.02h-10.22
				c-1.32-0.18-2.03-0.98-2.25-2.06v-0.01c-0.02-0.1-0.02-0.21-0.01-0.32h0.45c-0.01,0.27-0.02,0.57-0.02,0.91l0.99,0.29
				c0,0.27,0.17,0.79,0.44,0.79l11.56-0.24c0.28,0,0.62-0.95,0.62-1.23l0.39,0.21c-0.01-0.25-0.03-0.49-0.07-0.73H135.93z"/>
			<path class="st22" d="M135.62,885.03l-0.39-0.21c0,0.28-0.34,1.23-0.62,1.23l-11.56,0.24c-0.27,0-0.44-0.52-0.44-0.79l-0.99-0.29
				c0-0.34,0.01-0.64,0.02-0.91h13.91C135.59,884.54,135.61,884.78,135.62,885.03z"/>
			<path class="st21" d="M135.55,884.3h-13.91c0.06-1.1,0.27-1.71,0.89-2.79c0.44-0.58,0.72-1.47,0.89-2.59
				c1.3-1.23,3.07-2.03,5.14-1.77c2.03-0.22,3.78,0.57,5.07,1.78C134.18,880.74,135.28,882.33,135.55,884.3z M132.1,880.14
				c2.97-0.63-4.04-3.13-7.46-0.9c-0.44,0.24-0.24,0.97,0.26,0.95C127.73,878.47,132.09,880.02,132.1,880.14z"/>
			<path class="st26" d="M134.44,856.16c0.29,0,0.52,0.25,0.49,0.53l-0.82,10.4c-1.32,0.12-2.91,0.15-4.66-0.01
				c0.57-3.61,1.14-7.26,1.71-10.92C132.99,856.21,134.38,856.25,134.44,856.16z"/>
			<path class="st27" d="M134.11,867.09l-0.38,4.72c-3.99,0.78-7.73-0.15-10.3-1.15c-0.13-1.7-0.31-3.43-0.5-5.09
				c2.22,0.86,4.39,1.3,6.36,1.49c0.41-3.61,0.83-7.26,1.26-10.92c0.21,0.01,0.41,0.02,0.61,0.02c-0.57,3.66-1.14,7.31-1.71,10.92
				C131.2,867.24,132.79,867.21,134.11,867.09z"/>
			<path class="st22" d="M133.67,886.69c1.31-0.18,2.02-0.97,2.25-2.02C135.8,885.8,134.84,886.69,133.67,886.69z"/>
			<path class="st20" d="M133.73,871.81l-0.31,3.98c-0.22,1.17-0.08,2.19,0.21,3.14c-1.29-1.21-3.04-2-5.07-1.78
				c-2.07-0.26-3.84,0.54-5.14,1.77c0.35-2.16,0.26-5.15,0.01-8.26C126,871.66,129.74,872.59,133.73,871.81z"/>
			<path class="st23" d="M124.64,879.24c3.42-2.23,10.43,0.27,7.46,0.9c-0.01-0.12-4.37-1.67-7.2,0.05
				C124.4,880.21,124.2,879.48,124.64,879.24z"/>
			<path class="st6" d="M132.03,730.35c-0.14,0.63-0.26,1.25-0.38,1.87c-0.13,0.73-0.37,1.49-0.67,2.27
				c-0.05-0.08-0.09-0.15-0.14-0.23C131.22,732.9,131.62,731.6,132.03,730.35z"/>
			<path class="st26" d="M130.84,734.26c0.05,0.08,0.09,0.15,0.14,0.23c-0.19,0.51-0.41,1.03-0.63,1.55
				C130.51,735.44,130.67,734.84,130.84,734.26z"/>
			<path class="st26" d="M130.55,856.14c-0.43,3.66-0.85,7.31-1.26,10.92c-1.97-0.19-4.14-0.63-6.36-1.49
				c-0.43-3.81-0.89-7.22-0.85-8.87C121.64,855.93,126.77,856.04,130.55,856.14z"/>
			<path class="st24" d="M130.35,736.04c-0.6,2.22-1.16,4.57-1.7,7.03C128.24,740.87,129.35,738.4,130.35,736.04z"/>
			<path class="st27" d="M122.93,865.57c0.19,1.66,0.37,3.39,0.5,5.09c-2.12-0.83-3.44-1.7-3.44-1.7c-0.05-1.64-0.1-3.25-0.13-4.85
				C120.89,864.7,121.91,865.18,122.93,865.57z"/>
			<path class="st21" d="M123.42,878.92c-0.17,1.12-0.45,2.01-0.89,2.59c-0.62,1.08-0.83,1.69-0.89,2.79h-0.45
				c-0.01,0.11-0.01,0.22,0.01,0.32C120.85,882.91,121.73,880.55,123.42,878.92z"/>
			<path class="st22" d="M121.2,884.63c0.22,1.08,0.93,1.88,2.25,2.06C122.26,886.69,121.29,885.78,121.2,884.63z"/>
		</g>
	</g>
</g>
<g id="_x32_">
	<path class="st28" d="M504.7,287.05c0,0,3.45-6.66,13.95-4.69c10.51,1.97,12.99,15.3,16.55,21.37c7.55,12.85,9.82,26.51,5.89,33.07
		c-4.36,7.29-13.98,4.44-28.04,3.13c-15-1.39-21.28-14.41-11.95-32.31L504.7,287.05z"/>
	<path class="st6" d="M509.06,318c-4.11,6.02-6.73,35.4-6.82,37.68c-4.83-0.36-16.44-1.22-21.4-1.58
		c-1.4-10.75,12.86-32.8,25.86-35.42c0,0,0,0,0,0C508.17,318.19,509.06,318,509.06,318z"/>
	<path class="st20" d="M448.13,479.93l20.89-0.23c-0.05-3.34-0.94-10.08-0.28-13.89c0,0-9.02,1.16-9.02,1.16
		c0.25,1.83,0.81,5.8-2.23,6.75c-3.94,1.23-8.22,0.85-10.68,3.88C446.17,478.62,446.93,479.95,448.13,479.93z"/>
	<path class="st25" d="M469.63,477.69c-0.08,0.71-0.27,1.4-0.61,2.02l-21.09,0.23c-1.03,0.01-1.78-0.99-1.45-1.96
		c0.78-2.27,3.52-5.58,13.24-6.2c0,0,3.32,0.95,8.75-0.1C468.46,471.68,469.95,474.82,469.63,477.69z"/>
	<path class="st23" d="M452.68,477.16c-0.17,0-0.33-0.1-0.39-0.26c-0.79-1.9-2.19-2.47-2.25-2.49c-1.12-1.7,2.07-0.52,3.04,2.16
		C453.19,476.84,452.98,477.17,452.68,477.16z"/>
	<path class="st23" d="M455.99,476.72c-0.18,0-0.35-0.12-0.41-0.3c-0.71-2.2-2.64-3.2-2.66-3.21c-1.02-1.98,2.69,0.11,3.48,2.95
		C456.49,476.44,456.28,476.73,455.99,476.72z"/>
	<path class="st23" d="M459.77,476.22c-0.18,0-0.34-0.11-0.4-0.28c-0.82-2.28-2.68-3.51-2.7-3.53c-0.79-2.08,2.59,0.42,3.5,3.24
		C460.27,475.92,460.06,476.22,459.77,476.22z"/>
	<path class="st31" d="M446.49,477.94l23.14-0.25c-0.08,0.71-0.27,1.4-0.61,2.02l-21.09,0.23
		C446.89,479.95,446.13,478.92,446.49,477.94z"/>
	<path class="st6" d="M514.31,400.18c-10.28-0.43-28.19-6.09-35.92,6.99c-8.46,14.29-6.39,44.59-5.53,59.24
		c-11.29,3.63-17.36,0-17.36,0c-4.81-29.98-20.65-98.27,32.31-88.8c0,0,35.51,0,35.51,0C529.27,389.71,523.96,399.98,514.31,400.18z
		"/>
	<path class="st20" d="M473.18,479.93l20.89-0.23c-0.05-3.34-0.94-10.08-0.28-13.89c0,0-9.02,1.16-9.02,1.16
		c0.25,1.83,0.88,5.8-2.23,6.75c-3.94,1.2-8.22,0.85-10.68,3.88C471.23,478.62,471.98,479.94,473.18,479.93z"/>
	<path class="st25" d="M494.68,477.68c-0.08,0.71-0.27,1.4-0.61,2.02l-21.09,0.23c-1.03,0.01-1.78-0.99-1.45-1.96
		c0.78-2.27,3.52-5.58,13.24-6.2c0,0,3.32,0.95,8.75-0.1C493.51,471.68,495,474.82,494.68,477.68z"/>
	<path class="st23" d="M477.73,477.16c-0.17,0-0.33-0.1-0.39-0.26c-0.79-1.9-2.19-2.47-2.25-2.49c-1.12-1.7,2.07-0.52,3.04,2.16
		C478.24,476.84,478.03,477.17,477.73,477.16z"/>
	<path class="st23" d="M481.05,476.72c-0.18,0-0.35-0.12-0.41-0.3c-0.71-2.2-2.64-3.2-2.66-3.21c-1.02-1.98,2.69,0.11,3.48,2.95
		C481.54,476.43,481.33,476.73,481.05,476.72z"/>
	<path class="st23" d="M484.82,476.22c-0.18,0-0.34-0.11-0.4-0.28c-0.82-2.28-2.68-3.51-2.7-3.53c-0.79-2.08,2.59,0.42,3.5,3.24
		C485.32,475.92,485.11,476.22,484.82,476.22z"/>
	<path class="st31" d="M471.54,477.94l23.14-0.25c-0.08,0.71-0.27,1.4-0.61,2.02l-21.09,0.23
		C471.94,479.95,471.18,478.91,471.54,477.94z"/>
	<path class="st24" d="M490.7,377.6l-3.04,22.14c-13.28,5.23-14.17,19.57-15.38,35.3C466.13,410.75,466.6,385.81,490.7,377.6z"/>
	<path class="st6" d="M527.69,401.2c-10.76,6.62-21.51-0.6-29.07,14.67c-6.11,13.38-2.68,38.94-1.01,50.53
		c-11.29,3.63-17.36,0-17.36,0c-6.69-25.86-22-85.97,21.25-88.8c11.84-0.38,27.41-0.27,37.88-0.9
		C539.38,376.7,542.29,392.22,527.69,401.2z"/>
	<path class="st6" d="M539.59,370.58c0.92,6.55-0.41,14.17-0.41,14.17c-13.98-4.44-26.69-4.86-47.93-7.82
		c13.41-40.18-17.66-12.07,17.81-58.92c0.09,0.01,8.7,0.79,8.78,0.79C527.8,326.29,534.23,336.24,539.59,370.58z"/>
	<path class="st24" d="M490.94,346.66c-0.21,0-0.37-0.18-0.35-0.39c0.71-5.87,6.92-13.48,7.74-13.07c0.56,0.72-6.61,7.02-7.03,13.13
		C491.27,346.53,491.12,346.66,490.94,346.66z"/>
	<polygon class="st32" points="453.76,379.9 500.77,379.9 491.41,345.45 444.69,345.45 	"/>
	<rect x="453.76" y="379.73" class="st33" width="47" height="2.34"/>
	<polygon class="st34" points="490.7,345.45 492.38,345.45 501.55,379.73 523.86,379.73 523.86,382.07 499.99,382.07 499.99,379.98 
			"/>
	<path class="st20" d="M533.29,325.47c10.84,8.12,16.62,22.74,13.76,36.03c-1.1,7.47-5.81,14.57-13.18,16.68
		c-3.64,1.45-20.61,3.8-19.82-2.23c0.27-1.45,1.55-1.98,2.79-2.36c2.05-0.72,4.15-1.52,6.11-2.41c3.49-1.81,7.99-3.51,8.75-7.43
		c1.62-9.16-2.13-18.11-8.98-24.09c0.01,0.01-0.03-0.03,0.07,0.05C513.52,332.79,523.96,318.65,533.29,325.47z"/>
	<path class="st6" d="M539.78,376.54c-5.52,2.46-10.74,3.22-14.76,3.36c0,0,0.93-5.99-3.4-8.46c24.4-18.54-10.45-26.35-3.76-53.59
		C544.03,318.31,571.04,357.97,539.78,376.54z"/>
	<path class="st20" d="M503.7,379.73c0,0,2.09-7.32,14.59-6.48l2.62,6.48H503.7z"/>
	<path class="st24" d="M527.92,379.7c-1.79,0.2-2.9,0.2-2.9,0.2s0.93-5.99-3.4-8.46c0,0,1.07-0.69,2.46-1.92
		C524.08,369.52,528.83,373,527.92,379.7z"/>
	<path class="st24" d="M523.86,370.54c-0.32,0.01-0.48-0.42-0.23-0.62c10.83-9.65,5.53-19.87-0.92-26.49
		c-0.32-0.32,0.21-0.83,0.52-0.48C530.08,349.79,535.28,361.11,523.86,370.54z"/>
	<path class="st24" d="M527.69,379.74c-2.03-1.18,5.69-0.59,11.56-3.37c0.18-0.07,0.39,0.01,0.46,0.19
		c0.07,0.18-0.01,0.39-0.19,0.46C533.46,379.52,527.77,379.74,527.69,379.74z"/>
	<path class="st35" d="M520.28,328.81c-0.25,1.87-2.04,2.46-2.49,2.36c-6.29-2.69-1.82,5.8-4.41,6.67
		c-2.18,0.73-2.44-2.11-4.33-2.27c-2.76-0.23-3.32,1.27-4.28,0.36c-1.35-1.27,1.91-3.49,1.5-5.76c-0.29-1.6-3.47,0.01-3.42-3.28
		c0.05-3.23,3.74-8.06,3.86-8.21c0,0,0,0,0,0c2.32-1.3,7.38-0.71,9.68-0.68c0.04-0.23,1.48-0.16,1.48-0.16s1.01-0.22,1.99,0.15
		C520.33,320.61,520.78,326,520.28,328.81z"/>
	<path class="st20" d="M509.27,314.88l-0.21,3.12c0,0-0.29,3-0.29,8.58c0,7.85,1.94,6.93,4.63,1.45c1.48-3.01,4.48-9.95,4.48-9.95
		s-0.01-2.05,0.15-3.31L509.27,314.88z"/>
	<path class="st30" d="M519.72,305.95c-0.04,0.15-0.08,0.3-0.13,0.44c-0.19-0.15-1.26,5.04-1.65,9c-3.75,2.2-8.1,1.91-8.84,1.68
		c0.2-5.86,0.69-14.63,5.2-16.26C517.34,299.85,520.54,302.83,519.72,305.95z"/>
	<path class="st28" d="M508.35,286.65c-11.34-1.36-13.13,16.53-5.43,23.12L508.35,286.65z"/>
	<path class="st20" d="M521.71,299.26c0.55,3.91,0.58,8.49-1.6,11.86l0,0c-5.96,9.75-25.7,3.47-20.29-8.1
		c0.79-1.48,1.24-3.27,1.3-4.79C501.3,282.25,520.13,285.6,521.71,299.26z"/>
	<path class="st29" d="M506.8,301.34c-0.54-0.54,0.32-1.38,0.85-0.82C508.19,301.06,507.32,301.89,506.8,301.34z"/>
	<path class="st29" d="M501.82,302c-0.54-0.54,0.32-1.38,0.85-0.82C503.2,301.72,502.34,302.56,501.82,302z"/>
	<path class="st29" d="M504.78,306.43c-1,0.16-2.44-0.1-1.5-1.3c0.89-0.9,0.99-3.35,0.99-3.38c0.01-0.29,0.46-0.27,0.45,0.02
		c0,0.11-0.11,2.65-1.12,3.67c-0.11,0.12-0.23,0.28-0.15,0.38c0.24,0.28,1.36,0.33,2-0.12c0.1-0.07,0.24-0.05,0.31,0.06
		C505.94,306.22,505.13,306.32,504.78,306.43z"/>
	<path class="st30" d="M521.71,299.26c0.55,3.91,0.58,8.49-1.6,11.86l0,0c1.01-2.53,0.63-7.37,0.63-7.37l-1.39-1.78
		c-14.21-0.19-16.3-10.91-16.3-10.91C509.29,282.67,520.97,290.25,521.71,299.26z"/>
	<path class="st28" d="M504.14,289.72c0,0,2.11,10.56,14.98,11.2l3.45-3.57C524.16,288.15,513.23,278.74,504.14,289.72z"/>
	<path class="st20" d="M524.66,300.41c0.46,4.47-5.19,4.98-5.55,0.5C518.65,296.44,524.3,295.93,524.66,300.41z"/>
	<path class="st29" d="M523.33,299.25C523.33,299.25,523.33,299.25,523.33,299.25c-0.58-1.77-3.99,0.12-2.53,0.19
		c0.01-0.08,1.52-0.98,1.99-0.2c-1.49,0.7-1.98,3.48-1.12,2.58c0-0.02,0.18-1.6,1.35-2.19
		C523.59,303.66,524.12,300.86,523.33,299.25z"/>
	<path class="st35" d="M522.93,303.08c0.2,0.62-0.78,0.92-0.96,0.29C521.77,302.76,522.74,302.45,522.93,303.08z"/>
	<path class="st24" d="M508.76,339.89c0.02,1.29-2.01,1.29-2,0C506.75,338.59,508.78,338.59,508.76,339.89z"/>
	<path class="st24" d="M506.8,346.92c0.02,1.29-2.01,1.29-2,0C504.79,345.62,506.82,345.62,506.8,346.92z"/>
	<path class="st24" d="M506.8,353.24c0.02,1.29-2.01,1.29-2,0C504.79,351.94,506.82,351.94,506.8,353.24z"/>
	<path class="st24" d="M472.51,461.37c0.18,3.14,0.35,5.03,0.35,5.03c-11.29,3.63-17.36,0-17.36,0s-0.32-1.57-0.8-4.29
		C454.83,462.18,461.93,465.67,472.51,461.37z"/>
	<path class="st24" d="M497.61,466.4c-11.29,3.63-17.36,0-17.36,0s-0.41-1.45-1.05-3.96c0,0,6.26,3.24,17.82,0
		C497.36,464.92,497.61,466.4,497.61,466.4z"/>
	<path class="st30" d="M504.39,379.66c-2.22,0.07,5.86-5.48,8.27-4.12c0.02,0.2-0.12,0.37-0.32,0.39
		C507.79,376.4,504.77,379.64,504.39,379.66z"/>
	<path class="st30" d="M507.81,379.78c-1.69-0.72,3.55-1.95,6.14-2.65c0.19-0.04,0.38,0.08,0.42,0.28c0.04,0.19-0.08,0.38-0.28,0.42
		C511.33,378.39,508.09,379.75,507.81,379.78z"/>
	<path class="st29" d="M508.65,299.53c-0.05,0-0.11-0.02-0.16-0.05c-1.42-1.11-2.71-0.75-2.76-0.73c-0.13,0.04-0.27-0.04-0.31-0.17
		c-0.04-0.13,0.04-0.27,0.17-0.31c0.06-0.02,1.59-0.46,3.22,0.82c0.11,0.09,0.13,0.25,0.04,0.35
		C508.8,299.49,508.72,299.53,508.65,299.53z"/>
	<path class="st29" d="M501.23,300.14c-0.05,0-0.1-0.01-0.14-0.04c-0.12-0.08-0.15-0.24-0.07-0.35c0.03-0.05,0.82-1.2,2.13-1.15
		c0.14,0.01,0.25,0.12,0.24,0.26s-0.12,0.25-0.26,0.24c-1.03-0.03-1.69,0.92-1.7,0.93C501.39,300.1,501.31,300.14,501.23,300.14z"/>
	<path class="st29" d="M506.69,308.82c-0.33,0-0.62-0.12-0.8-0.36c-0.39-0.51-0.13-1.34,0.59-1.9c0.72-0.56,1.6-0.6,1.99-0.09
		c0,0,0,0,0,0c0.39,0.51,0.13,1.34-0.59,1.9C507.49,308.67,507.06,308.82,506.69,308.82z M507.65,306.62c-0.25,0-0.57,0.1-0.87,0.34
		c-0.52,0.41-0.68,0.95-0.5,1.19c0.18,0.24,0.76,0.22,1.28-0.18c0.52-0.41,0.68-0.95,0.5-1.19l0,0
		C507.98,306.68,507.84,306.62,507.65,306.62z"/>
</g>
<g id="_x31_">
	<path class="st25" d="M911.36,705.6c-0.42,0.22,5.18,0.17,4.82,0.59c-11.79,10.2-29.38,13.42-42.43,3.49v-0.01
		c-3.88-2.84-7.81-7.41-10.54-12.2l3.2-5.2c25.45,15.7,35.52-11.09,56.22-13.18l-4.14,6.05L911.36,705.6z"/>
	<path class="st20" d="M939.62,885.04l0.39-0.2c0,0.27,0.34,1.22,0.61,1.22l11.48,0.24c0.27,0,0.44-0.51,0.44-0.78l0.98-0.28
		c0-1.72-0.14-2.34-0.9-3.67c-2.79-3.71,0.54-20.3,0.44-24.64c0.69-1.19-12.09-0.26-12.27-0.54c-0.29,0-0.51,0.25-0.49,0.53
		l1.5,18.96C942.48,879.47,939.71,881.65,939.62,885.04z"/>
	<path class="st20" d="M889.84,886.69h22.87c2-0.08,1.98-2.12,1.61-3.7c-1.26-5.69,0.97-18.76,1.38-24.62c0.11-1.07-0.73-2-1.81-2
		H903.8c-1.09,0-1.94,0.96-1.8,2.04l1.84,14.64c1,6.36-6.59,7.57-10.91,8.27C890.08,881.54,885.31,885.43,889.84,886.69z"/>
	<path class="st6" d="M915.2,884.32c-0.06,1.12-0.62,2.4-1.92,2.37c0,0-23.72,0-23.72,0c-5.6-2.08,2.79-9.5,13.74-9.46
		C911.09,879.37,915.46,873.3,915.2,884.32z"/>
	<path class="st6" d="M951.7,886.69h-10.14c-4.94-0.67-1.38-10.16,5.07-9.47C953.09,876.4,956.63,886.03,951.7,886.69z"/>
	<path class="st24" d="M887.9,884.32h27.3c-0.1,0.83-0.33,1.64-0.75,2.37h-24.89C888.33,886.69,887.46,885.46,887.9,884.32z"/>
	<path class="st24" d="M951.7,886.69h-10.14c-1.29,0-2.33-1.09-2.25-2.37h14.64C954.02,885.61,952.99,886.69,951.7,886.69z"/>
	<path class="st25" d="M919.46,653c0,0-0.12-7.41,6.58-8.73l3.51,3.64L919.46,653z"/>
	<path class="st8" d="M954.66,873.75c0,0-10.81,2.63-16.39-0.2c-2.9-18.19-10.95-68.82-13.75-103.52c-0.11,2.02-6,83.62-7.12,103.52
		c-3.85,1.29-11.58,2.84-15.91-0.28c-1.94-20.95-8.19-89.91,1.22-146.23c0,0,25.77,2.87,45.9-3.22
		C954.15,741.7,955.61,852.31,954.66,873.75z"/>
	<path class="st36" d="M954.54,869.63c-3.09,0.69-5.95,0.93-8.41,0.95c-1.13-61.5-10.23-119.49-11.61-119.71
		c-1.03,0.77,7.9,58.1,11.57,119.71c-5.1,0.02-8.45-0.95-8.45-0.95c0.4,2.52,0.63,3.93,0.63,3.93c5.57,2.82,16.39,0.2,16.39,0.2
		C954.62,873.55,954.58,872.09,954.54,869.63z"/>
	<path class="st36" d="M917.4,873.56c-0.09-1.75,7.12-103.52,7.12-103.52s-3.4,1.82-4.21,12.62c-0.7,9.4-4.9,71.83-5.99,87.98
		c-3.36,0.75-6.39,0.61-8.69,0.24c-2.57-59.91,3.45-111.31,2.54-111.93c-1.58,0.13-7.64,51.98-2.57,111.92
		c-2.75-0.45-4.47-1.24-4.47-1.24c0.22,2.37,0.36,3.65,0.36,3.65c3.55,2.55,9.38,1.97,13.48,0.97c1.04-0.24,1.83-0.5,2.2-0.62
		C917.25,873.61,917.33,873.58,917.4,873.56z"/>
	<path class="st20" d="M922.45,678.89c-0.56-4.9,0.21-11.98,0.89-14.89c1.23-5.74,10.34-3.52,8.83,2.12
		c-0.29-0.18-1.23,10.22-0.58,13.11C940.12,681.8,914.42,690.23,922.45,678.89z"/>
	<path class="st30" d="M932.25,665.65c-0.02,0.16-0.05,0.32-0.09,0.47c-0.21-0.14-0.8,5.6-0.81,9.77c-3.92,1.78-8.28,1-9.08,0.83
		c-0.09-5.28,0.4-10.09,1.17-13.11C925.03,658.51,933.06,660.37,932.25,665.65z"/>
	<path class="st20" d="M938.32,663.51c-1.3,3.92-3.39,8.24-7,10.4l-0.01,0c-1.47,0.86-3.13,1.29-4.84,1.35
		c-9.64,1.3-19.14-11.82-10.46-18.36c1.43-1.02,2.68-2.5,3.44-3.9C927.19,638.09,943.04,649.79,938.32,663.51z"/>
	<path class="st37" d="M918.2,665.06l5.71-1.85C923.94,666.44,920.12,668,918.2,665.06z"/>
	<path class="st21" d="M905.72,699.64l-3.97,14.56c-8.5,2.61-17.56,2.02-25.56-2.89c8.79,4.96,20.87,2.16,22.78-0.75
		C900.97,707.47,905.45,700.08,905.72,699.64z"/>
	<path class="st25" d="M952.36,748.15c-0.92,1.12-1.9,2.24-2.94,3.37c0,0-5.06,0.95-9.03-4.32c16.17-34.28-15.05-37.48-8.81-67.96
		C952.44,681.7,981.45,712.83,952.36,748.15z"/>
	<path class="st29" d="M923.35,658.56c-0.26-0.76,0.94-1.14,1.18-0.38C924.78,658.94,923.58,659.32,923.35,658.56z"/>
	<path class="st29" d="M918.36,656.87c-0.26-0.76,0.94-1.14,1.18-0.38C919.79,657.25,918.6,657.64,918.36,656.87z"/>
	<path class="st30" d="M938.32,663.51c-1.3,3.92-3.39,8.24-7,10.4l-0.01,0c-0.3,0.18-0.61,0.34-0.93,0.48
		c2.81-2.01,5.04-6.94,5.04-6.94l0.13-4.46c-3.27-4.59-0.87-8.77-0.87-8.77c-6.83,0.78-8.38-3.6-8.38-3.6
		c-2.11-0.07-4.11-1.46-4.11-1.46C931.59,639.73,942.39,653.19,938.32,663.51z"/>
	<path class="st29" d="M918.2,665.29c0.13-0.15,6.23-1.71,5.94-2.15c0.12-0.57-5.89,1.78-6.01,1.7
		C917.87,664.91,917.94,665.3,918.2,665.29z"/>
	<path class="st29" d="M919.85,662.52c0.4,0.12,0.74-0.44,0.22-0.48c-0.82,0.15-2.62-0.69-1.63-1.1c1.42-0.48,3.64-3.74,2.34-3.15
		c-0.01,0.02-1.24,2.27-2.49,2.71C916.58,661.34,918.66,662.52,919.85,662.52z"/>
	<path class="st21" d="M952.36,748.15c-0.92,1.12-1.9,2.24-2.94,3.37c0,0-5.16,0.72-9.12-4.55c0.58-1.42,1.23-2.33,1.72-3.74
		C942.02,743.22,945.08,746.65,952.36,748.15z"/>
	<path class="st36" d="M949.78,752.19c1.09,0.33,2.24-0.97,0.76-1.34c-8.02,0.35-10.16-4.95-10.25-5.17
		C936.81,743.72,941.08,752.68,949.78,752.19z"/>
	<path class="st35" d="M898.96,751.26c0,0,1.57,6.75,14.17,10.08c3.61,0.95,5.69,0.48,6.22-2.02c0.27-1.26,0.95-3.44,2.21-4.25
		c0,0,2.82,1.22,3.88,2.94c2.33,3.79,5.85,0.35,7.56-3.62c2.12-4.9,7.47-9.05,8.65-13.17L898.96,751.26z"/>
	<path class="st25" d="M950.29,742.91c-0.41,0.73-0.66,0.61-1.07,0.19c-11.32-8.45-15.37,10.02-27.56,10.35
		c-12.41,1.23-19.32,1.93-22.7-2.19c-5.9-9.15,3.49-50.05,11.08-59.95c3.33-5.15,9.23-9.74,12.4-12.41
		c-0.07,0.27-1.76,7.3,9.13,0.34c0.55,0.23,4,3.6,3.78,5.4C935.91,692.92,955.56,733.61,950.29,742.91z"/>
	<path class="st25" d="M918.87,642.43c0,0,3.19-0.88,6.47,0.41c0.38-1.24,1.14-2.39,2.38-3.29c0.53,1.51,1.29,2.96,2.16,4.31
		c0.3-2.84,2.04-5.14,2.04-5.14c0.47,2.72,4.22,4.67,5.99,7.61l0.1-0.14c0,0,9.92,3.57,2.77,12.36l0,0
		c-0.29,3.25-1.88,6.55-1.88,6.55c-5.26-4.8-4.12-10.57-1.74-12.07c-4.28,1.52-8.1-0.28-10.26-3.13
		C923.71,649.38,919.82,647.64,918.87,642.43z"/>
	<path class="st21" d="M943.74,745.51l-2.48-0.52c9.92-22.33-1.75-31.77-7.92-44.35C947.65,717.2,949.82,726.28,943.74,745.51z"/>
	<path class="st20" d="M940.55,665.96c-1.64,4.41-7.18,2.28-5.44-2.1C936.75,659.45,942.29,661.58,940.55,665.96z"/>
	<path class="st29" d="M938.98,666.67c1.01-1.06,1.01-2.84,0.55-3.34c-0.84-0.86-2.44-0.76-2.44-0.26c0.21,0.51,1.3-0.32,2.07,0.55
		C940,664.28,938.33,666.4,938.98,666.67z"/>
	<path class="st29" d="M936.88,666c0.36-0.03,0.94-1.64,2.7-1.54c0.13,0.01,0.24-0.08,0.25-0.21
		C938.69,663.09,935.84,666.03,936.88,666z"/>
	<path class="st35" d="M934.93,679.83c0.06,4.15-10.6,7.82-11.2,7.83l-1.28-3.78c-1.64,0.4-3.08,2.7-3.08,2.7
		c-4.73-4.5-0.28-8.43,3.08-7.69c0,0,0,0,0,0.01c-0.07,0.27-0.81,6.43,9.09,0.12C932.81,678.43,934.93,679.83,934.93,679.83z"/>
	<path class="st21" d="M869.23,693.75c-0.01,3.32-4.53,6.12-4.53,6.12c-0.51-0.77-1.01-1.57-1.49-2.4l3.2-5.2
		C867.39,692.81,868.32,693.3,869.23,693.75z"/>
	<path class="st20" d="M861.71,682.93c-1.24,0.8,0.79,3.25,0.64,4.59c-2.06-0.94-3.86-2.48-3.87-2.47
		c-1.76-2.17-3.41-4.44-4.95-6.78c-3.8-1.74,2.23,6.86,2.68,7.92c-0.01,0.01-0.02,0.02-0.03,0.03c-2.28-1.84-4.47-3.81-6.47-5.95
		c-4.27-0.89,4.34,6.97,5.13,7.91c0,0.01-0.01,0.01-0.01,0.02c-2.44-1.37-4.71-3.04-6.78-4.93c-4.38-0.52,4.98,6.8,6.02,7.45
		c0,0.01,0,0.02-0.01,0.03c-1.86-0.25-5.67-3.68-6.9-2.85c-1.16,1.88,11.37,8.63,15.77,9.48c1.58,0.43,3.86-3.54,3.48-5.1
		c-0.36-1.47-1.37-3.26-1.72-3.92C864.14,686.83,863.53,683.05,861.71,682.93z"/>
	<path class="st31" d="M873.74,709.64c0.13,0.1,0.26,0.2,0.39,0.32c-0.13-0.1-0.25-0.19-0.37-0.27v-0.01
		C873.74,709.65,873.74,709.64,873.74,709.64z"/>
	<path class="st29" d="M926.69,658.4c-0.12,0-0.23-0.08-0.26-0.2c-0.02-0.07-0.47-1.7-2.96-2.55c-0.14-0.05-0.22-0.2-0.17-0.34
		c0.05-0.14,0.2-0.22,0.34-0.17c2.78,0.95,3.28,2.84,3.3,2.92c0.04,0.14-0.05,0.29-0.19,0.33
		C926.73,658.39,926.71,658.4,926.69,658.4z"/>
	<path class="st29" d="M918.64,654.93c-0.08,0-0.15-0.03-0.2-0.09c-0.1-0.11-0.08-0.28,0.03-0.38c1.34-1.14,3.17-0.23,3.24-0.19
		c0.13,0.07,0.18,0.23,0.12,0.36c-0.07,0.13-0.23,0.19-0.36,0.12c-0.02-0.01-1.59-0.79-2.65,0.12
		C918.76,654.91,918.7,654.93,918.64,654.93z"/>
</g>
</svg>
