<svg width="198" height="40" id="Layer_1" data-name="Layer 1" xmlns="http://www.w3.org/2000/svg" viewBox="0 0 195 37"><defs><style>.cls-1{fill:#1b968d;}.cls-2{fill:#1db2a6;}.cls-3{fill:#18877b;}.cls-4{fill:#62c4bb;}</style></defs><title>DARZEM</title><path class="cls-1" d="M73.43,28.21c0-3.64,2.41-6.22,5.81-6.22a5.94,5.94,0,0,1,2.49.53V16.45H85V33.92H83.08l-.32-.77a5.86,5.86,0,0,1-9.33-4.94Zm8.3,0c0-2.05-1-3.28-2.49-3.28s-2.53,1.23-2.53,3.28,1,3.13,2.53,3.13S81.73,30.19,81.73,28.21Z"/><path class="cls-1" d="M87.44,28.23c0-3.66,2.31-6.24,5.64-6.24s5.62,2.58,5.62,6.24a8.31,8.31,0,0,1-.07.87h-8a2.39,2.39,0,0,0,2.43,2.24c1.42,0,2.22-.38,2.73-1.39l2.45,1.42a5.53,5.53,0,0,1-5.18,2.92C89.75,34.29,87.44,31.78,87.44,28.23Zm7.91-1.54a2.33,2.33,0,0,0-2.27-1.76,2.36,2.36,0,0,0-2.29,1.76Z"/><path class="cls-1" d="M101.18,22.35h1.93l.36.85A6.1,6.1,0,0,1,107.11,22a10.2,10.2,0,0,1,1.23.1v3a4,4,0,0,0-1.23-.15,2.75,2.75,0,0,0-2.65,2.8v6.19h-3.28Z"/><path class="cls-1" d="M110.1,31.9,115,25.63H110.2V22.35h10v2l-4.92,6.27h4.92v3.27H110.1Z"/><path class="cls-1" d="M122.18,30.6c0-2.17,1.76-3.52,4.53-3.52h2V26.6c0-1-.12-1.67-1.33-1.67a3.75,3.75,0,0,0-3.06,1.33l-1.83-2A6,6,0,0,1,127.43,22c3,0,4.46,1.37,4.61,4.61v7.32h-1.93l-.24-.6a6,6,0,0,1-3.38,1C124,34.29,122.18,32.89,122.18,30.6Zm6.58-1.11h-2.07c-1.33,0-1.6.46-1.6,1.11,0,.82.27,1.28,1.38,1.28S128.73,31.39,128.76,29.49Z"/><path class="cls-1" d="M135.12,22.35h1.93l.27.65a5.7,5.7,0,0,1,7.06.46A5.4,5.4,0,0,1,148.19,22a5.35,5.35,0,0,1,5.45,5.64v6.29h-3.28V27.63c0-1.66-.84-2.7-2.17-2.7S146,26,146,27.63v6.29h-3.28V27.63c0-1.66-.84-2.7-2.17-2.7s-2.17,1-2.17,2.7v6.29h-3.28Z"/><path class="cls-1" d="M70.58,12.09A17.65,17.65,0,0,0,62.8,3.7,16.72,16.72,0,0,0,57.3,2H39.54l8.71,8.63h8.42a7.12,7.12,0,0,1,3.9,1.7,7,7,0,0,1,2,3,7.36,7.36,0,0,1,.4,3.57,7.64,7.64,0,0,1-2.11,4.25,6.5,6.5,0,0,1-4.22,2.26l-5.92.13,8.44,8.37A16.8,16.8,0,0,0,67,29.39a16.42,16.42,0,0,0,3.58-17.3Z"/><path class="cls-2" d="M39.54,14.4V2L60.89,23.16a6.51,6.51,0,0,1-4.22,2.26l-5.92.13Z"/><polygon class="cls-2" points="39.54 21.86 51.76 34.24 39.54 34.24 39.54 21.86"/><path class="cls-3" d="M50.75,25.55l5.92-.13a6.92,6.92,0,0,0,4.22-2.26l-.47-.47s-.9,1.66-3.88,2.15l-6.25.25Z"/><polygon class="cls-4" points="40.99 2 49.59 10.63 48.25 10.63 39.54 2 40.99 2"/></svg>