<?xml version="1.0" encoding="utf-8"?>
<!-- Generator: Adobe Illustrator 24.3.0, SVG Export Plug-In . SVG Version: 6.00 Build 0)  -->
<svg version="1.1" id="Layer_1" xmlns="http://www.w3.org/2000/svg" xmlns:xlink="http://www.w3.org/1999/xlink" x="0px" y="0px"
	 viewBox="0 0 1080 1080" style="enable-background:new 0 0 1080 1080;" xml:space="preserve">
<style type="text/css">
	.st0{fill:#CAE1F9;}
	.st1{opacity:0.2;fill:#9BC1F9;}
	.st2{fill:#3C8F7C;}
	.st3{fill:#50BFA5;}
	.st4{fill:#96D9C9;}
	.st5{fill:#256653;}
	.st6{fill:#327F6B;}
	.st7{fill:#1B968D;}
	.st8{fill:#62C4BB;}
	.st9{fill:#1DB2A6;}
	.st10{fill:#FCF5EB;}
	.st11{fill:#198478;}
	.st12{fill:#184655;}
	.st13{fill:#12353D;}
	.st14{fill:#F7A491;}
	.st15{fill:#F7CC7F;}
	.st16{fill:#F47458;}
	.st17{fill:#E25A44;}
	.st18{fill:#355389;}
	.st19{fill:#466EB6;}
	.st20{fill:#FFFFFF;}
	.st21{fill:#F79C8D;}
	.st22{fill:#F48C7F;}
	.st23{fill:#3CB4C5;}
	.st24{fill:#F8A492;}
	.st25{fill:#FE875E;}
	.st26{fill:#13375B;}
	.st27{fill:#0E2E35;}
	.st28{fill:#EAB765;}
</style>
<g>
	<path class="st0" d="M471.1,492.69c-7.44-4.95-15.05-9.63-22.38-14.72c-1.34-0.93-2.53-3.33-2.39-4.92
		c0.89-10.31,2.37-20.56,3.19-30.87c0.24-3,0.91-4.58,3.78-5.72c10.11-4.03,20.11-8.33,30.14-12.54c1.63-0.68,3.23-1.42,6.04-2.66
		c-4.91-15.41-9.76-30.65-14.74-46.28c-12.94,2.66-24.74,4.88-36.43,7.59c-4.12,0.95-6.37,0.49-9.06-3.32
		c-5.48-7.78-12.05-14.8-17.95-22.31c-0.9-1.15-1.3-3.48-0.79-4.84c3.91-10.33,7.81-20.68,12.33-30.74
		c2.17-4.83,1.06-7.41-3.27-9.62c-1.66-0.85-3.02-2.3-4.52-3.48c-7.47-3.95-14.94-7.91-22.41-11.86c-0.94-0.18-1.93-0.21-2.8-0.56
		c-9.11-3.65-7.36-3.59-12.46,4.02c-6.22,9.28-12.29,18.66-17.61,26.77c-13.92-1.21-26.93-2.34-40.37-3.5
		c-5.17-12.31-10.56-25.16-16-38.11c-16.37,2.31-31.4,7.58-46.13,14.68c2.64,12.72,5.18,25.13,7.82,37.52
		c0.47,2.22,0.35,3.57-1.83,5.22c-8.5,6.45-16.85,13.12-24.89,20.14c-2.32,2.02-3.82,2.04-6.32,1.01
		c-10.36-4.28-20.82-8.31-31.2-12.54c-2.58-1.05-4.24-0.96-6.13,1.57c-8.47,11.34-14.21,24-18.89,37.23
		c-0.93,2.62,0.34,3.74,2.32,5.01c9.17,5.87,18.2,11.97,27.4,17.77c2.65,1.67,3.47,3.12,2.97,6.54c-1.74,11.81-2.8,23.72-4.23,36.54
		c-11.19,4.7-23.88,10.02-36.57,15.35c2.29,16.69,6.87,32.11,14.37,46.8c13.87-2.95,27.36-5.81,39.58-8.41
		c7.69,8.74,14.63,17.06,22.08,24.89c2.81,2.96,3.33,5.2,1.72,8.89c-4.29,9.83-8.19,19.82-12.15,29.79
		c-0.78,1.97-2.33,4.27,0.75,5.87c12.52,6.5,25.03,13.02,37.55,19.52c2.66,1.38,4.33,0.48,5.92-2.03
		c5.91-9.33,12.23-18.41,17.98-27.84c2.22-3.64,4.63-3.79,8.39-3.31c9.29,1.19,18.66,2.19,28.01,2.34c4.03,0.06,5.51,1.11,6.9,4.68
		c4.45,11.49,9.35,22.8,13.98,33.94c9.99-0.07,37.14-8.78,46.91-14.94c-2.65-12.24-5.2-24.65-8.1-36.97
		c-0.72-3.08,0.18-4.42,2.53-6.29c7.58-6.05,14.74-12.63,22.26-18.76c1.27-1.03,3.85-1.61,5.3-1.05c9.25,3.55,18.38,7.42,27.5,11.29
		c5.1,2.16,7.15,3.06,9.09,1.74l21.04-39.77C479.34,498.2,477.12,496.69,471.1,492.69z M391.82,479.32
		c-18.81,35.55-62.87,49.12-98.42,30.31h0c-35.55-18.81-49.12-62.87-30.31-98.42l0,0c18.81-35.55,62.87-49.12,98.42-30.31h0
		C397.06,399.71,410.63,443.78,391.82,479.32L391.82,479.32z"/>
	<path class="st1" d="M769.41,441.89c-2.73-1.82-5.52-3.54-8.22-5.4c-0.49-0.34-0.93-1.22-0.88-1.81c0.33-3.78,0.87-7.55,1.17-11.33
		c0.09-1.1,0.33-1.68,1.39-2.1c3.71-1.48,7.38-3.06,11.07-4.6c0.6-0.25,1.19-0.52,2.22-0.98c-1.8-5.66-3.58-11.25-5.41-16.99
		c-4.75,0.98-9.08,1.79-13.37,2.79c-1.51,0.35-2.34,0.18-3.32-1.22c-2.01-2.86-4.42-5.43-6.59-8.19c-0.33-0.42-0.48-1.28-0.29-1.78
		c1.43-3.79,2.87-7.59,4.53-11.28c0.8-1.77,0.39-2.72-1.2-3.53c-0.61-0.31-1.11-0.84-1.66-1.28c-2.74-1.45-5.48-2.9-8.23-4.35
		c-0.34-0.07-0.71-0.08-1.03-0.21c-3.34-1.34-2.7-1.32-4.58,1.48c-2.28,3.41-4.51,6.85-6.47,9.83c-5.11-0.44-9.89-0.86-14.82-1.28
		c-1.9-4.52-3.88-9.24-5.87-13.99c-6.01,0.85-11.53,2.78-16.93,5.39c0.97,4.67,1.9,9.23,2.87,13.77c0.17,0.82,0.13,1.31-0.67,1.92
		c-3.12,2.37-6.19,4.82-9.14,7.39c-0.85,0.74-1.4,0.75-2.32,0.37c-3.8-1.57-7.64-3.05-11.45-4.6c-0.95-0.39-1.56-0.35-2.25,0.57
		c-3.11,4.16-5.21,8.81-6.94,13.67c-0.34,0.96,0.12,1.37,0.85,1.84c3.37,2.16,6.68,4.39,10.06,6.52c0.97,0.61,1.27,1.15,1.09,2.4
		c-0.64,4.33-1.03,8.71-1.55,13.41c-4.11,1.72-8.76,3.68-13.42,5.63c0.84,6.12,2.52,11.79,5.27,17.18
		c5.09-1.08,10.04-2.13,14.53-3.09c2.82,3.21,5.37,6.26,8.1,9.14c1.03,1.09,1.22,1.91,0.63,3.26c-1.57,3.61-3.01,7.28-4.46,10.94
		c-0.29,0.72-0.86,1.57,0.27,2.15c4.6,2.39,9.19,4.78,13.78,7.16c0.98,0.51,1.59,0.18,2.17-0.75c2.17-3.43,4.49-6.76,6.6-10.22
		c0.81-1.34,1.7-1.39,3.08-1.22c3.41,0.44,6.85,0.8,10.28,0.86c1.48,0.02,2.02,0.41,2.53,1.72c1.63,4.22,3.43,8.37,5.13,12.46
		c3.67-0.03,13.63-3.22,17.22-5.48c-0.97-4.49-1.91-9.05-2.97-13.57c-0.27-1.13,0.07-1.62,0.93-2.31c2.78-2.22,5.41-4.64,8.17-6.89
		c0.46-0.38,1.41-0.59,1.95-0.39c3.4,1.3,6.75,2.72,10.1,4.15c1.87,0.79,2.63,1.12,3.34,0.64l7.72-14.6
		C772.44,443.91,771.62,443.36,769.41,441.89z M740.31,436.98c-6.9,13.05-23.08,18.03-36.13,11.13l0,0
		c-13.05-6.9-18.03-23.08-11.13-36.13l0,0c6.9-13.05,23.08-18.03,36.13-11.13l0,0C742.24,407.76,747.22,423.94,740.31,436.98
		L740.31,436.98z"/>
	<g>
		<g>
			<path class="st2" d="M296.65,947.78c0,0-139.68-68.87-163.7-104.79c-24.02-35.92,11.29-37.96,11.29-37.96
				s-62.33-60.62-53.56-86.14c8.77-25.52,41.06-2.12,41.06-2.12s-40.08-89.22-21.18-98.19c35.2-16.71,84.58,79.29,84.58,79.29
				s-10.61-41.7,13.63-40.35c36.56,2.04,35.05,96.38,35.05,96.38s4.13-36.17,26.16-24.42C309.49,750.56,296.65,947.78,296.65,947.78
				z"/>
		</g>
		<path class="st3" d="M277.92,714.89c-17.2-9.55-34.34,18.36-34.34,18.36s1.74-73.68-34.82-75.72
			c-24.24-1.36-13.63,40.35-13.63,40.35s-49.38-96-84.58-79.29l186.26,327.67C298.12,923.37,312,733.81,277.92,714.89z"/>
	</g>
	<g>
		<g>
			<path class="st2" d="M293.04,948.64c0,0-114.24,14.19-143.82,1.54c-29.58-12.64-8.38-28.26-8.38-28.26s-63.51-12.48-68.41-31.97
				c-4.9-19.48,24.4-17.93,24.4-17.93s-60.9-39.44-52.76-52.71c15.17-24.72,84.97,15.09,84.97,15.09s-23.56-21.7-7.89-30.7
				c23.63-13.58,61.02,45.87,61.02,45.87s-2.32-14.65,16.19-16.28C231.58,830.38,293.04,948.64,293.04,948.64z"/>
		</g>
		<path class="st3" d="M199.11,822.64c-18.52,1.62-16.94,26.93-16.94,26.93s-38.07-70.47-61.7-56.89c-15.67,9,2.87,38.58,2.87,38.58
			s-64.11-36.66-79.27-11.94L293.38,948C284.91,933.2,230.14,819.92,199.11,822.64z"/>
	</g>
	<path class="st3" d="M949.94,781.8l6.14-14.83c4.76-10.91,16.94-16.11,27.21-11.63l0,0c25.87,11.29,37.12,42.73,25.12,70.22
		l-8.77,20.09c-3.84,8.8-2.5,18.49,2.68,25.32c4.71,6.2,5.48,14.82,2.21,22.3l-4.62,10.59c-5.01,11.47-14.75,19.96-26.3,23.47
		c-6.76,2.05-12.72,7.12-15.88,14.35l-6.55,15c-7.24,16.58-25.76,24.5-41.37,17.69l-8.91-3.89c-15.61-6.81-22.4-25.78-15.16-42.37
		l0,0c11.71-19.83,10.77-34.63,6.62-44.67c-6.1-14.76-6.03-31.74,0.57-46.86l0.93-2.12c6.96-15.95,20.41-27.86,36.43-32.97
		C937.35,799.25,944.72,793.75,949.94,781.8z"/>
	<path class="st4" d="M545.73,1074.73c-16.58-21.5-107.51-136.68-166.8-155.87c-65.45-21.19-3.76,62.96-3.76,62.96
		s-116.1-126.95-158.7-115.51c-39.05,10.49,0,89.18,0,89.18s-43.99-43.57-97.33-43.57c-51.91,0,36.27,154.54,41.03,162.81H545.73z"
		/>
	<g>
		<path class="st5" d="M1035.53,613.62c0,0-16.74,21.61-26.59,30.09c-9.85,8.48-19.25,16.6-31.81,43.57
			c-12.56,26.98-12.2,30.06-15.54,37.01c-3.34,6.95-20.87,34.16-22.19,39.58c-1.33,5.43-29.95,31.43-38.81,44.66
			c-8.86,13.23-23.39,31.68-25.3,42.35l2.59-0.05c0,0,7.71-24.13,30.42-45.04c22.71-20.91,21.38-26.17,43.57-34.47
			c22.2-8.3,42.81-40.68,42.81-40.68s28.47-33.76,32.19-53.88C1030.58,656.64,1039.95,639.89,1035.53,613.62z"/>
		<path class="st5" d="M1018.15,570.36c0,0-4.34,15.74-11.66,23.99c-7.32,8.25-13.07,12.96-16.38,22.95
			c-3.31,10-12.65,35.58-29.93,45.11c-17.28,9.53-28.07,47.63-41.66,56.75c-13.59,9.12-16.96,17.17-19.6,37.62
			c-2.64,20.45-2.25,49.74-26.44,82.22l-1.48-9.82c0,0,18.21-27.12,19.52-45.17c1.32-18.05-2.08-46.58,4.34-58.39
			c6.42-11.81-5.96-17.29,6.28-34.56s10.57-24.65,25.02-38.69c0,0,1.27-0.52,7.31-13.83c6.04-13.31,34.48-33.68,46.88-40
			C992.76,592.22,1010.95,581.7,1018.15,570.36z"/>
		<path class="st2" d="M957.64,639.23c0,0-17.36,18.37-20.71,32c-3.36,13.64-4.46,25.11-15.1,42.38
			c-10.64,17.27-0.92,32.01-6.92,41.52c-6,9.51-9.12,21.69-11.17,31c-2.05,9.31-23.52,36.71-29.32,51.76
			c-5.8,15.05-3.02,15.75-3.02,15.75s7.15-19.99,12.03-26.02c4.88-6.03,20.35-27.11,24.8-35.63c4.45-8.52,12.15-12.86,21.19-26.93
			c9.04-14.07,19.83-25.19,24.3-47.1C958.17,696.05,972.28,675.11,957.64,639.23z"/>
		<path class="st2" d="M882.94,841.3c0,0,12.06-25.63,37.1-22.64c25.04,2.98,38.25,11.14,60.08-4.55
			c21.83-15.7,39.11-44.64,45.87-48.74c0,0-7.63-6.47-25.16,3.65c-17.54,10.12-30.03,17.98-40.19,23.88
			c-10.16,5.9-15.75-0.79-25.75,2.34c-8.39,2.62-20.84,12.92-26.57,18.5c-1.86,1.81-3.93,3.39-6.19,4.67
			c-2.05,1.17-4.51,2.61-6.13,3.72c-3.24,2.22-14.96,18.84-14.96,18.84L882.94,841.3z"/>
		<path class="st2" d="M875.45,834.54c0,0,16.27-30.98,14.26-48.47c-2.01-17.48-17.27-33.62-14.19-43.59
			c3.08-9.97,21.04-34.68,16.34-57.28c0,0-7.82,17.37-12.3,20.59c-4.48,3.23-32.57,13.9-33.28,36.47
			c-0.71,22.56,21.73,33.1,26.07,40.8c4.34,7.7,12.19,9.52,11.26,13.75c-0.93,4.23-2.97,19.94-9.1,34.47L875.45,834.54z"/>
		<path class="st6" d="M889.99,814.66l20.18-32c0,0,13.61-26.35,23.16-48.74c9.55-22.39,24.31-94.68,24.31-94.68
			s-17.36,18.37-20.71,32c-3.36,13.64-4.46,25.11-15.1,42.38c-10.64,17.27-0.92,32.01-6.92,41.52c-6,9.51-9.12,21.69-11.17,31
			c-2.05,9.31-23.52,36.71-29.32,51.76c-3.18,8.25-3.78,12.18-3.68,14.06C871.95,837.89,889.99,814.66,889.99,814.66z"/>
		<path class="st6" d="M954.34,807.76c-11.28-0.35-20.75-3.33-35.76,3.22c-15.01,6.55-24.91,14.97-24.91,14.97
			s-8.14,8.94-11.78,13.81c-0.54,0.75-0.85,1.2-0.85,1.2l1.91,0.34c0,0,12.06-25.63,37.1-22.64c25.04,2.98,38.25,11.14,60.08-4.55
			c21.83-15.7,39.11-44.64,45.87-48.74c0,0-21.66,10-35.93,20C975.79,795.36,965.62,808.11,954.34,807.76z"/>
		<path class="st6" d="M879.56,705.79c-4.48,3.23-32.57,13.9-33.28,36.47c-0.71,22.56,21.73,33.1,26.07,40.8
			c4.34,7.7,12.19,9.52,11.26,13.75c-0.93,4.23-2.97,19.94-9.1,34.47l0.4,1.43c2.65-5.61,6.51-14.2,8.68-20.9
			c3.52-10.88,2.79-15.89,1.31-25.71c-1.48-9.82-19.38-33.29-22.7-44.21c-3.32-10.92,16.69-23.23,22.11-30.16
			c5.42-6.93,7.54-26.52,7.54-26.52S884.04,702.57,879.56,705.79z"/>
	</g>
	<path class="st4" d="M579.26,1074.73c16.58-21.5,107.51-136.68,166.8-155.87c65.45-21.19,3.76,62.96,3.76,62.96
		s116.1-126.95,158.7-115.51c39.05,10.49,0,89.18,0,89.18s43.99-43.57,97.33-43.57c51.91,0-36.27,154.54-41.03,162.81H579.26z"/>
	<g>
		<g>
			<path class="st5" d="M287.52,1074.07c-53.01-72.08-117.45-138.71-194.07-196.64c-0.76-0.58-1.8,0.75-1.03,1.35
				c72.67,55.86,136.97,121.83,191.07,196.37L287.52,1074.07z"/>
		</g>
		<path class="st5" d="M136.2,941.96c1.77-1.26,6.36-6.02,12.49-7.52c5.8-1.96,13.13-0.65,12.88-0.49
			c0.15,0.35-4.83-5.31-12.61-6.96c-7.48-2.18-17.75-0.35-21.1,2.62c-7.62,5.16-8.23,13.92-4.45,15.54
			C127.16,946.88,132.17,944.49,136.2,941.96z"/>
		<path class="st5" d="M105,914.46c1.77-1.26,6.36-6.02,12.49-7.52c5.8-1.96,13.13-0.65,12.88-0.49c0.15,0.35-4.83-5.31-12.61-6.96
			c-7.48-2.18-17.75-0.35-21.1,2.62c-7.62,5.16-8.23,13.92-4.45,15.54C95.95,919.39,100.96,917,105,914.46z"/>
		<path class="st5" d="M188.73,929.75c-1.66,1.03-7.57,3.11-10.28,7.83c-3.15,4.25-3.1,11.14-2.88,10.99
			c0.34,0.27-4.76-6.32-5.07-13.73c-0.94-7.36,2.89-15.54,6.66-17.27c6.88-4.55,16.29-1.58,17.32,2.35
			C195.62,923.86,192.17,927.26,188.73,929.75z"/>
		<g>
			<g>
				<path class="st5" d="M196.81,831.49c47.43,74.08,82.05,156.38,101.85,243.81l3.25-0.87c-19.71-85.6-54.1-167.75-101.45-241.75
					c-11.01-17.2-22.89-37.6-43.5-44.31c-0.4-0.13-0.55,0.47-0.17,0.62C175.61,796.07,186.51,815.41,196.81,831.49z"/>
			</g>
			<path class="st5" d="M192.47,785.55c-1.22,1.8-5.9,6.48-7.27,12.63c-1.84,5.84-0.39,13.14-0.23,12.89
				c0.35,0.15-5.41-4.73-7.21-12.47c-2.33-7.43-0.7-17.74,2.2-21.15c5.01-7.72,13.75-8.5,15.45-4.76
				C197.22,776.4,194.93,781.46,192.47,785.55z"/>
			<path class="st5" d="M181.13,851.68c1.77-1.26,6.36-6.02,12.49-7.52c5.8-1.96,13.13-0.65,12.88-0.49
				c0.15,0.35-4.83-5.31-12.61-6.96c-7.48-2.18-17.75-0.35-21.1,2.62c-7.62,5.16-8.23,13.92-4.45,15.54
				C172.08,856.6,177.09,854.21,181.13,851.68z"/>
			<path class="st5" d="M198.25,880.66c1.77-1.26,6.36-6.02,12.49-7.52c5.8-1.96,13.13-0.65,12.88-0.49
				c0.15,0.35-4.83-5.31-12.61-6.96c-7.47-2.18-17.75-0.35-21.1,2.62c-7.62,5.16-8.23,13.92-4.45,15.54
				C189.2,885.58,194.22,883.19,198.25,880.66z"/>
			<path class="st5" d="M216.44,818.34c-1.49,1.58-6.84,5.47-9.17,11.33c-2.74,5.47-2.46,12.92-2.26,12.69
				c0.32,0.2-4.6-5.52-5.15-13.45c-1.13-7.7,2.11-17.63,5.51-20.54c6.16-6.83,14.92-6.23,16.01-2.26
				C222.56,810.06,219.51,814.7,216.44,818.34z"/>
			<path class="st5" d="M241.62,851.21c-2.12,1.12-9.52,3.16-13.25,8.7c-4.22,4.93-4.75,13.36-4.47,13.19
				c0.4,0.36-5.28-8.13-5.03-17.23c-0.52-9.08,4.87-18.77,9.63-20.56c8.8-4.98,20.07-0.54,20.99,4.35
				C250.55,844.6,246.04,848.46,241.62,851.21z"/>
			<path class="st5" d="M268.12,900.99c-2.28,0.75-9.92,1.52-14.52,6.35c-4.98,4.15-6.93,12.37-6.63,12.25
				c0.33,0.42-3.83-8.91-2.06-17.83c1.01-9.04,7.96-17.68,12.95-18.65c9.52-3.43,19.87,2.84,19.96,7.82
				C278.04,895.98,272.94,899.02,268.12,900.99z"/>
			<path class="st5" d="M148.86,797.2c0.99-0.82,3.5-3.84,7.06-4.99c3.35-1.41,7.74-0.96,7.6-0.85c0.11,0.2-3.09-2.93-7.77-3.57
				c-4.52-0.96-10.51,0.57-12.37,2.47c-4.28,3.38-4.26,8.59-1.95,9.39C143.72,800.51,146.59,798.88,148.86,797.2z"/>
			<path class="st5" d="M158.37,776.05c-0.04,1.29-0.91,5.12,0.35,8.64c0.92,3.51,3.97,6.72,3.97,6.54
				c0.22-0.04-4.21-0.66-7.57-3.97c-3.52-2.99-5.97-8.68-5.6-11.31c0.07-5.46,4.2-8.62,6.24-7.28
				C157.85,769.96,158.31,773.22,158.37,776.05z"/>
		</g>
		<path class="st5" d="M82.52,886.46c0.99-0.82,3.5-3.84,7.06-4.99c3.35-1.41,7.74-0.96,7.6-0.85c0.11,0.2-3.09-2.93-7.77-3.57
			c-4.52-0.96-10.51,0.57-12.37,2.47c-4.28,3.38-4.26,8.59-1.95,9.39C77.38,889.77,80.25,888.14,82.52,886.46z"/>
		<path class="st5" d="M93.99,865.12c-0.15,1.28-1.32,5.03-0.35,8.64c0.63,3.58,3.4,7.02,3.42,6.84c0.23-0.02-4.14-1-7.21-4.58
			c-3.26-3.27-5.24-9.14-4.65-11.73c0.51-5.43,4.9-8.25,6.82-6.74C93.98,859.01,94.16,862.3,93.99,865.12z"/>
	</g>
	<g>
		<path class="st5" d="M104.2,1007.45c48.44,5.31,93.55,26.69,136.97,47.54c29.28,14.06,27.81,18.06,33.77,20.16
			c0.97,0.34,1.93-0.71,1.46-1.64c-2.3-4.54-8.31-7.62-12.5-10.23c-4.87-3.04-9.96-5.73-15.13-8.24
			c-11.05-5.37-22.39-10.2-33.66-15.09c-22.92-9.96-46.21-19.33-70.43-25.67c-13.28-3.48-26.78-5.98-40.46-7.22
			C103.98,1007.03,103.95,1007.42,104.2,1007.45L104.2,1007.45z"/>
	</g>
	<path class="st5" d="M143.71,991.8c-0.32,1.99-2.38,7.76-1.11,13.46c0.76,5.62,4.86,11.17,4.89,10.89
		c0.35-0.02-6.4-1.83-10.96-7.61c-4.88-5.31-7.58-14.59-6.5-18.6c1.15-8.44,8.17-12.55,11.07-10.08
		C144.07,982.27,144.15,987.41,143.71,991.8z"/>
	<path class="st5" d="M186.38,1007.08c-0.32,1.99-2.38,7.76-1.11,13.46c0.76,5.62,4.86,11.17,4.89,10.89
		c0.35-0.02-6.4-1.83-10.96-7.61c-4.88-5.31-7.58-14.59-6.5-18.6c1.15-8.44,8.17-12.55,11.07-10.08
		C186.75,997.54,186.82,1002.69,186.38,1007.08z"/>
	<path class="st5" d="M229.74,1026.4c-0.31,1.99-2.39,7.76-1.11,13.46c0.76,5.62,4.86,11.17,4.89,10.89
		c0.35-0.02-6.4-1.83-10.96-7.61c-4.88-5.31-7.58-14.59-6.5-18.6c1.15-8.44,8.17-12.55,11.07-10.08
		C230.1,1016.87,230.18,1022.01,229.74,1026.4z"/>
	<path class="st5" d="M130.97,1031.67c0.88-1.64,2.57-7.05,6.69-10.53c3.69-3.72,9.82-5.52,9.68-5.3c0.25,0.21-5.73-2.22-12.33-0.51
		c-6.56,1.19-13.73,6.52-15.17,10.08c-3.87,6.86-0.98,13.81,2.53,13.61C125.92,1038.9,128.85,1035.15,130.97,1031.67z"/>
	<path class="st5" d="M175.35,1047.38c0.88-1.64,2.57-7.05,6.69-10.53c3.69-3.72,9.82-5.52,9.68-5.3c0.25,0.21-5.73-2.22-12.33-0.51
		c-6.56,1.19-13.73,6.52-15.17,10.08c-3.87,6.86-0.98,13.81,2.53,13.61C170.3,1054.61,173.23,1050.86,175.35,1047.38z"/>
	<path class="st5" d="M97.17,1015.5c0.77-0.91,2.55-4.09,5.59-5.73c2.81-1.85,6.89-2.17,6.78-2.05c0.13,0.16-3.31-2.15-7.67-1.95
		c-4.28-0.12-9.48,2.28-10.86,4.32c-3.33,3.8-2.44,8.54-0.21,8.88C93.04,1019.37,95.37,1017.4,97.17,1015.5z"/>
	<path class="st5" d="M102.29,994.63c0.18,1.18,0.03,4.81,1.77,7.81c1.43,3.05,4.74,5.46,4.71,5.29c0.2-0.07-3.95,0.11-7.56-2.35
		c-3.71-2.13-6.89-6.91-6.99-9.36c-0.85-4.98,2.39-8.56,4.47-7.68C100.8,989.17,101.76,992.06,102.29,994.63z"/>
	
		<ellipse transform="matrix(0.7071 -0.7071 0.7071 0.7071 -353.2403 611.6612)" class="st7" cx="561.72" cy="732.23" rx="342.95" ry="342.95"/>
	
		<ellipse transform="matrix(0.7071 -0.7071 0.7071 0.7071 -353.2402 611.6612)" class="st8" cx="561.72" cy="732.23" rx="312.74" ry="312.74"/>
	
		<ellipse transform="matrix(0.7071 -0.7071 0.7071 0.7071 -353.2402 611.6612)" class="st9" cx="561.72" cy="732.23" rx="262.99" ry="262.99"/>
	
		<ellipse transform="matrix(0.7071 -0.7071 0.7071 0.7071 -353.2403 611.6611)" class="st7" cx="561.72" cy="732.23" rx="197.68" ry="197.68"/>
	
		<ellipse transform="matrix(0.7071 -0.7071 0.7071 0.7071 -353.2403 611.6611)" class="st10" cx="561.72" cy="732.23" rx="140.38" ry="140.38"/>
	<path class="st11" d="M597.52,732.23c0,19.77-16.03,35.8-35.8,35.8c-19.77,0-35.8-16.03-35.8-35.8c0-19.77,16.03-35.8,35.8-35.8
		C581.49,696.43,597.52,712.46,597.52,732.23z"/>
	<g>
		<polygon class="st12" points="781.5,554.55 780.23,531.29 858.96,469.71 854.84,503.38 777.69,563.73 		"/>
		<polygon class="st13" points="787.32,562.38 809.59,569.21 888.32,507.63 854.64,503.52 777.49,563.87 		"/>
		<path class="st12" d="M559.03,735.2L559.03,735.2c1.79,2.29,5.1,2.69,7.39,0.9l221.81-173.49l-6.48-8.29L559.94,727.81
			C557.65,729.6,557.24,732.91,559.03,735.2z"/>
	</g>
	<path class="st14" d="M889.99,799.61c0,2.22,0.83,4.03,1.86,4.03c1.02,0,1.86-1.8,1.86-4.03c0-2.22-0.83-4.03-1.86-4.03
		C890.82,795.59,889.99,797.39,889.99,799.61z"/>
	<path class="st14" d="M872.5,1060.62c0.48-3.47,0.64-8.79,0.58-14.93h12.14c-1.26,8.7-2.25,15.47-2.25,15.47l0.3,2.75l0.01,8.12
		h-26.55c0,0,5.64-2.52,13.52-7.52C870.83,1064.14,872.18,1062.96,872.5,1060.62z"/>
	<path class="st14" d="M924.27,1058.58l-3.53-10.11h9.24c0.48,6.49,0.66,10.87,0.66,10.87l2.35,6.65l2.39,7.9
		c0,0-7.86,2.03-11.98-0.25l0.46-7.86L924.27,1058.58z"/>
	<path class="st15" d="M876.34,838.8c3.2-4.38,16.43-17.07,17.89-17.04c4.28,0.08,18.34,0.08,21.08,1.48l-0.13,24.16
		c-0.45,2.03-10.15,33.61-9.59,40.52l-0.07,0.06c-8.13,7.85-20.96,7.24-28.39-1.37l0,0c0,0,0.03-9.58-1.11-18.32
		C874.23,854.6,868.38,849.68,876.34,838.8z"/>
	<path class="st14" d="M898.54,808.16c0,0-0.37,8.91,0.43,12.29c0.8,3.38,1.87,3.63-5,4.66c-2.7,0.4-5.3,1.01-5.3,1.01
		s0.7-4.96,0.81-7.06c0.18-3.45-0.79-14.1-0.79-14.1L898.54,808.16z"/>
	<path class="st16" d="M893.31,812.59c-1.41,0.76-2.73,1.22-3.95,1.4c-0.23-4.21-0.67-9.04-0.67-9.04l9.4,3.05
		C897,809.83,895.45,811.44,893.31,812.59z"/>
	<path class="st17" d="M923.85,1065.74c3.63,1.62,7.53,0.64,9.1,0.13l0.52,1.41l2,6.67c0,0-7.96,1.98-12.08-0.3L923.85,1065.74z"/>
	<path class="st17" d="M883.56,1074.04h-27.6c-1.02-0.09-1.27-0.93-0.92-1.44c0.73-1.06,3.95-1.84,7.57-3.52
		c6.35,0.67,19.67-3.71,20.67-5.19C883.86,1066.84,884.13,1073.91,883.56,1074.04z"/>
	<path class="st18" d="M885.65,888.37l16.18,115.09l14.73,53.06h16.03c0,0-3.72-42.75-11.69-57.9c0,0-3.48-40.58-6.97-65.4
		c-0.52-3.71,2.06-13.34,1.39-15.83c-5.17-19.13-9.72-29.49-9.72-29.49L885.65,888.37z"/>
	<path class="st19" d="M895.65,938.13l-3.74,44.21c0,0,3.83,25.27,1.2,42.03c-2.63,16.76-6.11,32.15-6.11,32.15h-14.73l-2.93-83.49
		c0,0-5.66-45.36-3.7-57.67c1.96-12.3,11.5-28.76,11.5-28.76l23.18,1.06c0,0,6.29,22.52,5.22,30.08
		C904.75,923.35,895.65,938.13,895.65,938.13z"/>
	<path class="st12" d="M918.44,862.31c17.52-5.26,12.83-20.7,12.73-20.11c0.05-0.48,1.7-2.42,2.52-4.08
		c3.4-6.92-1.09-15.26-6.23-18.14c3.41-8.8,0.02-17.25-6.39-20.77c-3.24-1.78-5.96-4.3-8.16-7.22c-4.86-6.48-13.7-13.01-24.32-10.88
		c-10.51,2.69,3.56,8.78,2.17,18.9c-0.71,5.13,1.32,4.39,4.49,8.51c-4.56,8.01-1.92,21.47,5.07,27.57
		C896.89,850.51,900.57,867.67,918.44,862.31z"/>
	<path class="st12" d="M905.42,791.72c2.07,8.53-9.13,14.73-18,14.96c-5.76,0.15-8.41-0.44-9.34-6.52
		c-1.51-9.85,2.55-15.86,8.23-18.34C893.65,778.61,903.72,784.68,905.42,791.72z"/>
	<path class="st14" d="M892.4,785.98c0,0,3.9,1.31,5.98,5.25c2.08,3.94,1.05,16.54-7.6,20.7c-8.65,4.16-12.62-5.28-11.99-12.25
		C879.41,792.71,881.91,783.59,892.4,785.98z"/>
	<path class="st20" d="M887,805.38l-6.14-0.09c0,0,0.11,2.37,2.8,2.5C886.96,807.93,887,805.38,887,805.38z"/>
	<path class="st12" d="M901.45,800.76c1.28-6.51,0.78-11.45-3.85-13.84c-4.63-2.38-8.58-4.75-12.73-0.46l-0.94,0.53
		c0,0,7.82,2.16,8.25,6.31c0.44,4.15,4.59,9.08,3.95,11.12c-0.64,2.04-1.38,6.1-1.38,6.1l1.71-1.41
		C896.47,809.13,900.17,807.28,901.45,800.76z"/>
	<path class="st14" d="M893.39,798.27c-0.65,1.8-0.16,3.6,1.09,4.03s2.78-0.68,3.43-2.48c0.65-1.8,0.16-3.61-1.09-4.03
		C895.57,795.36,894.04,796.47,893.39,798.27z"/>
	<path class="st15" d="M236.1,953.44h79.61l-19,120.88h8.21l107.16-681.74h-8.21l-1.61,10.27h-79.78l1.61-10.27h-8.21
		l-107.26,681.74h8.21L236.1,953.44z M372.68,591.04l-13.14,83.61h-79.7l13.12-83.61H372.68z M294.06,584.05l13.12-83.61h79.75
		l-13.14,83.61H294.06z M358.44,681.64l-13.14,83.61h-79.67l13.12-83.61H358.44z M344.2,772.24l-13.14,83.61h-79.64l13.12-83.61
		H344.2z M401.16,409.83l-13.14,83.61h-79.75l13.12-83.61H401.16z M237.2,946.45l13.12-83.61h79.64l-13.14,83.61H237.2z"/>
	<g>
		<path class="st21" d="M575.27,280.08c-0.09,0.31-0.75,2.4-1.76,5.53l10.65,2.15c0.11-1.74,0.22-3.2,0.34-4.25
			c0.88-7.39,4.35-9.39,6.13-13.49c1.79-4.1,8.71-6.7,7.86-8.09c-0.85-1.39-7.31,4.24-8.86,3.64c-1.55-0.6,5.52-9.08,4.67-10.21
			c-1.57-2.08-8.29,8.89-9.08,7.98c-0.79-0.91,5.6-12.48,3.04-12.63c-2.56-0.15-5.39,12.53-6.73,11.97
			c-1.34-0.56,3.72-11.68,1.15-13.34c-1.38-0.89-6.25,19.79-8.43,20.98c-2.18,1.19-5.24-6.96-7.32-6.27
			C564.85,264.74,575.63,278.8,575.27,280.08z"/>
		<path class="st21" d="M476.13,236.12c-0.05,0.31-0.31,2.5-0.67,5.76l-10.59-2.44c0.62-1.63,1.12-3,1.44-4.02
			c2.25-7.09-0.09-10.35-0.02-14.82c0.06-4.47-5.17-9.7-3.82-10.61c1.35-0.91,4.91,6.88,6.57,6.97c1.66,0.09-1.28-10.55-0.04-11.23
			c2.28-1.25,3.88,11.51,4.98,11.01c1.09-0.5,0.05-13.68,2.44-12.76c2.39,0.92-0.26,13.64,1.2,13.68
			c1.45,0.05,1.43-12.17,4.46-12.62c1.62-0.24-2.47,20.61-0.97,22.59c1.49,1.98,7.64-4.18,9.25-2.69
			C491.95,226.45,476.33,234.81,476.13,236.12z"/>
		<path class="st15" d="M585.43,284.6c0,0-12.69-3.04-12.81-2.02c-2.67,22.32-3.86,30.39-4.31,30.62
			c-1.54,0.79-21.92-17.84-25.55-19.11c-1.74-0.6-3.63-0.5-5.44-0.45c-4.32,0.13-5.18,0.14-5.18,0.14
			c-0.12,0.01-0.16,0.01-0.16,0.01l0.02,4.07c4.87,4.38,16.02,70.75,16.96,70.7c1.05-0.05,23.08,5.5,22.7,3.64
			c-0.06-0.3-14.94-12.47-19.16-30.04c-1.42-5.9-2.12-12.25-2.88-17.81c4.9,2.45,24.02,11.87,27.05,10.62
			C586.09,331.11,585.43,284.6,585.43,284.6z"/>
		<path class="st14" d="M623.37,402.44c0,0,20.5,16.06,21.19,18.91c0.99,4.1,19.76-1.29,15.23-2.12c-1.04-0.19-4.38-1.04-4.65-1.18
			c-1.47-0.78-19.71-22.77-19.71-22.77L623.37,402.44z"/>
		<path class="st15" d="M668.59,419.22l-13.09-1.07c0,0-3.74,3.1-10.93,3.24c0,0-1.15,3.28-0.6,7.12c0.09,0.66,0.21,2.66,0.87,2.62
			c2.42-0.16,8.86-1.77,16.2-3.24c0,0,9.87-2.09,15.57-5.5C682.31,419,668.59,419.22,668.59,419.22z"/>
		<path class="st18" d="M531.51,362.16c0,0,15.01,2.52,31.62-1.36c19.21-4.49,40.46-8.65,46.68-5.03
			c5.01,2.91,36.3,50.19,36.3,50.19l-12.08,8.82l-34.45-38.58c0,0-43.95,16.22-53.82,14.42
			C523.27,386.52,522.95,368.57,531.51,362.16z"/>
		<path class="st14" d="M578.45,434.16c0,0-0.91,24.8-1.48,28.99c-0.56,4.18,10.52,16.77,9.11,12.39c-0.33-1.01-1.17-4.34-1.17-4.65
			c-0.01-1.66,4.11-29.95,4.11-29.95L578.45,434.16z"/>
		<path class="st15" d="M593.17,484.58l-8.19-13.31c0,0-4.5-1.82-8.05-8.08c0,0-3.44,0.55-6.56,2.85c-0.54,0.4-4.2,3.08-3.95,3.7
			c0.94,2.28,5.93,7.15,11.39,12.48c0,0,7.74,6.24,13.45,9.64C596.98,495.25,593.17,484.58,593.17,484.58z"/>
		<path class="st19" d="M602.79,385.27c-5.25-7-47.62-13.65-47.62-13.65l-11.81-22.71l-26.12,16.11c0,0,2.61,20.79,4.57,26.34
			c2.61,7.4,20.17,7.78,30.89,7.67c9.87-0.1,27.89,1.91,27.89,1.91l-6.1,53.77c0,0,11.98,2.73,15.35,2.29
			C590.22,456.95,609.32,393.98,602.79,385.27z"/>
		<path class="st12" d="M532.13,293.84l-14.74,0.82c0,0-0.34,0.1-0.44,0.12c-1.2,0.22-0.11,43.18,0.96,59.22
			c1.07,16.04,3.24,22.78,3.24,22.78s19.99-3.55,26.12-5.93c2.55-0.99,8.71-8.69,8.71-8.69s-6.3-8.46-9.47-22.21
			c-2.45-10.6-5.46-29.4-7.19-33.32C535.36,297.61,532.13,293.84,532.13,293.84z"/>
		<path class="st14" d="M517.81,281.64l-0.42,13.01c0,0,9.54,16.44,14.44,14.15c4.11-1.92,0.46-14.43,0.46-14.43
			s-0.71-2.87-1.7-6.16c-0.69-2.3-1.26-4.8-1.22-6.62C529.47,277.15,517.81,281.64,517.81,281.64z"/>
		<path class="st16" d="M529.37,281.59c0.1-4.45-11.56,0.05-11.56,0.05l-0.04,1.27c0.39,0.59,0.83,1.09,1.3,1.48
			c3.14,2.55,7.67,3.69,11.36,3.27C529.81,285.53,529.33,283.28,529.37,281.59z"/>
		<g>
			<path class="st15" d="M529.2,251.96c0,0,4.86,7.33,5.23,13.5c0.36,6.17-0.94,10.38-0.94,10.38l-15.6-18.65L529.2,251.96z"/>
			<path class="st22" d="M536.04,264.2c0.22,2.16-0.62,4.01-1.87,4.14c-1.26,0.13-2.45-1.52-2.67-3.68
				c-0.22-2.16,0.62-4.01,1.88-4.14C534.63,260.39,535.82,262.04,536.04,264.2z"/>
			<path class="st14" d="M512.84,260.18c-0.36-0.08-0.32,17.88,4.88,22.1c5.2,4.23,14.26,4.6,16.91,0.34
				c2.93-4.71,0.14-23.63-7.6-27.64C519.29,250.96,512.84,260.18,512.84,260.18z"/>
			<path class="st15" d="M511.52,249.04c-3.97,3.48-5.9,6.03-8.58,12.22c-3.31,7.61,3.25,15.5,8.75,18.64
				c5.5,3.14,5.96,6.93,5.96,6.93l0.23-2.34c0.11-0.85,0.08-1.55-0.07-2.15c-0.17-0.71-0.5-1.29-0.78-1.9
				c-0.47-1-1.97-4.43-2.56-5.33c-1.55-2.39-1.85-2.9-1.09-5.17c0.59-1.75-0.09-5.59,0.82-8.47l7.4-1.6c0,0,4.63-1.11,6.97-3.81
				C535.27,248.31,521.99,239.67,511.52,249.04z"/>
			<path class="st14" d="M515.13,271.91c0.91,1.97,0.72,4-0.42,4.53c-1.15,0.53-2.81-0.64-3.72-2.61c-0.91-1.97-0.72-4,0.42-4.53
				C512.55,268.77,514.22,269.94,515.13,271.91z"/>
		</g>
		<path class="st15" d="M517.39,294.66c0,0-14.61-0.68-18.38-2.39c-2.29-1.03-21.06-16.16-21.06-16.16l0.21-40.51l-13.21-1
			c0,0-6.85,44.78-4.48,49.68c2.45,5.06,29.93,25.9,35.43,34.94c3.17,5.21,9.77,76.05,10.77,76.69c7.11,3.7,29.07,7.4,28.56,5.15
			C520.93,339.01,517.39,294.66,517.39,294.66z"/>
		<path class="st20" d="M523.62,276.58l8.51-2.7c0,0,0.83,3.29-2.88,4.59C524.73,280.05,523.62,276.58,523.62,276.58z"/>
	</g>
	<path class="st15" d="M886.58,434.22c1.1-0.18,1.65-1.63,1.09-2.54c-0.9-1.47-1.77-2.95-2.66-4.42c-1.95-3.26-2.13-3.33-1.97-3.7
		c0.38-0.89,2.05-0.48,2.65-0.28c1.33,0.46,2.56,1.26,3.98,1.44c2.77,0.35,4.78-1.76,3.55-4.44c-1.13-2.45-2.4-4.86-3.68-7.24
		c2.96,0.61,5.91,1.3,8.88,1.86c1.05,0.2,1.78-0.74,1.35-1.71c-0.94-2.17-3.74-8.59-4.66-10.71c-0.24-0.55-1.65-2.97-1.16-3.43
		c0.44-0.42,2.47,0.15,2.94,0.22c2.58,0.37,3.49,0.47,11.91,1.5c1,0.12,1.84-1.25,1.24-2.08c-5.88-8.21-4.85-8.96-6.94-10.11
		c-0.47-0.26-0.91,0.06-0.99,0.54c-0.19,1.23-0.15,1.54,2.07,5.46c0.57,1.01,1.17,2.01,1.79,2.99c-10.19-1.44-12.73-2.05-14.11,0.24
		c-0.96,1.59-0.49,2.02,4.82,14.16c-3.08-0.8-6.18-1.4-9.3-2.07c-1.18-0.25-2.05,0.86-1.54,1.95c4.08,8.76,4.54,8.82,4.69,9.69
		c0,0.02,0.54,0.15-0.26,0.08c-1.36-0.12-3.85-2.09-6.44-1.79c-2.28,0.26-4.45,2.13-3.94,4.61c0.3,1.44,0.84,1.96,3.55,6.78
		c-2.68,0.53-5.28,1.38-7.94,2.6c-1.16,0.53-1.85,1.03-2.57,2.08c-0.59,0.86,0.14,2.26,1.21,2.2
		C877.15,437.93,878.46,435.59,886.58,434.22z"/>
	<path class="st16" d="M940.13,458.45c-0.38-2.57-0.56-5.03-0.49-7.73c0.01-0.51-0.08-1.46,0.44-1.77c1.24-0.77,3.09,1.36,7.84,2.4
		c2.06,0.45,6.29,1.56,7.2-1.21c0.46-1.42,0.16-3.22,0.16-4.69c0-1.12,0.04-2.24,0.05-3.36c7.72,2.18,7.28,2.63,9.03,1.87
		c0.45-0.2,0.69-0.89,0.42-1.32c-1-1.59-0.8-1.13-10.51-3.98c-0.89-0.26-1.97,0.35-1.97,1.36c0.01,1.51,0.41,8.37,0.32,9.22
		c-0.08-0.05-0.45,0.02-0.53,0.01c-3.22-0.11-5.93-1.28-8.86-2.49c-2.4-0.99-5.65-1.01-6.4,2.06c-0.41,1.66-0.24,5.1,0.01,7.74
		c-4.7-1.5-9.39-3.04-14.1-4.52c-0.92-0.29-2.25,0.39-2.17,1.5c0.21,3.07,0.31,6.13,0.39,9.2c-2.76-0.91-5.37-2.25-7.74-3.96
		c-1.75-1.26-3.97,1.19,0.65,4.06c2.53,1.69,5.32,2.93,8.3,3.71c0.99,0.26,2.17-0.37,2.18-1.5c0.01-3.04-0.12-6.09-0.31-9.12
		c4.7,1.44,9.42,2.83,14.12,4.27C939.31,460.59,940.3,459.59,940.13,458.45z"/>
	<path class="st23" d="M956.39,520.04c0.02,0.94,0.61,1.53,1.5,1.69c4.32,0.78,8.59,1.18,12.93,0.44c2.26-0.38,1.45-3.74-0.76-3.5
		c-3.46,0.37-7.03,0.57-10.52,0.12c0.08-2.59,0.42-5.16,1.06-7.67c0.24-0.95-0.39-2.24-1.51-2.21c-2.79,0.08-13.33,0.69-13.42,0.8
		c0.01-0.02,0.03-0.09-0.01-0.28c-0.21-1.12,0.62-4.93,0.53-6.67c-0.1-1.95-2.69-2.66-4.27-2.82c-3.19-0.31-6.73,2-9.84,0.76
		c-2.99-1.19,0.37-5.88-2.04-9.55c-1.86-2.82-5.05-1.98-10.1-1c-1.24,0.24-2.44,0.49-3.07,1.7c-0.15,0.3-0.18,0.74,0.1,1
		c1.52,1.41,3.34,0.77,7.95,0.01c0.59-0.1,1.58-0.44,2.1-0.01c1.74,1.44-0.81,5.41,1.25,8.76c1.61,2.61,4.82,3.09,7.54,2.76
		c2.14-0.26,4.77-1.5,6.94-0.73c-0.12,1.86-0.29,3.73-0.27,5.58c0.03,2.02,1.06,3.43,3.1,3.6c2.25,0.19,4.6-0.12,6.84-0.23
		c1.51-0.07,3.03-0.13,4.54-0.21C956.55,514.91,956.34,517.46,956.39,520.04z"/>
	<path class="st23" d="M832.18,402.24c-12.06-9.89-18.2-0.99-14.73,3.11c1.49,1.76,4.13,1.9,5.46-0.09
		c0.61-0.91-0.29-2.42-1.42-2.06c-0.94,0.29-1.16-0.77-0.16-1.19c1.34-0.56,2.98,0.43,4.13,1.04c2.7,1.43,6.23,3.25,6.68,6.64
		c0.69,5.05-4.46,10.4-12.07,7.46c-10.99-4.25-10.46-22.23,1.19-25.21c6.34-1.62,13.15,1.07,17.04,6.28
		c0.76,1.02,2.12-0.17,1.71-1.2c-3.11-7.74-12.99-10.69-20.49-8.07c-7.69,2.69-11.52,10.79-10.37,18.63
		c1.2,8.21,8.23,15.05,16.79,14.17C835.34,420.8,840.61,409.16,832.18,402.24z"/>
	<path class="st2" d="M950.95,547.42c-1.97-1.38-6.03-2.22-7.35,0.46c-0.61,1.24-0.27,2.78,1.18,3.26c1.42,0.46,2.74-0.3,3.83,1.01
		c0.94,1.12,0.37,2.74-0.48,3.74c-2.61,3.07-8.17,2.13-11.29,0.42c-4.95-2.71-5.81-9.79-0.47-13.18c1.67-1.06,3.61-1.29,5.5-1.73
		c1.04-0.24,1.54-1.9,0.44-2.45c-4.24-2.14-9.47,0.61-11.98,4.21c-2.64,3.78-2.53,9.18-0.09,13.03c2.73,4.31,8.24,6.45,13.19,6.4
		C953.73,562.48,957.32,551.88,950.95,547.42z"/>
	<g>
		<g>
			<path class="st24" d="M747.53,865.23c-0.32,1.09-0.5,1.45-0.9,2.18c-2.59,4.71-8.59,11.43-8.59,11.43l-4.65-10.47
				c0,0,0.76-3.29,2.07-7.98C739.95,861.56,744.23,862.24,747.53,865.23z"/>
			<path class="st19" d="M720.9,856.15c0,0,25.91,11.16,26.75,10.95c0.54-0.14,10.63-17.02,10.74-32.91
				c0.05-7.33-7.57-16.16-16.07-14.41c-4.28,0.88-4.21,2.07-10.54,11.27C725.44,840.24,720.9,856.15,720.9,856.15z"/>
			<path class="st14" d="M698.78,1056.21c0,0,0.61,10.18,0.62,10.2c0.23,1.29,1.12,4.48,1.12,5.66c0,4.41-20.95-3.75-16.26-5.7
				c0.43-0.18,2.65-1.52,2.79-3.02c0.22-2.31,0.76-7,0.76-7L698.78,1056.21z"/>
			<path class="st2" d="M684.31,1066.32c0,0,4.92,1.35,7.44,1.69c2.52,0.34,5.84-2.5,7.62-1.74c1.96,0.84,1.88,8.45,1.88,8.45
				s-26.38,2.16-33.8-0.07C664.52,1073.76,674.25,1069.47,684.31,1066.32z"/>
			<path class="st14" d="M741.64,1056.21c0,0,0.61,10.18,0.62,10.2c0.23,1.29,1.12,4.48,1.12,5.66c0,4.41-20.95-3.75-16.26-5.7
				c0.43-0.18,3.31-2.52,3.45-4.02c0.22-2.31,0.1-6,0.1-6L741.64,1056.21z"/>
			<path class="st2" d="M727.17,1066.32c0,0,4.92,1.35,7.44,1.69c2.52,0.34,5.84-2.5,7.62-1.74c1.96,0.84,2.04,8.45,2.04,8.45
				s-26.5,2.52-33.95-0.07C707.42,1073.64,717.11,1069.47,727.17,1066.32z"/>
			<g>
				<path class="st14" d="M739.7,803.17l2.38,15.02c0,0-9.05,7.27-14.33,5.74c-4.43-1.29-1.39-7.07-1.39-7.07s2.36-8.02,1.63-12.22
					C727.26,800.43,739.7,803.17,739.7,803.17z"/>
				<path class="st25" d="M737.99,807.72c-2.27,1.07-6.75,2.53-10.24,2.89c0.33-2.1,0.52-4.33,0.24-5.97
					c-0.33-1.94,2.13-2.4,4.89-2.33c3.61,0.31,6.82,0.87,6.82,0.87l0.46,2.89C739.47,806.78,738.75,807.36,737.99,807.72z"/>
				<path class="st14" d="M751.12,785.84c0.37,0-3.58,16.78-9.69,19.67c-6.12,2.89-15.24,1.38-16.95-3.14
					c-1.89-5,5.01-22.12,13.61-24.3C746.69,775.91,751.12,785.84,751.12,785.84z"/>
				<path class="st26" d="M744.04,770.42c4.88,2.82,7.13,7,7.88,8.71c2.29,1.09,5.07,3.44,6.4,9.78c1.64,7.8-4.18,13.81-10.36,15.61
					c-6.17,1.81-7.12,5.89-7.12,5.89l-0.7-4.4c0,0,1.37-3.83,3.44-5.74c2.06-1.92-0.98-4.71-1.25-6.98
					c-0.21-1.75,1.08-5.16,0.81-8.03c0,0-3.43-5.2-6.81-6.48C730.57,776.59,737.77,766.81,744.04,770.42z"/>
				<path class="st14" d="M741.44,796.22c-0.8,1.94-0.47,3.86,0.73,4.3c1.2,0.44,2.82-0.78,3.62-2.72c0.8-1.94,0.47-3.86-0.73-4.3
					C743.86,793.06,742.24,794.28,741.44,796.22z"/>
			</g>
			<path class="st24" d="M718.66,871.28l-35.6-5.8c0,0,4.05-10.2,5.5-10.2c1.45,0,26.92,11.12,26.92,11.12l2.03,4.07L718.66,871.28z
				"/>
			<path class="st12" d="M736.9,895.69c0,0,3.55,17.17,2.1,30.18s-1.56,59.26-1.56,59.26l5.52,73.98l-13.1,0.29
				c0,0-15.54-73.95-15.25-72.05c0.29,1.9-5.21-52.07-5.21-52.07l18.52-41.22L736.9,895.69z"/>
			<path class="st26" d="M733.42,894.88c0,0,2.32,15.46-0.58,22.24c-2.89,6.78-24.82,73.3-25.11,78.72
				c-0.29,5.42-7.58,65.37-7.58,65.37l-15.24-0.43l-3.3-66.65l6.9-83.77l6.7-21.18L733.42,894.88z"/>
			<path class="st14" d="M742.07,818.2c0,0-3.76,2.47-7.26,2.18c-3.5-0.29-8.46-3.52-8.46-3.52l0.69-2.33c0,0,9.07-1.32,9.29-1.18
				C736.56,813.49,742.07,818.2,742.07,818.2z"/>
			<path class="st24" d="M702.03,854.78c0,0-13.46,12.71-19.54,10.54c-6.08-2.17-8.59-9.59,6.24-20.43
				C701.99,835.17,702.03,854.78,702.03,854.78z"/>
			<path class="st3" d="M692.9,870.47c2-10.88,16.5-44.74,17.65-50.98c0.56-3.03,8.38-3.1,15.83-2.7
				c7.87,0.42,15.68,1.41,15.68,1.41s6.96,1.14,10.03,4.02c3.06,2.87,3.88,10.81-0.53,25.88c-3.48,11.9-7.79,18.43-9.92,27.1
				c-0.43,2.91-0.8,5.78-1.29,9.13c-0.78,12.96,0.01,30.08,0.01,30.08s-37.91,7.86-52.09-4.07
				C688.27,910.33,690.86,881.62,692.9,870.47z"/>
			<path class="st19" d="M683.24,847.07c0,0,14.88,12.28,15.74,12.28c0.56,0,21.23-15.21,26-27.7c2.64-6.91-2.89-14.63-9.21-14.61
				c-4.38,0.02-6.33,1.15-15.01,8.47C692.08,832.84,683.24,847.07,683.24,847.07z"/>
		</g>
		<path class="st20" d="M725.54,795.12l5.58,3.06c0,0-1.46,2.35-3.96,1.08C724.11,797.72,725.54,795.12,725.54,795.12z"/>
	</g>
	<g>
		<path class="st14" d="M371.96,860.57c-0.44-1.25,5.65-2.26,5.98-3.53c0.32-1.27-7.69-1.37-7.98-2.48
			c-0.53-2.05,8.78-0.43,8.6-1.39c-0.18-0.96-9.71-3.1-8.68-4.75c1.03-1.65,9.64,3.25,9.9,2.14c0.26-1.12-8.42-3.83-8.26-6.28
			c0.08-1.31,14.25,6.52,15.89,5.81c1.64-0.71-1.77-6.86-0.46-7.77c1.31-0.91,5.06,12.5,5.96,12.94c0.9,0.45,20.04,11.37,26.84,13.1
			c0.83-2.28,10.58-16.4,11.31-18.55c3.82,2.72,7.74,3.09,11.68,5.57c-2.86,7.16-15.97,27.03-17.96,27.93
			c-6.06,2.74-29.49-16.7-34.17-20.02c-4.68-3.33-7.36-2.25-10.53-3.3C376.93,858.93,372.4,861.82,371.96,860.57z"/>
		<path class="st12" d="M501.98,808.71c-3.51-9.35-12.67-15-22.21-13.25c-2.93-4.73-7.81-8.23-13.12-9.37
			c-10.48-2.24-24.65,1.89-24.26,12.99c-4.06,7.45-4.22,18.11,2,23.78c-2.16,10.02,7.22,19.71,19.42,19.36
			c4.25,7.01,12.34,11.51,20.39,10.55c1.93-0.23,4.88-0.71,5.37-0.59c-0.61-0.11,12.93,10.27,24.41-5.7
			C525.68,830.17,517.46,810.45,501.98,808.71z"/>
		<g>
			<path class="st14" d="M469.09,898.83c0.35,0.14-4.6,6.53-9.43,11.04c-3.89,4.88-7.54,10.66-8.79,16.96
				c-1.91,9.58-0.32,56.91-1.98,60.27c-14.27,13.95-24.61,48.98-27.51,59.66c-0.57,2.08-1.71,3.96-3.3,5.42l0,0l0.63,12.07
				l7.09,6.53c0,0-1.58-9.84,1.57-17.14c0,0,35.94-54.43,38.07-58.59c4.08-11.85,18.92-72.55,18.92-72.55l3.45-13.95
				C487.81,908.56,469.12,898.84,469.09,898.83z"/>
			<path class="st18" d="M410.31,1056.07c0,0,4.49,6.92,4.87,9.61c0.38,2.7,2.77,8.81,5.42,9.2c0.6,0.09,10.89,0.84,10.81-0.44
				c-0.06-0.98-3.78-2.38-5.51-3.58c-2.99-2.06-7.63-18.87-7.63-18.87S410.5,1053.91,410.31,1056.07z"/>
		</g>
		<path class="st21" d="M470.59,824.91c0,0,15.04-27.05,18.7-32.8c3.66-5.75,13.19-28.6,13.53-29.5c0.34-0.9-6.56-11.71-5.02-12.08
			c1.54-0.37,3.25,5.7,4.89,4.98c1.64-0.73,6.45-15.34,7.38-14.62c1.75,1.36-2.59,9.07-1.65,9.55c0.93,0.49,3.77-8.48,5.6-8.22
			c1.84,0.26-3.49,8.22-2.98,8.92c0.51,0.7,6.04-6.79,7.04-5.2c0.54,0.87-5.08,6.54-4,7.08c1.08,0.53,6.09-3.13,6.62-2.08
			c0.53,1.06-4.63,2.5-6.17,5.35c-1.54,2.85-4.17,4.08-5.26,9.35c-1.09,5.27-2.72,24.36-8.31,33.88
			c-5.59,9.52-17.88,30.6-17.88,30.6L470.59,824.91z"/>
		<path class="st14" d="M499.81,919.8c0,0,23.15,49.49,23.3,58.2c0.13,7.46-4.05,49.31-2.88,84.16c0.04,1.26,1.64,2.93,3.96,3.99
			c1.31,0.6,7.61,3.41,7.61,3.41l0.87,2.25l-21.71-1.55l-0.31-5.93c0,0-8.64-52.14-7.76-66.88c0.14-2.32,1.26-16.18,1.26-16.18
			l-26.11-50.4l16.42-21.58L499.81,919.8z"/>
		<g>
			<path class="st16" d="M446.75,979.25C446.75,979.26,446.76,979.26,446.75,979.25C446.76,979.25,446.75,979.25,446.75,979.25z"/>
			<path class="st2" d="M479.86,839.55c0.62-3.81,6.51-13.33,7.44-15.66c0,0-6.83-8.68-12.37-8.02c0,0-7.45,12.35-11.68,12.76
				c-4.23,0.41-19.13,1.06-21.74,2.64c-2.61,1.58-13.69,18.59-13.69,18.59s9.96,10.17,13.96,10.15c0,0,2.13-4.19,2.98-5.11
				c0.6,1.95,9.88,32,9.87,38.81l0.07,0.06c8.67,7.03,21.32,5.41,28.01-3.6l0,0c0,0-0.79-9.37-0.34-18.01
				C483.06,858.63,485.8,851.43,479.86,839.55z"/>
			<path class="st15" d="M528.14,955.81l-45.43-65.64c-2.8,1.14-5.45,2.12-8.45,2.7c-6.51,1.26-13.04,1.06-19.63,0.84
				c0,0.25-0.01,0.46-0.04,0.64c-0.76,5.41-7.94,13.79-9.42,30.21c-1.68,18.64-0.66,51.02-0.09,53.14
				C475.28,974.04,519.57,964.8,528.14,955.81z"/>
		</g>
		<path class="st14" d="M455.59,817.69c0,0,1.6,8.61,1.28,12c-0.32,3.39,1.22,14.33,8.12,14.37s1.31-13.91,0.66-17.24
			c-0.65-3.33-0.8-13.62-0.8-13.62L455.59,817.69z"/>
		<path class="st16" d="M464.98,818.36c-0.11-2.82-0.14-5.17-0.14-5.17l-9.25,4.49c0,0,0.33,1.76,0.65,4
			C460.29,822.53,463.23,820.97,464.98,818.36z"/>
		<path class="st14" d="M452.21,793.93c0,0-3.57,2.06-4.87,6.52c-1.3,4.46,0.18,15.98,9.39,18.76c9.21,2.78,13.2-6.34,11.3-13.47
			C466.13,798.62,462.01,789.59,452.21,793.93z"/>
		<path class="st14" d="M469.18,802.99c-0.18,1.92-1.2,3.38-2.27,3.27c-1.07-0.11-1.79-1.75-1.61-3.67c0.18-1.92,1.2-3.38,2.27-3.27
			C468.64,799.43,469.36,801.07,469.18,802.99z"/>
		<path class="st14" d="M449.99,810.37c1.08,1.67,1.08,3.65-0.01,4.41c-1.09,0.76-2.84,0.02-3.93-1.65
			c-1.08-1.67-1.08-3.65,0.01-4.41C447.15,807.95,448.91,808.69,449.99,810.37z"/>
		<path class="st18" d="M510.87,1074.41h27.43c1.01-0.09,1.26-0.91,0.91-1.41c-0.72-1.04-3.92-1.8-7.52-3.46
			c-6.31,0.66-20.04-3.65-21.04-5.1C510.07,1067.33,510.31,1074.28,510.87,1074.41z"/>
		<path class="st20" d="M456.9,812.27l5.89-1.73c0,0,0.53,2.32-2.03,3.16C457.63,814.72,456.9,812.27,456.9,812.27z"/>
	</g>
	<g>
		<path class="st2" d="M307.53,676.39c0.77,0.03,2.87,0.73,5.94,6.54c3.92,7.41,9.66,29.81,9.66,29.81l-17.11,6.37l-2.2-4.67
			l-3.62-35.98C300.19,678.45,307.32,676.38,307.53,676.39z"/>
		<path class="st4" d="M284.91,673.16c4.89,0.01,17,1.43,22.62,3.23c0,0,4.13,35.48-3.72,62.44c-1.76,6.04,1.45,25.02,1.45,25.02
			l-50.71-0.67c0,0,6.01-45.89,3.74-53.31c-2.26-7.41-2.32-33.25-2.32-33.25s0.35-0.05,11.39-1.96
			C272.53,673.78,279.69,673.16,284.91,673.16z"/>
		<path class="st14" d="M279,829.72c0,0,1.12,12.95,3.18,16.53c2.06,3.59-0.11,9.68-0.22,10.52c-0.11,0.84-4.34,2.03-11.07,1.31
			c-6.73-0.72-6.62-2.27-6.08-4.78c0.54-2.51,4.12-5.74,4.34-8.13c0.22-2.39-2.06-11-2.06-11L279,829.72z"/>
		<path class="st18" d="M299.55,753.17c0,0,35-1.94,42.82,2.79c7.82,4.73-5.55,27.97-5.55,27.97s-24.36-1.12-72.06,1.63
			c-11.3,0.65-12.27-29.46-10.16-31.95C256.7,751.12,299.55,753.17,299.55,753.17z"/>
		<path class="st26" d="M270.06,859.09c-6.93-0.74-6.07-4.14-5.51-6.73c0.35-1.62,2.34-3.53,3.52-5.33
			c0.62,0.49,1.63,1.36,4.64,2.25c3.13,0.92,7.41-0.9,10.14-2.05c0.97,3.62,1.02,8.24,0.93,8.94
			C283.66,857.03,276.99,859.82,270.06,859.09z"/>
		<path class="st19" d="M273.88,778.21c1.4,10.58,8.32,63.26,8.32,63.26l-16.07,1.99c0,0-19.76-68.76-18.74-79.28
			c1.01-10.52,8.41-11.4,8.41-11.4S270.18,750.2,273.88,778.21z"/>
		<path class="st14" d="M255.44,680.58c4.74-1.78,7.06,40.94,7.7,58.52c8.4,0.81,23.03,0.01,26.67-0.27
			c1.71-0.13,5.67-1.58,7.37-1.8c1.75-0.23,3.33-0.35,4.19-0.2c0.32,0.05,9.07,3.63,9.82,4.42c0.93,0.97,3.44,3.43,3.01,4.49
			c-0.42,1.06-4.83-2.96-4.83-2.96l-2.15-1.21c2.68,2.62,7.79,6.06,7.05,7.32c-0.72,1.22-5.33-2.27-8.61-4.66
			c2.82,2.54,6.32,7.1,5.51,7.81c-0.72,0.64-4.71-4.63-8.96-6.15c-1.58-0.56-3.15,1-4.39,1.18c-0.91,0.14-2.32,0.43-3.21,0.18
			l-4.61-1.31c-1.57,0.14-1.61,1.07-3.19,1.41c-1.84,0.39-4.86,0.8-7.2,1.38c-13.49,3.3-18,4.83-22.13,4.83
			C244.96,753.55,244.23,684.78,255.44,680.58z"/>
		<path class="st2" d="M246.44,720.68c-0.89-18.01-0.76-40.21,9.34-44c3.98-1.49,11.01,7.49,9.74,44.36
			C260.13,721.49,252.22,721.85,246.44,720.68z"/>
		<path class="st14" d="M325.98,840.79c0,0-1.4,4.49,1.11,7.47c2.51,2.97,12.94,5.89,14.31,7.5c1.37,1.61,1.27,2.98,1.27,2.98
			l-29.28-0.81l0.32-8.84l1.35-6.35L325.98,840.79z"/>
		<path class="st26" d="M328.91,849.74c0,0-7.52,3.04-11.16,1.24c-3.63-1.8-3.52-2.3-4.58-1.63c-1.05,0.67-1.43,8.96-1.43,8.96
			l32.92,0.97c2.29-0.05,3.45-1.74,1.59-3.18c-1.28-0.99-2.75-1.65-3.59-2.13C340.1,852.48,328.91,849.74,328.91,849.74z"/>
		<path class="st19" d="M324.87,761.47c2.26-4.76,7.41-10.96,16.46-7.23c8.64,3.56,10.95,12.31,8.23,21.28
			c-2.72,8.96-20.66,61.65-21.29,68.89l-14.32,0.09c0,0,2.6-41.72,3.24-51.8C317.81,783,320.96,769.71,324.87,761.47z"/>
		<path class="st13" d="M348.12,712.94h-47.88c-1.27,0-2.41,0.77-2.89,1.94l-14.74,36.08h-26.39c-0.74,0-1.34,0.6-1.34,1.34l0,0
			c0,0.74,0.6,1.34,1.34,1.34h75.12c2.07,0,3.94-1.22,4.78-3.11l14.84-33.18C351.9,715.28,350.39,712.94,348.12,712.94z"/>
		<path class="st20" d="M322.35,733.95c-0.32,1.62-1.73,2.7-3.15,2.42c-1.41-0.28-2.3-1.83-1.98-3.45c0.32-1.62,1.73-2.7,3.15-2.42
			C321.79,730.79,322.67,732.33,322.35,733.95z"/>
		<g>
			<path class="st27" d="M296.29,629.83c-1.44-0.49-2.86-1.03-4.24-1.7c-1.55-0.75-3.56-1.62-4.83-1.82
				c-2.67-0.41-7.26-0.14-9.8,2.61c-3.16,3.43-8.77,0.62-7.64,18.56c1.28,20.31,12.57,18.08,12.85,17.74s10.07-12.99,10.07-12.99
				s3.43,7.49,3.43,7.22C296.13,659.18,313.62,635.66,296.29,629.83z"/>
			<path class="st14" d="M287.72,666.72l0.97,7.26c0,0,2.18,10.45-0.63,12.47c-2.81,2.02-11.95-12.77-11.95-12.77l0.97-18.39
				L287.72,666.72z"/>
			<path class="st16" d="M276.77,661.25c2.32,6.27,7.85,10.13,11.77,11.62l-0.83-6.15l-10.63-11.43L276.77,661.25z"/>
			<path class="st14" d="M287.14,635.28c5.95-0.96,11.29,3.83,11.14,9.79c-0.06,2.59-0.28,5.82-0.82,9.31
				c-1.29,8.38-7.01,15.75-10.79,15.09c-3.78-0.66-13.29-7.88-11.61-19.8C276.1,642.3,280.89,636.29,287.14,635.28z"/>
			<path class="st14" d="M277.69,651.08c-0.32,1.84-1.79,3.12-3.3,2.86c-1.5-0.26-2.46-1.97-2.14-3.81c0.32-1.84,1.79-3.12,3.3-2.86
				C277.05,647.54,278.01,649.24,277.69,651.08z"/>
			<path class="st27" d="M275.55,647.28c0,0,4.57,1.14,6.26-1.8c1.7-2.94,7.76-9.28,15.47-6.65c7.71,2.63-6.78-6.39-7.4-6.39
				c-0.62,0-8.02-0.05-8.02-0.05s-5.7,4.69-5.91,5.21c-0.21,0.52-1.85,6.14-1.85,6.14L275.55,647.28z"/>
		</g>
		<path class="st20" d="M283.91,659.54l8.31,1.59c0,0-0.79,3.13-4.47,2.54C283.27,662.94,283.91,659.54,283.91,659.54z"/>
	</g>
	<path class="st13" d="M1004.29,1073.85H137.38c-1.7,0-3.07,1.38-3.07,3.07l0,0c0,1.7,1.38,3.07,3.07,3.07h866.91
		c1.7,0,3.07-1.38,3.07-3.07l0,0C1007.36,1075.23,1005.99,1073.85,1004.29,1073.85z"/>
	<path class="st14" d="M826.86,850.56c-0.44-1.25,5.65-2.26,5.98-3.53c0.32-1.27-7.69-1.37-7.98-2.48c-0.53-2.05,8.78-0.43,8.6-1.39
		c-0.18-0.96-9.71-3.1-8.68-4.75c1.03-1.65,9.64,3.25,9.9,2.14c0.26-1.12-8.42-3.83-8.26-6.28c0.08-1.31,14.25,6.52,15.89,5.81
		c1.64-0.71-1.77-6.86-0.46-7.77c1.31-0.91,5.06,12.5,5.96,12.94c0.9,0.45,20.04,11.37,26.84,13.1c0.83-2.28,2.61-5.36,3.34-7.51
		c3.82,2.72,6.66,4.08,10.6,6.56c-2.86,7.16-6.92,15-8.91,15.9c-6.06,2.74-29.49-16.7-34.17-20.02c-4.68-3.33-7.36-2.25-10.53-3.3
		C831.83,848.92,827.29,851.81,826.86,850.56z"/>
	<path class="st28" d="M897.55,836.91c1.81,7.45-7.85,24.07-7.85,24.07s-13.76-6.49-16.17-9.29c0,0,9.34-16.13,9.96-17.11
		c2.77-4.44,6.54-4.44,8.99-4.15C894.45,830.67,897.55,836.91,897.55,836.91z"/>
</g>
</svg>
